<?xml version="1.0" encoding="utf-8"?>
<!-- Generator: Adobe Illustrator 17.1.0, SVG Export Plug-In . SVG Version: 6.00 Build 0)  -->
<!DOCTYPE svg PUBLIC "-//W3C//DTD SVG 1.1//EN" "http://www.w3.org/Graphics/SVG/1.1/DTD/svg11.dtd">
<svg version="1.1" id="Layer_1" xmlns="http://www.w3.org/2000/svg" xmlns:xlink="http://www.w3.org/1999/xlink" x="0px" y="0px"
	 viewBox="-64 -20 256 172" enable-background="new -64 -20 256 172" xml:space="preserve">
<g id="Layer_3" display="none">
	<rect x="-418.4" y="-38.8" display="inline" fill="#555555" width="1964.7" height="965.4"/>
</g>
<g id="Layer_4" display="none">
	
		<path display="inline" fill="#555555" stroke="#FFFFFF" stroke-width="4" stroke-linecap="round" stroke-linejoin="round" stroke-miterlimit="10" d="
		M794.4,431.8c10.6,7,24.3,30.4,20.5,57c-7.6,52.5-102.4,56.6-90.2,92.8c-11.4-7.6-26.6-31.8-21.1-62.7
		c8.3-46.7,81.3-64.6,81.3-74.9"/>
	
		<path display="inline" fill="none" stroke="#FFFFFF" stroke-width="4" stroke-linecap="round" stroke-linejoin="round" stroke-miterlimit="10" d="
		M484.6,483.7c9,0,23,35.8,23,58.2c0,22.4-16.6,35.8-21.1,35.8"/>
</g>
<g id="Layer_5" display="none">
</g>
<g id="Layer_7" display="none">
</g>
<g>
	<path d="M102.3,31.3c-8.4,0-15.2,6.8-15.2,15.2s6.8,15.2,15.2,15.2s15.2-6.8,15.2-15.2S110.7,31.3,102.3,31.3z M102.3,59.2
		c-7,0-12.7-5.7-12.7-12.7s5.7-12.7,12.7-12.7s12.7,5.7,12.7,12.7S109.2,59.2,102.3,59.2z"/>
	<path d="M148.7,63.8c8.4,0,15.2-6.8,15.2-15.2s-6.8-15.2-15.2-15.2s-15.2,6.8-15.2,15.2S140.3,63.8,148.7,63.8z M148.7,35.9
		c7,0,12.7,5.7,12.7,12.7s-5.7,12.7-12.7,12.7c-7,0-12.7-5.7-12.7-12.7S141.7,35.9,148.7,35.9z"/>
	<circle cx="96.7" cy="51.8" r="3.1"/>
	<circle cx="143.1" cy="53.1" r="3.1"/>
	<path d="M184.6,124.1c-0.1-8.5-4.4-16-11.9-20c-5.4-2.9-11.4-3.5-16.6-1.9c-0.5-2-1-3.5-1.7-4.2c-0.7-0.7-2.8-2.9-20.9-2.9
		c-0.5,0-1,0-1.4,0c-0.1-1.6-0.2-3.4-0.3-5.3c17-0.4,31.4-2.2,39.1-5.1c0.1,0,0.2-0.1,0.3-0.2c6.8-5.4,3.2-60.1,2.7-65.5h0
		c0-2-1.4-3.5-3.3-3.5c0,0,0,0,0,0c-0.2,0-20.5-1.4-42.5-1.6c0.3-2.1,0.4-4.9,0.1-7.3c2-1,3.3-3,3.3-5.4c0-3.4-2.7-6.1-6.1-6.1
		c-3.4,0-6.1,2.7-6.1,6.1c0,2.3,1.3,4.3,3.2,5.3c-0.3,2.4-0.2,5.2,0.1,7.3c-21.9,0.1-42.1,1.5-42.3,1.6c-1.9,0-3.4,1.6-3.4,3.4
		C76.2,29,73.1,80,79.8,84.5c0.1,0.1,0.2,0.1,0.3,0.1c7.1,2.6,19.6,4.4,34.6,5c0,2.3,0.2,4.3,0.4,6.1c-9.4,0.6-17.6,1.7-19.6,2.8
		c-0.6,0.4-1.9,1.2-2.5,6.5c-7.5,7.8-21.2,13.4-33.4,13.8c-1.7-3.3-5-5.5-8.9-5.5c-0.8,0-1.7,0.1-2.5,0.3c-2.3,0.5-3.8,2.9-3.3,5.2
		c0.5,2,2.2,3.4,4.3,3.4c0.4,0,0.7,0,1-0.1c0.1,0,0.4-0.1,0.5-0.1c0.5,0,0.9,0.4,1,1c0.3,1.3-0.5,1.6-1,1.6
		c-2.3,0.5-3.8,2.9-3.3,5.2c0.5,2,2.2,3.4,4.3,3.4c0.4,0,0.7,0,1-0.1c2.9-0.7,5.2-2.3,6.6-4.8c0.6-1.1,0.9-2.2,1.1-3.4
		c11.4-0.5,23.6-4.8,32.2-11.5c0.3,8.9,2,22.7,5,24.5c2.4,1.4,5.7,2.3,9.2,2.9c-0.9,0.7-1.5,1.7-1.5,2.9v4.7c0,2,1.7,3.6,3.6,3.6
		h13.9c2,0,3.6-1.7,3.6-3.6v-4.7c0-0.7-0.2-1.4-0.6-2c1.1,0,2.2-0.1,3.3-0.1c-0.5,0.6-0.7,1.3-0.7,2.1v4.7c0,2,1.7,3.6,3.6,3.6h13.9
		c2,0,3.6-1.7,3.6-3.6v-4.7c0-2-1.6-3.6-3.6-3.6h-1.9c5.5-0.9,9.7-2,10.7-3.2c2-2.5,2.8-17.7,1.8-28.4c3.9-1.4,8.6-1.1,12.7,1.1
		c5.5,3,8.7,8.5,8.7,14.8c-3.5,1.3-6.5,4.5-6.5,9.4c0,2.3,2,4.3,4.3,4.3c2.3,0,4.3-2,4.3-4.3c0-0.4,0-1.3,1.3-1.3
		c1.3,0,1.3,0.9,1.3,1.3c0,2.3,2,4.3,4.3,4.3c2.3,0,4.3-2,4.3-4.3C191.9,128.4,188.5,125.1,184.6,124.1z M52,130.2
		c-0.1,0-0.1,0-0.3,0c-0.5,0-1-0.4-1.2-1c-0.1-0.7,0.3-1.3,0.9-1.6c3-0.7,3.8-3.1,3.3-5.3c-0.4-1.8-1.8-3.5-4-3.5
		c-0.4,0-0.8,0-1.2,0.1c-0.1,0-0.1,0-0.3,0c-0.5,0-1-0.4-1.2-1c-0.1-0.7,0.3-1.3,0.9-1.6c0.5,0.1,1.2,0.1,1.7,0.1
		c3.5,0,5.9,2.5,6.5,5.5C58,125.3,56.4,129.2,52,130.2z M125.3-2.3c1.9,0,3.5,1.6,3.5,3.5s-1.6,3.5-3.5,3.5s-3.5-1.6-3.5-3.5
		S123.4-2.3,125.3-2.3z M79.4,18.9c0-0.5,0.4-0.9,0.9-0.9c0.2,0,22.1-1.6,45-1.6c22.9,0,44.8,1.5,45.1,1.6c0.5,0,0.8,0.4,0.8,0.9
		c0,0.1,0,0.2,0,0.3c0.6,4.6,3.3,58.3-1.6,63.1c-8.3,3-25.2,4.9-44.1,4.9c-19,0-35.9-1.9-44.4-4.9C77.6,79.4,77.5,48,79.4,18.9z
		 M117.3,89.7c3.8,0.1,7.8,0.2,11.8,0.1c0.1,1.8,0.2,3.6,0.3,5.2c-0.2,0-0.3,0-0.5,0c-1.5,0-3,0.1-4.6,0.1c-0.5,0-1.1,0-1.6,0.1
		c-1.7,0.1-3.3,0.2-5,0.2C117.4,93.9,117.3,91.9,117.3,89.7z M153.2,135.1c-1.4,1.4-16.2,4.1-31.8,4.1c-10.4,0-18.3-1.3-22.2-3.5
		c-1.8-1.4-4.4-17.8-3.7-28.9c0.3-5.3,1.3-6,1.3-6c1.5-0.9,10.4-2,20.8-2.6c1.7-0.1,3.3-0.2,5-0.3c0.5,0,1.1,0,1.6-0.1
		c2.2-0.1,4.4-0.1,6.6-0.1c0,0,0,0,0,0c0.9,0,1.7,0,2.5,0c16.2,0,18.7,1.8,19,2.1c1.1,1.1,2.2,7.6,2.3,17.9
		C154.8,127.7,153.8,134.3,153.2,135.1z M187.5,135.1c-0.7,0-1.3-0.5-1.3-1.3c0-3-2.2-4.4-4.4-4.4s-4.4,1.4-4.4,4.4
		c0,0.7-0.5,1.3-1.3,1.3s-1.3-0.5-1.3-1.3c0.2-3.1,1.9-5.2,4-6.2c0,0,0,0,0,0.1c1-0.5,2.1-0.8,3.2-0.8c3.5,0,6.8,2.4,6.8,6.9
		C188.8,134.4,188.3,135.1,187.5,135.1z"/>
</g>
<g>
	<path d="M20.8,60.7c0.5-0.3,0.5-1,0.2-1.4s-1-0.5-1.4-0.2c-3.3,2.5-11.5,1.4-14.9-1.2c-0.5-0.3-1.1-0.3-1.4,0.2
		c-0.3,0.5-0.3,1.1,0.2,1.4c2.5,1.9,6.6,3,10.5,3C16.5,62.6,19.1,62,20.8,60.7z"/>
	<path d="M-15.5,57.8c-2.9,1.7-7.4,1.3-10.5,0.3c-1.8-0.6-2.9-1.4-3-1.9c-0.2-0.5-0.8-0.8-1.4-0.6c-0.5,0.2-0.8,0.8-0.6,1.4
		c0.7,1.6,3,2.6,4.3,3c1.7,0.6,3.8,1,6,1c2.1,0,4.3-0.4,6.1-1.4c0.5-0.3,0.7-0.9,0.4-1.4C-14.4,57.7-15,57.5-15.5,57.8z"/>
	<path d="M49.2,63.1c-0.1-0.9-0.4-1.7-0.9-2.4c8.2-11.4,9.4-26,6.1-37.8C49.5,5,35.2-6.6,18-6.8c-3.7-3.7-13.1-8.5-24.2-8.5
		c-24.8,0-46.3,16.5-54.7,42.1c-8.8,26.8-0.6,54.4,21,70.2c0.2,0.2,0.5,0.2,0.8,0.2c0.3,0,0.6-0.1,0.9-0.3c0.5-0.4,0.6-1.1,0.3-1.6
		c-2-3.4-3.5-6.6-4.6-9.6c0.7,1,1.3,1.9,2,2.8c4.3,5.9,8,11.1,6.2,23c-0.1,0.5,0.2,1,0.6,1.3c0.2,0.1,0.4,0.2,0.6,0.2
		c0.3,0,0.6-0.1,0.8-0.3c6.8-5.4,9.3-11.8,10.3-16.5c0.5,0.2,1.1,0.4,1.6,0.5c-1.3,1.7-2.5,4.1-3.6,7c0,0,0,0.1,0,0.1
		c-2.1,6-3.5,13.9-3.5,21.6c0,8.1,4.2,15.2,9.3,16.1c0.4,2.3,1,4.3,1.7,5.7c-0.5,1.2-0.1,2.4,0.6,3.3c0.3,0.7,1.3,1.4,6.6,1.4
		c5.1,0,7-0.6,7.7-1.1c0.1,0,0.2,0,0.2,0c0,0,0,0,0.1,0c0.8,0.6,2.7,1.1,7.7,1.1c0,0,0,0,0,0c5.3,0,6.3-0.8,6.6-1.4
		c0.7-0.8,1-2,0.6-3.1c2.1-3.3,2.5-11,2.3-15.9c4,3.1,8,5.2,10.8,5.9c0.1,0,0.2,0,0.3,0c0.4,0,0.8-0.2,1-0.5
		c0.3-0.4,0.4-0.9,0.1-1.4c-2.8-5.5-4.2-10.1-4-13.9c2.7,0.9,5.9,1.7,8.9,2.5c3.3,0.8,6.7,1.7,9.4,2.7c0.1,0.1,0.3,0.1,0.4,0.1
		c0.1,0,0.2,0,0.3,0c0,0,0.1,0.1,0.1,0.1c0.8,0.4,1.8,0.7,2.6,0.7c1.4,0,2.6-0.6,3.2-1.6c0.4-0.7,0.5-1.5,0.3-2.4
		c-0.3-1.1-1.1-2.1-2.3-2.9c-0.1-0.2-0.3-0.5-0.6-0.6c-5-2.5-9.5-6.9-13-10.7c2-1.1,4.1-2.1,6.2-3.2c7.7-3.7,15.7-7.5,18.8-15.8
		C63.5,77.9,54.7,67.6,49.2,63.1z M5.2,96.6c-3,0.4-6.1,0.6-9.2,0.6c-16.7,0-31.8-7.8-40.8-20.9c-0.1-0.2-0.1-0.3-0.2-0.5
		c-0.2-2.4,0-4.6,0.6-6.7c2.6-9.4,12.6-14.8,24.1-21.1C-8.9,41.9,4.2,34.7,12,21.7c2.9,9.1,9.5,15.2,15.3,20.6
		c9,8.4,15.6,14.5,7.1,27.7c-0.3,0.5-0.3,1.2,0.2,1.6c0.2,0.3,0.6,0.4,0.9,0.4c0.2,0,0.5-0.1,0.7-0.2c1.1-0.6,2.1-1.3,3.1-2
		c0.1,0.1,0.2,0.1,0.3,0.2c-0.1,1.2-4.8,3.5-8.6,5.4C22.6,79.6,10.2,85.8,5.2,96.6z M51.9,23.6c3.9,13.9,1.2,31.9-12.7,43
		c5.1-11.9-2.3-18.8-10.1-26.1c-6.1-5.7-13-12.2-15.3-22c3.1-6.2,5-13.6,5.1-22.6C34.5-3.6,47.4,7.1,51.9,23.6z M-58.4,27.6
		c8-24.5,28.5-40.4,52.3-40.4c11.4,0,20,5.2,22.6,7.9c-0.2,30-20.2,40.9-37.9,50.6C-33,52.1-43.9,58.1-46.8,68.5
		c-1.7,6.2-0.6,13.6,3.6,22.4C-60.2,75.4-66.1,51.3-58.4,27.6z M-31.4,108.5c0.8-10.6-3-15.9-7-21.4c-0.4-0.5-0.7-1-1.1-1.5
		c4.4,4.1,9.5,7.4,15.2,9.7C-25.1,99-26.9,103.9-31.4,108.5z M-3.9,99.3c2.8,0,5.6-0.2,8.3-0.5c-1,2.9-1.5,6.1-1.3,9.7
		c-1.4-1-2.7-2.5-3.1-4.5c0.1-0.5,0.1-0.9,0.1-1.4c0-0.7-0.6-1.3-1.3-1.3c0,0-0.1,0-0.1,0c0,0-0.1,0-0.1,0c-0.7,0-1.3,0.6-1.3,1.3
		c0,0.5,0,0.9,0.1,1.3c-1,4.5-6.8,6.9-9.9,6.9c-3.1,0-8.8-1.3-9-6.3c1.2-3.3,2.5-5.8,3.9-7C-13.3,98.7-8.7,99.3-3.9,99.3z
		 M11.9,145.3c-1.9-1.3-5-1.8-7.4-1.8c-1.4,0-3.3,0.2-4.8,1c-0.5,0.3-0.8,0.7-1.1,1.1c-0.3-0.4-0.7-0.8-1.3-1.1
		c-1.4-0.8-3.4-0.9-4.7-0.9c-2.3,0-5.3,0.5-7.2,1.7c-1.3-3.9-2.6-14.1-1.8-16.5c0.2-0.7-0.1-1.4-0.8-1.6c-0.7-0.2-1.4,0.1-1.6,0.8
		c-0.4,1.2-0.4,4.1-0.2,7.4l-1.9,2c-2.4-2.4-4-6.9-4-11.7c0-6,0.9-11.9,2.1-16.7c2.1,3.1,6.3,4.6,10.3,4.6c3.3,0,8.6-2,11.2-5.9
		c1,1.7,2.7,3.2,4.8,4.3c0,0.2,0,0.3,0.1,0.5c1.3,6.9,5.3,12.6,9.7,16.9C13.8,134.6,13,142.2,11.9,145.3z M44.4,121.8l-1.3,2.4
		c-2.7-1-6.1-1.8-9.3-2.6c-3.2-0.8-6.4-1.6-9.2-2.6c0.1-0.2,0.1-0.5,0.2-0.7c1.1-3.2,3.5-5.5,6.6-7.6
		C34.9,114.5,39.3,118.9,44.4,121.8z M56.4,89.5c-2.7,7.3-10.3,10.9-17.5,14.4c-7.3,3.5-14.2,6.8-16.5,13.6
		c-0.2,0.6-0.3,1.1-0.5,1.7c0,0.1-0.1,0.1-0.1,0.1c-0.1,0.3-0.1,0.5,0,0.8c-0.5,3.9,0.4,8.4,2.7,13.7c-2.8-1.2-6.1-3.4-9.2-6.3
		c-0.1-0.1-0.1-0.1-0.2-0.2c-4.2-3.9-7.9-9.2-9.1-15.6C2.5,92.5,20.3,83.6,32.2,77.7c5.4-2.7,9.2-4.6,9.9-7c2.1,0.2,4.3-0.6,5.8-2.4
		c0.5-0.6,0.9-1.3,1.1-2.1C53.9,70.7,60.2,79.3,56.4,89.5z"/>
</g>
<g id="Layer_6" display="none">
	
		<path display="inline" opacity="0.5" fill="none" stroke="#00D43D" stroke-width="4" stroke-linecap="round" stroke-linejoin="round" stroke-miterlimit="10" enable-background="new    " d="
		M367.8,484.9c-7.2-52.5,17.3-88.7,60.2-91.3c42.9-2.6,105.9-26.2,69.3-95.4C450.1,259.2,290.5,319.6,367.8,484.9z"/>
	
		<path display="inline" fill="none" stroke="#FFFFFF" stroke-width="4" stroke-linecap="round" stroke-linejoin="round" stroke-miterlimit="10" d="
		M541.3,431.8c0,12.2-46.5,32.8-66.2,69.8c-13,24.3-13.4,60.5,6.4,79.4c-2.1-34.8-2.2-58.2,43.5-78.1c41.3-18,53.8-55.5,29.4-78.7"
		/>
	
		<path display="inline" opacity="0.5" fill="none" stroke="#00D43D" stroke-width="4" stroke-linecap="round" stroke-linejoin="round" stroke-miterlimit="10" enable-background="new    " d="
		M32.5,484.9c-7.2-52.5,17.3-88.7,60.2-91.3c42.9-2.6,105.9-26.2,69.3-95.4C114.7,259.2-44.9,319.6,32.5,484.9z"/>
	
		<path display="inline" opacity="0.5" fill="none" stroke="#00D43D" stroke-width="4" stroke-linecap="round" stroke-linejoin="round" stroke-miterlimit="10" enable-background="new    " d="
		M205.9,431.8c3.8,12.8-32.6,15-59.9,45.7c-27.4,30.7-26.6,72.3-6.8,91.1c-2.1-34.8,10.7-41.7,56.1-62.1
		c45.4-20.5,54-67.6,29.6-90.9"/>
</g>
</svg>
