<?xml version="1.0" encoding="utf-8"?>
<!-- Generator: Adobe Illustrator 17.1.0, SVG Export Plug-In . SVG Version: 6.00 Build 0)  -->
<!DOCTYPE svg PUBLIC "-//W3C//DTD SVG 1.1//EN" "http://www.w3.org/Graphics/SVG/1.1/DTD/svg11.dtd">
<svg version="1.1" id="Layer_2" xmlns="http://www.w3.org/2000/svg" xmlns:xlink="http://www.w3.org/1999/xlink" x="0px" y="0px"
	 viewBox="0 0 128 128" enable-background="new 0 0 128 128" xml:space="preserve">
<g opacity="0.1">
	<path fill="#FF003B" d="M16.1,27.7h0.5v1.6c0,5.1,3.3,9.4,8,10.7v5.2h14.9v-5.2c4.6-1.4,8-5.7,8-10.7v-1.6H48c0.6,0,1-0.5,1-1v-3.2
		c0-0.6-0.5-1-1-1h-0.5v-9.2c0-0.9-0.7-1.6-1.6-1.6c-0.9,0-1.6,0.7-1.6,1.6v16.1c0,4.4-3.6,8-8,8h-8.5c-4.4,0-8-3.6-8-8V13.3
		c0-0.9-0.7-1.6-1.6-1.6c-0.9,0-1.6,0.7-1.6,1.6v9.1h-0.5c-0.6,0-1,0.5-1,1v3.2C15,27.3,15.5,27.7,16.1,27.7z"/>
	<path fill="#FF003B" d="M27.8,26.3c0,0.6-0.5,1-1,1h-4.2v2.1c0,2.9,2.4,5.3,5.3,5.3h8.5c2.9,0,5.3-2.4,5.3-5.3v-2.1h-4.2
		c-0.6,0-1-0.5-1-1c0-0.6,0.5-1,1-1h5.3v-2.1h-5.3c-0.6,0-1-0.5-1-1c0-0.6,0.5-1,1-1h4.2v-2.1h-4.2c-0.6,0-1-0.5-1-1
		c0-0.6,0.5-1,1-1h4.2v-2.1h-4.2c-0.6,0-1-0.5-1-1c0-0.6,0.5-1,1-1h4.2v-2.1h-4.2c-0.6,0-1-0.5-1-1c0-0.6,0.5-1,1-1h4.2v-1
		c0-2.9-2.4-5.3-5.3-5.3h-8.5c-2.9,0-5.3,2.4-5.3,5.3v1h4.2c0.6,0,1,0.5,1,1c0,0.6-0.5,1-1,1h-4.2v2.1h4.2c0.6,0,1,0.5,1,1
		c0,0.6-0.5,1-1,1h-4.2v2.1h4.2c0.6,0,1,0.5,1,1c0,0.6-0.5,1-1,1h-4.2V21h4.2c0.6,0,1,0.5,1,1c0,0.6-0.5,1-1,1h-5.3v2.1h5.3
		C27.3,25.2,27.8,25.7,27.8,26.3z"/>
	<path fill="#FF003B" d="M49,61.4H35.2V50.8h3.2c0.6,0,1-0.5,1-1v-1v-1v-1h-1H25.7h-1v1v1v1c0,0.6,0.5,1,1,1h3.2v10.7H15
		c-0.6,0-1,0.5-1,1c0,0.6,0.5,1,1,1h14.9h4.2h14.9c0.6,0,1-0.5,1-1C50,61.9,49.5,61.4,49,61.4z"/>
</g>
<g opacity="0.1">
	<path fill="#FF003B" d="M80.1,91.7h0.5v1.6c0,5.1,3.3,9.4,8,10.7v5.2h14.9v-5.2c4.6-1.4,8-5.7,8-10.7v-1.6h0.5c0.6,0,1-0.5,1-1
		v-3.2c0-0.6-0.5-1-1-1h-0.5v-9.1c0-0.9-0.7-1.6-1.6-1.6s-1.6,0.7-1.6,1.6v16.1c0,4.4-3.6,8-8,8h-8.5c-4.4,0-8-3.6-8-8V77.4
		c0-0.9-0.7-1.6-1.6-1.6c-0.9,0-1.6,0.7-1.6,1.6v9.1h-0.5c-0.6,0-1,0.5-1,1v3.2C79,91.3,79.5,91.7,80.1,91.7z"/>
	<path fill="#FF003B" d="M91.8,90.3c0,0.6-0.5,1-1,1h-4.2v2.1c0,2.9,2.4,5.3,5.3,5.3h8.5c2.9,0,5.3-2.4,5.3-5.3v-2.1h-4.2
		c-0.6,0-1-0.5-1-1c0-0.6,0.5-1,1-1h5.3v-2.1h-5.3c-0.6,0-1-0.5-1-1c0-0.6,0.5-1,1-1h4.2v-2.1h-4.2c-0.6,0-1-0.5-1-1
		c0-0.6,0.5-1,1-1h4.2v-2.1h-4.2c-0.6,0-1-0.5-1-1c0-0.6,0.5-1,1-1h4.2v-2.1h-4.2c-0.6,0-1-0.5-1-1c0-0.6,0.5-1,1-1h4.2v-1
		c0-2.9-2.4-5.3-5.3-5.3h-8.5c-2.9,0-5.3,2.4-5.3,5.3v1h4.2c0.6,0,1,0.5,1,1c0,0.6-0.5,1-1,1h-4.2v2.1h4.2c0.6,0,1,0.5,1,1
		c0,0.6-0.5,1-1,1h-4.2v2.1h4.2c0.6,0,1,0.5,1,1c0,0.6-0.5,1-1,1h-4.2V85h4.2c0.6,0,1,0.5,1,1c0,0.6-0.5,1-1,1h-5.3v2.1h5.3
		C91.3,89.2,91.8,89.7,91.8,90.3z"/>
	<path fill="#FF003B" d="M113,125.4H99.2v-10.7h3.2c0.6,0,1-0.5,1-1v-1v-1v-1h-1H89.7h-1v1v1v1c0,0.6,0.5,1,1,1h3.2v10.7H79
		c-0.6,0-1,0.5-1,1c0,0.6,0.5,1,1,1h14.9h4.2h14.9c0.6,0,1-0.5,1-1C114,125.9,113.5,125.4,113,125.4z"/>
</g>
</svg>
