<svg width="1024" height="640" viewBox="0 0 1024 640" version="1.1" xmlns="http://www.w3.org/2000/svg" xmlns:xlink="http://www.w3.org/1999/xlink">
<title>athena</title>
<desc>Created using Figma</desc>
<g id="Canvas" transform="translate(-4278 1062)">
<g id="athena">
<g id="Rectangle">
<use xlink:href="#path0_fill" transform="translate(4278 -1062)" fill="#FFFFFF"/>
<mask id="mask0_outline_ins">
<use xlink:href="#path0_fill" fill="white" transform="translate(4278 -1062)"/>
</mask>
<g mask="url(#mask0_outline_ins)">
<use xlink:href="#path1_stroke_2x" transform="translate(4278 -1062)" fill="#0C0C0F"/>
</g>
</g>
<g id="Athena">
<use xlink:href="#path2_fill" transform="translate(4368.16 -937.4)" fill="#0C0C0F"/>
<use xlink:href="#path3_fill" transform="translate(4368.16 -937.4)" fill="#0C0C0F"/>
<use xlink:href="#path4_fill" transform="translate(4368.16 -937.4)" fill="#0C0C0F"/>
<use xlink:href="#path5_fill" transform="translate(4368.16 -937.4)" fill="#0C0C0F"/>
<use xlink:href="#path6_fill" transform="translate(4368.16 -937.4)" fill="#0C0C0F"/>
<use xlink:href="#path7_fill" transform="translate(4368.16 -937.4)" fill="#0C0C0F"/>
</g>
<g id="Line">
<use xlink:href="#path8_stroke" transform="translate(4367.4 -693.25)" fill="#0C0C0F"/>
</g>
</g>
</g>
<defs>
<path id="path0_fill" d="M 0 0L 1024 0L 1024 640L 0 640L 0 0Z"/>
<path id="path1_stroke_2x" d="M 0 0L 0 -32L -32 -32L -32 0L 0 0ZM 1024 0L 1056 0L 1056 -32L 1024 -32L 1024 0ZM 1024 640L 1024 672L 1056 672L 1056 640L 1024 640ZM 0 640L -32 640L -32 672L 0 672L 0 640ZM 0 32L 1024 32L 1024 -32L 0 -32L 0 32ZM 992 0L 992 640L 1056 640L 1056 0L 992 0ZM 1024 608L 0 608L 0 672L 1024 672L 1024 608ZM 32 640L 32 0L -32 0L -32 640L 32 640Z"/>
<path id="path2_fill" d="M 78.912 92.16L 38.592 92.16L 28.608 118.848C 28.224 119.488 27.968 120.192 27.84 120.96C 27.712 121.728 27.648 122.304 27.648 122.688C 27.648 124.096 28.288 125.248 29.568 126.144C 30.976 127.04 33.728 127.808 37.824 128.448C 39.616 128.704 40.512 129.92 40.512 132.096C 40.512 132.992 40.384 134.08 40.128 135.36C 36.672 135.104 33.024 134.848 29.184 134.592C 25.344 134.464 21.568 134.4 17.856 134.4C 15.296 134.4 12.608 134.464 9.792 134.592C 6.976 134.72 3.84 134.976 0.384 135.36C 0.128 134.848 0 134.272 0 133.632C 0 132.992 0 132.48 0 132.096C 0 129.664 0.832 128.384 2.496 128.256C 6.464 127.488 9.28 126.656 10.944 125.76C 12.736 124.864 14.144 123.328 15.168 121.152L 61.44 10.56C 62.464 8.384 64 7.296 66.048 7.296C 66.688 7.296 67.328 7.35999 67.968 7.488C 68.608 7.488 69.312 7.552 70.08 7.67999L 116.352 121.728C 117.12 123.648 118.592 125.12 120.768 126.144C 122.944 127.04 125.312 127.68 127.872 128.064C 129.792 128.448 130.752 129.728 130.752 131.904C 130.752 132.928 130.624 134.08 130.368 135.36C 126.272 135.104 122.24 134.848 118.272 134.592C 114.304 134.464 110.592 134.4 107.136 134.4C 105.344 134.4 103.168 134.4 100.608 134.4C 98.048 134.528 95.424 134.656 92.736 134.784C 90.048 134.912 87.36 134.976 84.672 134.976C 82.112 135.104 79.936 135.232 78.144 135.36C 77.888 134.848 77.76 134.272 77.76 133.632C 77.76 132.992 77.76 132.48 77.76 132.096C 77.76 130.944 77.952 130.112 78.336 129.6C 78.848 128.96 79.36 128.576 79.872 128.448C 83.2 127.808 85.632 127.104 87.168 126.336C 88.832 125.44 89.664 124.16 89.664 122.496C 89.664 121.728 89.472 120.768 89.088 119.616L 78.912 92.16ZM 75.264 82.56L 58.944 39.36L 42.24 82.56L 75.264 82.56Z"/>
<path id="path3_fill" d="M 180.006 121.92C 181.286 121.152 182.374 120.768 183.27 120.768C 184.55 120.768 185.894 122.112 187.302 124.8C 181.926 129.664 177.19 132.864 173.094 134.4C 169.126 135.936 164.902 136.704 160.422 136.704C 157.862 136.704 155.366 136.384 152.934 135.744C 150.63 135.104 148.518 133.952 146.598 132.288C 144.678 130.624 143.142 128.384 141.99 125.568C 140.838 122.624 140.262 118.912 140.262 114.432L 140.262 61.632L 128.742 61.632L 128.742 56.832C 128.742 56.32 128.87 55.68 129.126 54.912C 129.382 54.144 130.15 53.76 131.43 53.76C 134.886 53.76 138.086 52.8 141.03 50.88C 143.974 48.832 146.342 45.824 148.134 41.856C 149.542 38.912 151.078 36.544 152.742 34.752C 154.534 32.96 156.262 32.064 157.926 32.064L 161.958 32.064L 161.958 52.032L 184.422 52.032C 184.422 56.128 184.102 58.752 183.462 59.904C 182.95 61.056 181.926 61.632 180.39 61.632L 161.958 61.632L 161.958 109.056C 161.958 112.896 162.086 115.968 162.342 118.272C 162.598 120.448 162.982 122.112 163.494 123.264C 164.134 124.416 164.902 125.184 165.798 125.568C 166.822 125.824 167.974 125.952 169.254 125.952C 170.662 125.952 172.326 125.632 174.246 124.992C 176.166 124.224 178.086 123.2 180.006 121.92Z"/>
<path id="path4_fill" d="M 238.924 135.36C 235.597 135.104 232.14 134.848 228.556 134.592C 224.972 134.464 221.132 134.4 217.036 134.4C 212.045 134.4 207.821 134.464 204.365 134.592C 201.037 134.848 197.772 135.104 194.572 135.36C 194.316 134.08 194.188 132.864 194.188 131.712C 194.188 130.816 194.38 130.24 194.764 129.984C 195.276 129.6 195.788 129.344 196.3 129.216C 200.396 128.576 203.212 127.808 204.748 126.912C 206.284 125.888 207.052 124.416 207.052 122.496L 207.052 21.888C 207.052 18.048 206.412 15.168 205.132 13.248C 203.852 11.2 200.844 9.984 196.108 9.6C 194.444 9.344 193.612 8.31999 193.612 6.528C 193.612 6.144 193.612 5.696 193.612 5.184C 193.612 4.544 193.74 3.968 193.996 3.456C 194.764 3.456 195.852 3.456 197.26 3.456C 198.796 3.328 200.397 3.26399 202.061 3.26399C 203.725 3.136 205.388 3.008 207.052 2.88C 208.716 2.752 210.252 2.62399 211.66 2.496C 214.86 2.112 217.932 1.6 220.876 0.959999C 223.82 0.32 225.804 0 226.828 0C 228.876 0 229.9 0.959999 229.9 2.88C 229.9 4.288 229.708 6.144 229.324 8.44799C 228.94 10.624 228.748 13.76 228.748 17.856L 228.748 67.584C 232.844 62.208 237.388 57.92 242.38 54.72C 247.372 51.392 252.556 49.728 257.932 49.728C 265.74 49.728 271.885 51.904 276.365 56.256C 280.844 60.608 283.085 67.136 283.085 75.84L 283.085 122.688C 283.085 124.48 283.789 125.824 285.197 126.72C 286.733 127.616 289.612 128.448 293.836 129.216C 294.348 129.344 294.797 129.6 295.181 129.984C 295.693 130.24 295.948 130.816 295.948 131.712C 295.948 132.864 295.82 134.08 295.564 135.36C 292.236 135.104 288.909 134.848 285.581 134.592C 282.253 134.464 278.092 134.4 273.1 134.4C 269.004 134.4 265.165 134.464 261.581 134.592C 257.997 134.848 254.54 135.104 251.212 135.36C 250.956 134.848 250.828 134.272 250.828 133.632C 250.828 132.992 250.828 132.352 250.828 131.712C 250.828 130.304 251.532 129.472 252.94 129.216C 256.396 128.576 258.636 127.808 259.66 126.912C 260.812 126.016 261.388 124.608 261.388 122.688L 261.388 85.056C 261.388 77.504 260.428 72.32 258.508 69.504C 256.716 66.56 253.772 65.088 249.676 65.088C 243.916 65.088 238.988 67.072 234.893 71.04C 230.797 74.88 228.748 80.64 228.748 88.32L 228.748 122.688C 228.748 124.608 229.26 126.016 230.285 126.912C 231.309 127.808 233.612 128.576 237.197 129.216C 238.604 129.472 239.308 130.304 239.308 131.712C 239.308 132.352 239.308 132.992 239.308 133.632C 239.308 134.272 239.181 134.848 238.924 135.36Z"/>
<path id="path5_fill" d="M 379.278 116.736C 380.43 115.84 381.454 115.392 382.35 115.392C 382.99 115.392 383.694 115.712 384.462 116.352C 385.358 116.864 386.254 117.952 387.15 119.616C 382.158 125.504 376.398 129.856 369.87 132.672C 363.47 135.36 355.854 136.704 347.022 136.704C 342.03 136.704 337.102 135.936 332.238 134.4C 327.502 132.736 323.214 130.24 319.374 126.912C 315.534 123.456 312.398 119.168 309.966 114.048C 307.662 108.928 306.51 102.784 306.51 95.616C 306.51 88.576 307.854 82.24 310.542 76.608C 313.358 70.848 316.878 65.984 321.102 62.016C 325.326 58.048 329.934 55.04 334.926 52.992C 339.918 50.816 344.718 49.728 349.326 49.728C 361.742 49.728 371.086 53.312 377.358 60.48C 383.758 67.648 386.958 77.44 386.958 89.856C 386.958 90.752 386.51 91.2 385.614 91.2L 330.51 93.504C 330.51 103.488 332.75 111.168 337.23 116.544C 341.71 121.792 348.43 124.416 357.39 124.416C 361.358 124.416 365.262 123.776 369.102 122.496C 372.942 121.216 376.334 119.296 379.278 116.736ZM 346.446 58.176C 341.454 58.176 337.422 60.352 334.35 64.704C 331.406 68.928 329.934 75.648 329.934 84.864L 359.886 83.52C 361.806 83.392 362.766 82.56 362.766 81.024C 362.766 78.592 362.446 76.032 361.806 73.344C 361.166 70.656 360.142 68.224 358.734 66.048C 357.454 63.744 355.79 61.888 353.742 60.48C 351.694 58.944 349.262 58.176 346.446 58.176Z"/>
<path id="path6_fill" d="M 487.835 122.688C 487.835 124.48 488.602 125.888 490.138 126.912C 491.674 127.808 494.49 128.576 498.586 129.216C 499.098 129.344 499.547 129.6 499.931 129.984C 500.443 130.24 500.698 130.816 500.698 131.712C 500.698 132.48 500.635 133.184 500.507 133.824C 500.507 134.336 500.442 134.848 500.314 135.36C 496.986 135.104 493.659 134.848 490.331 134.592C 487.003 134.464 482.842 134.4 477.85 134.4C 473.754 134.4 469.915 134.464 466.331 134.592C 462.747 134.848 459.29 135.104 455.962 135.36C 455.706 134.72 455.578 133.504 455.578 131.712C 455.578 130.304 456.282 129.472 457.69 129.216C 461.018 128.576 463.258 127.808 464.41 126.912C 465.562 126.016 466.138 124.608 466.138 122.688L 466.138 85.056C 466.138 77.504 465.178 72.32 463.258 69.504C 461.466 66.56 458.522 65.088 454.426 65.088C 448.666 65.088 443.738 67.072 439.642 71.04C 435.546 74.88 433.499 80.64 433.499 88.32L 433.499 122.688C 433.499 124.608 434.075 126.016 435.227 126.912C 436.379 127.808 438.619 128.576 441.947 129.216C 443.354 129.472 444.059 130.304 444.059 131.712C 444.059 133.504 443.931 134.72 443.674 135.36C 440.347 135.104 436.89 134.848 433.306 134.592C 429.722 134.464 425.882 134.4 421.786 134.4C 416.795 134.4 412.571 134.464 409.115 134.592C 405.787 134.848 402.523 135.104 399.323 135.36C 399.195 134.848 399.067 134.336 398.939 133.824C 398.939 133.184 398.939 132.48 398.939 131.712C 398.939 130.816 399.13 130.24 399.514 129.984C 400.026 129.6 400.539 129.344 401.051 129.216C 405.147 128.448 407.963 127.616 409.499 126.72C 411.035 125.824 411.802 124.416 411.802 122.496L 411.802 71.808C 411.802 67.968 411.098 65.024 409.69 62.976C 408.282 60.928 405.338 59.712 400.858 59.328C 399.194 58.944 398.362 57.92 398.362 56.256C 398.362 55.872 398.362 55.424 398.362 54.912C 398.362 54.272 398.49 53.696 398.746 53.184C 399.514 53.184 400.602 53.184 402.01 53.184C 403.546 53.056 405.146 52.992 406.81 52.992C 408.474 52.864 410.138 52.736 411.802 52.608C 413.466 52.48 415.002 52.352 416.41 52.224C 419.61 51.84 422.682 51.328 425.626 50.688C 428.57 50.048 430.554 49.728 431.578 49.728C 433.626 49.728 434.65 50.688 434.65 52.608C 434.65 54.016 434.458 55.872 434.074 58.176C 433.69 60.48 433.499 63.68 433.499 67.776C 437.595 62.4 442.138 58.048 447.13 54.72C 452.122 51.392 457.306 49.728 462.682 49.728C 470.49 49.728 476.635 51.904 481.115 56.256C 485.594 60.608 487.835 67.136 487.835 75.84L 487.835 122.688Z"/>
<path id="path7_fill" d="M 594.396 128.448C 596.316 128.448 597.276 130.048 597.276 133.248C 595.612 134.4 593.5 135.232 590.94 135.744C 588.508 136.384 586.012 136.704 583.452 136.704C 577.692 136.704 573.276 135.296 570.204 132.48C 567.132 129.664 565.34 126.4 564.828 122.688C 562.268 127.808 558.812 131.456 554.46 133.632C 550.236 135.68 545.244 136.704 539.484 136.704C 536.796 136.704 533.788 136.448 530.46 135.936C 527.26 135.552 524.252 134.656 521.436 133.248C 518.748 131.84 516.444 129.856 514.524 127.296C 512.604 124.736 511.644 121.344 511.644 117.12C 511.644 112.384 512.86 108.352 515.292 105.024C 517.724 101.696 520.732 98.944 524.316 96.768C 528.028 94.464 532.06 92.672 536.412 91.392C 540.764 89.984 544.86 88.832 548.7 87.936C 550.364 87.552 552.092 87.168 553.884 86.784C 555.676 86.272 557.084 85.888 558.108 85.632C 559.516 85.248 560.412 84.736 560.796 84.096C 561.18 83.328 561.372 81.472 561.372 78.528C 561.372 72 560.412 67.008 558.492 63.552C 556.572 59.968 553.308 58.176 548.7 58.176C 544.988 58.176 542.3 59.328 540.636 61.632C 539.1 63.936 537.628 67.584 536.22 72.576C 535.836 73.984 534.684 75.072 532.764 75.84C 530.972 76.48 528.668 77.184 525.852 77.952C 524.316 78.336 522.716 78.656 521.052 78.912C 519.516 79.168 518.108 79.296 516.828 79.296C 516.06 79.296 515.548 79.04 515.292 78.528C 515.036 77.888 514.908 76.736 514.908 75.072C 514.908 71.872 516.06 68.736 518.364 65.664C 520.796 62.592 523.804 59.904 527.388 57.6C 530.972 55.168 534.876 53.248 539.1 51.84C 543.452 50.432 547.612 49.728 551.58 49.728C 556.316 49.728 560.604 50.176 564.444 51.072C 568.284 51.84 571.548 53.312 574.236 55.488C 577.052 57.536 579.228 60.352 580.764 63.936C 582.3 67.392 583.068 71.872 583.068 77.376L 583.068 111.168C 583.068 115.648 583.132 118.912 583.26 120.96C 583.516 123.008 583.9 124.544 584.412 125.568C 585.564 127.872 587.356 129.024 589.788 129.024C 590.812 129.024 591.644 128.96 592.284 128.832C 593.052 128.576 593.756 128.448 594.396 128.448ZM 561.372 92.544L 557.148 93.312C 554.204 93.824 551.452 94.592 548.892 95.616C 546.332 96.512 544.092 97.792 542.172 99.456C 540.38 100.992 538.908 102.976 537.756 105.408C 536.732 107.712 536.22 110.528 536.22 113.856C 536.22 118.848 536.988 122.368 538.524 124.416C 540.188 126.336 542.556 127.296 545.628 127.296C 550.492 127.296 554.332 125.504 557.148 121.92C 559.964 118.336 561.372 113.344 561.372 106.944L 561.372 92.544Z"/>
<path id="path8_stroke" d="M 0 0L 162.54 0L 162.54 -8L 0 -8L 0 0Z"/>
</defs>
</svg>
