<svg width="1024" height="640" viewBox="0 0 1024 640" version="1.1" xmlns="http://www.w3.org/2000/svg" xmlns:xlink="http://www.w3.org/1999/xlink">
<title>primer</title>
<desc>Created using Figma</desc>
<g id="Canvas" transform="translate(1994 -2739)">
<g id="primer">
<g id="Rectangle">
<use xlink:href="#path0_fill" transform="translate(-1994 2739)" fill="#0C0C0F"/>
</g>
<g id="package" style="mix-blend-mode:lighten">
<g id="Vector">
<use xlink:href="#path1_fill" transform="translate(-1527 2899)" fill="#FFEB3B"/>
</g>
</g>
<g id="package" style="mix-blend-mode:lighten">
<g id="Vector">
<use xlink:href="#path1_fill" transform="translate(-1807 2899)" fill="#3B52FF"/>
</g>
</g>
<g id="package">
<g id="Vector">
<use xlink:href="#path1_fill" transform="translate(-1667 2899)" fill="#FFFFFF"/>
</g>
</g>
</g>
</g>
<defs>
<path id="path0_fill" d="M 0 0L 1024 0L 1024 640L 0 640L 0 0Z"/>
<path id="path1_fill" fill-rule="evenodd" d="M 0 67.5735L 0 252.303C 0 263.431 7.41885 273.076 18.5471 276.291L 179.289 319.073C 183.246 320.309 187.697 320.309 191.654 319.073L 352.396 276.291C 363.524 273.076 370.943 263.431 370.943 252.303L 370.943 67.5735C 370.943 56.4452 363.524 46.8007 352.396 43.5858L 191.654 0.556469C 187.566 -0.185491 183.377 -0.185491 179.289 0.556469L 18.5471 43.5858C 7.41885 46.8007 0 56.4452 0 67.5735ZM 173.107 292.365L 24.7295 253.045L 24.7295 85.626L 173.107 125.441L 173.107 292.365ZM 24.7295 60.8965L 86.5533 44.3277L 247.295 87.1098L 185.471 103.679L 24.7295 60.8965ZM 346.213 253.045L 197.836 292.365L 197.836 125.441L 247.295 111.839L 247.295 172.179L 296.754 159.073L 296.754 98.7327L 346.213 85.626L 346.213 253.045ZM 296.754 74.0031L 136.012 31.2211L 185.471 18.1144L 346.213 60.8965L 296.754 74.0031Z"/>
</defs>
</svg>
