<svg width="1024" height="640" viewBox="0 0 1024 640" fill="none" xmlns="http://www.w3.org/2000/svg">
<g id="robotodex">
<rect width="1024" height="640" fill="#D1D1D5"/>
<rect id="Rectangle" width="1024" height="640" fill="#D5D5DE"/>
<rect id="Rectangle 2" x="335" y="308" width="354" height="214" fill="white"/>
<g id="Group 2">
<g id="Group">
<g id="Group_2">
<path id="Vector" d="M684.317 312.508V516.345H339.685V312.508H684.317ZM684.317 301.851H339.685C333.781 301.851 329 306.624 329 312.508V516.345C329 522.231 333.783 527 339.685 527H684.315C690.219 527 695 522.231 695 516.345V312.508C695.002 306.622 690.221 301.851 684.317 301.851Z" fill="#23232C"/>
</g>
</g>
<g id="Group_3">
<path id="Vector_2" d="M423.173 416.426C459.691 416.426 489.295 386.9 489.295 350.479C489.295 314.057 459.691 284.531 423.173 284.531C386.654 284.531 357.05 314.057 357.05 350.479C357.05 386.9 386.654 416.426 423.173 416.426Z" fill="white"/>
<path id="Vector_3" d="M423.174 421.755C383.767 421.755 351.707 389.78 351.707 350.479C351.707 311.177 383.767 279.206 423.174 279.206C462.58 279.206 494.636 311.179 494.636 350.479C494.636 389.782 462.58 421.755 423.174 421.755ZM423.174 289.863C389.659 289.863 362.392 317.054 362.392 350.479C362.392 383.903 389.659 411.098 423.174 411.098C456.688 411.098 483.953 383.903 483.953 350.479C483.953 317.056 456.688 289.863 423.174 289.863Z" fill="#23232C"/>
</g>
<path id="Vector_4" d="M599.503 416.423C636.019 416.423 665.622 386.898 665.622 350.479C665.622 314.059 636.019 284.535 599.503 284.535C562.986 284.535 533.384 314.059 533.384 350.479C533.384 386.898 562.986 416.423 599.503 416.423Z" fill="white"/>
<path id="Vector_5" d="M599.503 421.755C560.097 421.755 528.041 389.78 528.041 350.479C528.041 311.177 560.099 279.206 599.503 279.206C638.907 279.206 670.963 311.179 670.963 350.479C670.964 389.782 638.908 421.755 599.503 421.755ZM599.503 289.863C565.99 289.863 538.728 317.054 538.728 350.479C538.728 383.903 565.99 411.098 599.503 411.098C633.016 411.098 660.279 383.903 660.279 350.479C660.279 317.056 633.016 289.863 599.503 289.863Z" fill="#23232C"/>
<g id="Group_4">
<path id="Vector_6" d="M418.162 353.151C426.462 353.151 433.19 346.441 433.19 338.163C433.19 329.885 426.462 323.174 418.162 323.174C409.862 323.174 403.134 329.885 403.134 338.163C403.134 346.441 409.862 353.151 418.162 353.151Z" fill="#23232C"/>
</g>
<g id="Group_5">
<path id="Vector_7" d="M602.51 361.147C610.81 361.147 617.538 354.437 617.538 346.159C617.538 337.881 610.81 331.17 602.51 331.17C594.21 331.17 587.481 337.881 587.481 346.159C587.481 354.437 594.21 361.147 602.51 361.147Z" fill="#23232C"/>
</g>
<g id="Group_6">
<path id="Vector_8" d="M507.995 309.181C506.351 309.181 504.805 308.16 504.221 306.527L444.114 138.667C443.369 136.588 444.456 134.3 446.539 133.559C448.612 132.815 450.918 133.902 451.66 135.977L511.768 303.836C512.514 305.917 511.426 308.203 509.345 308.946C508.899 309.106 508.441 309.181 507.995 309.181Z" fill="#23232C"/>
</g>
<g id="Group_7">
<path id="Vector_9" d="M510.014 308.833C509.252 308.833 508.481 308.62 507.801 308.165C505.956 306.946 505.454 304.465 506.676 302.626L605.498 154.108C606.724 152.266 609.209 151.765 611.05 152.986C612.895 154.208 613.397 156.688 612.175 158.528L513.353 307.044C512.584 308.205 511.312 308.833 510.014 308.833Z" fill="#23232C"/>
</g>
<g id="Group_8">
<path id="Vector_10" d="M444.546 139.973C451.186 139.973 456.568 134.605 456.568 127.984C456.568 121.362 451.186 115.994 444.546 115.994C437.907 115.994 432.525 121.362 432.525 127.984C432.525 134.605 437.907 139.973 444.546 139.973Z" fill="white"/>
<path id="Vector_11" d="M444.547 143.969C435.708 143.969 428.519 136.797 428.519 127.982C428.519 119.168 435.708 112 444.547 112C453.385 112 460.573 119.17 460.573 127.982C460.573 136.799 453.385 143.969 444.547 143.969ZM444.547 119.994C440.128 119.994 436.532 123.577 436.532 127.984C436.532 132.39 440.128 135.977 444.547 135.977C448.965 135.977 452.561 132.39 452.561 127.984C452.561 123.577 448.965 119.994 444.547 119.994Z" fill="#23232C"/>
</g>
<g id="Group_9">
<path id="Vector_12" d="M613.31 163.067C619.949 163.067 625.332 157.699 625.332 151.077C625.332 144.455 619.949 139.087 613.31 139.087C606.671 139.087 601.289 144.455 601.289 151.077C601.289 157.699 606.671 163.067 613.31 163.067Z" fill="white"/>
<path id="Vector_13" d="M613.312 167.064C604.471 167.064 597.284 159.891 597.284 151.077C597.284 142.261 604.473 135.091 613.312 135.091C622.149 135.091 629.338 142.261 629.338 151.077C629.338 159.892 622.147 167.064 613.312 167.064ZM613.312 143.083C608.894 143.083 605.297 146.668 605.297 151.077C605.297 155.486 608.894 159.071 613.312 159.071C617.731 159.071 621.325 155.486 621.325 151.077C621.325 146.67 617.731 143.083 613.312 143.083Z" fill="#23232C"/>
</g>
<g id="Group_10">
<path id="Vector_14" d="M505.385 485.955C484.468 485.955 464.999 478.497 454.929 464.366C453.219 461.968 453.786 458.64 456.19 456.934C458.6 455.226 461.931 455.788 463.64 458.191C477.77 478.022 517.165 481.183 544.696 464.703C547.227 463.178 550.512 464.006 552.027 466.53C553.547 469.052 552.728 472.328 550.198 473.841C536.534 482.018 520.576 485.955 505.385 485.955Z" fill="#23232C"/>
</g>
</g>
</g>
</svg>
