<svg width="1025" height="640" viewBox="0 0 1025 640" fill="none" xmlns="http://www.w3.org/2000/svg">
<g id="wkyuan">
<g id="Frame">
<rect id="Rectangle" width="1024" height="640" fill="#CBCBD6"/>
<g id="Group 2">
<ellipse id="Ellipse" rx="12.0967" ry="12.0929" transform="matrix(0.944995 0.327083 -0.327312 0.944916 947.611 178.383)" fill="#EAEAEC" fill-opacity="0.3"/>
<ellipse id="Ellipse_2" rx="18.1451" ry="18.1394" transform="matrix(0.944996 0.327081 -0.327314 0.944916 855.278 238.959)" fill="#EAEAEC" fill-opacity="0.3"/>
<path id="Ellipse_3" d="M842.13 272.603C861.331 279.248 882.286 269.077 888.935 249.883C895.584 230.69 885.408 209.743 866.207 203.097C847.006 196.451 826.051 206.623 819.402 225.816C812.753 245.01 822.929 265.957 842.13 272.603Z" stroke="#D1D1D5" stroke-linecap="square"/>
</g>
<g id="Group 2_2">
<ellipse id="Ellipse_4" cx="216.967" cy="142.682" rx="10.7" ry="10.6818" fill="#EAEAEC" fill-opacity="0.3"/>
<ellipse id="Ellipse_5" cx="95.7" cy="242.379" rx="10.7" ry="10.6818" fill="#EAEAEC" fill-opacity="0.3"/>
<ellipse id="Ellipse_6" cx="288.3" cy="356.318" rx="10.7" ry="10.6818" fill="#EAEAEC" fill-opacity="0.3"/>
</g>
<g id="Group">
<path id="IMG_7179" d="M484.361 203.004C506.72 203.004 584.978 236.476 599.884 262.509C603.61 277.385 573.798 340.609 558.892 381.519C568.829 413.751 588.704 467.057 562.618 489.372C546.12 503.484 499.267 511.686 476.908 504.248C454.548 496.81 413.556 467.057 406.103 411.271C398.65 355.486 447.095 251.352 447.095 236.476C447.095 221.6 462.002 203.004 484.361 203.004Z" fill="#23232C"/>
<path id="Vector 41" d="M450.822 236.475C439.854 243.773 418.126 211.696 364.526 249.106C362.501 250.423 361.385 251.352 361.385 251.352C362.444 250.577 363.491 249.828 364.526 249.106C371.563 244.527 389.573 235.249 409.83 243.914C419.053 247.858 428.463 258.79 443.369 258.79C449.332 258.79 450.822 242.674 450.822 236.475Z" fill="#23232C"/>
<path id="Vector 41_2" d="M594.609 363.94C560.683 331.749 588.104 316.181 574.208 307.001L580.657 290.759C594.609 290.759 590.54 319.914 588.713 331.387C585.12 353.946 594.609 363.94 594.609 363.94Z" fill="#23232C"/>
<path id="Vector 42" d="M372.565 117.466C409.83 128.623 465.729 173.252 476.908 210.442C473.182 215.401 463.822 225.29 458.275 221.599C450.822 216.641 446.475 206.723 443.369 188.128C435.916 143.499 372.565 117.466 372.565 117.466Z" fill="#23232C"/>
<path id="Vector 43" d="M696.774 236.476C663.235 221.6 592.431 232.757 581.251 251.352L596.158 266.228C603.611 266.228 616.757 248.511 633.423 240.195C663.235 225.319 696.774 236.476 696.774 236.476Z" fill="#23232C"/>
<path id="Vector 43_2" d="M707.598 162.466C640.876 169.533 570.071 232.757 561.025 258.728L567.714 259.055C578.602 254.423 580.599 241.651 616.874 206.095C653.15 170.538 707.598 162.466 707.598 162.466Z" fill="#23232C"/>
<path id="Vector 43_3" d="M417.057 66.6864C472.862 115.123 496.852 216.856 488.605 246.016L482.356 242.095C475.449 231.049 481.719 218.254 471.429 163.275C461.139 108.295 417.057 66.6864 417.057 66.6864Z" fill="#23232C"/>
<path id="Vector 43_4" d="M494.368 119.21C519.368 177.594 490.075 262.945 468.407 281.362L464.863 275.943C464.269 264.956 476.103 257.935 494.281 212.878C512.46 167.822 494.368 119.21 494.368 119.21Z" fill="#23232C"/>
<path id="Vector 43_5" d="M603.882 173.029C588.423 188.435 546.643 247.88 560.151 272.881L565.422 269.113C565.422 269.113 586.215 283.356 569.952 260.363C553.689 237.369 603.882 173.029 603.882 173.029Z" fill="#23232C"/>
<path id="Vector 44" d="M644.603 344.328C640.876 307.138 607.337 281.104 592.431 281.104C591.188 283.584 588.704 296.724 588.704 299.7C588.704 303.419 599.055 309.938 607.337 310.857C640.876 314.576 644.603 344.328 644.603 344.328Z" fill="#23232C"/>
<path id="Vector 44_2" d="M400.629 341.563C403.11 316.061 427.349 284.781 441.19 281.393C442.161 284.429 451.818 293.682 451.664 297.27C451.471 301.754 441.978 309.224 434.604 310.018C404.744 313.235 400.629 341.563 400.629 341.563Z" fill="#23232C"/>
<path id="Vector 44_3" d="M404.055 378.264C394.581 349.165 413.557 320.337 424.57 320.337C433.87 320.337 445.178 343.547 445.428 347.129C445.74 351.607 427.507 343.141 420.212 344.475C398.575 348.434 404.055 378.264 404.055 378.264Z" fill="#23232C"/>
<path id="Ellipse 18" d="M496.524 295.829C493.081 316.908 507.795 332.806 515.169 331.129C525.831 328.706 529.051 310.53 530.549 301.365C533.446 283.631 528.177 268.015 518.782 266.487C509.386 264.958 500.466 271.702 496.524 295.829Z" fill="#F5FA1C"/>
<path id="Ellipse 19" d="M538.611 301.977C537.143 313.038 540.915 324.27 549.59 325.417C558.264 326.564 566.611 317.59 568.233 305.373C570.368 289.294 560.699 281.867 555.464 281.175C550.228 280.482 540.233 289.76 538.611 301.977Z" fill="#F5FA1C"/>
<path id="Vector 45" d="M397.719 497.36C416.352 489.922 423.805 434.136 420.078 415.541C421.32 414.301 408.898 408.103 408.898 408.103C393.992 426.147 393.992 463.889 393.992 463.889C386.539 475.046 364.18 467.608 364.18 467.608C367.906 475.046 379.086 482.484 393.992 475.046V478.765C381.869 493.646 356.727 478.765 356.727 478.765C367.906 493.641 382.813 493.641 382.813 493.641C356.727 493.641 353 504.798 353 504.798C375.309 493.985 379.086 504.798 397.719 497.36Z" fill="#23232C"/>
<path id="Vector 46" d="M596.157 500.528C618.516 474.495 581.251 418.709 566.345 414.99C565.103 428.627 554.15 447.345 566.345 455.9C592.431 474.201 566.345 504.247 566.345 504.247C592.431 493.09 588.704 470.776 588.704 470.776C603.61 481.933 596.157 500.528 596.157 500.528Z" fill="#23232C"/>
<path id="Vector 47" d="M521.626 534C525.353 526.562 523.862 505.735 517.9 496.81H502.994C502.994 496.81 514.173 511.686 510.447 534H521.626Z" fill="#23232C"/>
<path id="Vector 48" d="M476.908 534C484.361 522.843 476.908 504.248 484.361 493.09L465.729 485.652C465.729 496.81 473.182 515.405 465.729 534H476.908Z" fill="#23232C"/>
</g>
<path id="Union" d="M329.725 516C194.185 516 1 522.105 1 522.105V640H1025V595.368C1025 595.368 465.264 516 329.725 516Z" fill="#23232C"/>
</g>
</g>
</svg>
