<svg width="330" height="132" viewBox="0 0 330 132" fill="none" xmlns="http://www.w3.org/2000/svg">
<rect width="330" height="132" fill="white"/>
<path d="M44.1099 63.131C46.0018 64.0292 49.819 66.4255 49.9524 68.8251C47.8099 69.4452 43.7085 70.3743 44.4432 69.1301C45.1779 67.8859 44.5271 64.6123 44.1099 63.131Z" fill="#222222" stroke="#222222" stroke-linecap="round" stroke-linejoin="round"/>
<path d="M36.7085 65.5465C38.684 64.9357 43.3026 66.6858 44.5878 69.2245L39.1255 70.7952C39.479 69.3948 38.2943 66.9631 36.7085 65.5465Z" fill="#222222"/>
<path d="M32.4787 70.7952C34.0529 68.4388 38.4054 68.9628 38.525 71.1151L35.6143 73.3804C35.0023 71.4084 32.4787 70.7952 32.4787 70.7952Z" fill="#222222"/>
<path d="M35.1127 73.6007C34.5563 72.6286 32.089 72.8226 30.6698 74.4056C31.7262 74.4056 33.1454 75.558 33.8693 76.8852L35.1127 73.6007Z" fill="#222222"/>
<path d="M30.9198 78.9049C30.8754 78.105 32.5335 77.4413 33.5351 77.3859L33.5351 80.7659C32.5057 80.3214 30.9476 79.4048 30.9198 78.9049Z" fill="#222222"/>
<path d="M31.7262 83.3749C31.6984 82.8749 32.4787 81.2643 33.6185 81.2643L34.7868 84.2083C33.7851 84.2638 31.754 83.8748 31.7262 83.3749Z" fill="#222222"/>
<path d="M24.3248 86.7918C31.5309 89.9031 32.1362 85.5902 35.6143 84.8962C36.1336 85.2017 36.8568 86.2986 36.9012 87.0985C36.9568 88.0983 35.0646 90.2089 31.0579 90.4307C27.0512 90.6525 24.3248 86.7918 24.3248 86.7918Z" fill="#222222"/>
<path d="M55.7932 92.5715C56.7949 92.5161 56.5726 88.5167 55.0701 88.5999C54.3653 88.8786 53.6556 89.0717 53.3104 89.1586C53.2397 89.1528 53.1679 89.1689 53.0946 89.2107C53.0946 89.2107 53.1741 89.1929 53.3104 89.1586C54.1789 89.2302 54.8669 92.6228 55.7932 92.5715Z" fill="#222222"/>
<path d="M38.7093 92.5144C40.161 92.9098 39.099 90.487 41.0746 89.8762L38.5148 89.015C37.541 89.5703 37.6891 92.2366 38.7093 92.5144Z" fill="#222222"/>
<path d="M44.5878 69.2245C43.3026 66.6858 38.684 64.9357 36.7085 65.5465C38.2943 66.9631 39.479 69.3948 39.1255 70.7952L44.5878 69.2245ZM38.525 71.1151C38.4054 68.9628 34.0529 68.4388 32.4787 70.7952C32.4787 70.7952 35.0023 71.4084 35.6143 73.3804L38.525 71.1151ZM30.6698 74.4056C32.089 72.8226 34.5563 72.6286 35.1127 73.6007L33.8693 76.8852C33.1454 75.558 31.7262 74.4056 30.6698 74.4056ZM33.5351 77.3859C32.5335 77.4413 30.8754 78.105 30.9198 78.9049C30.9476 79.4048 32.5057 80.3214 33.5351 80.7659L33.5351 77.3859ZM33.6185 81.2643C32.4787 81.2643 31.6984 82.8749 31.7262 83.3749C31.754 83.8748 33.7851 84.2638 34.7868 84.2083L33.6185 81.2643ZM35.6143 84.8962C32.1362 85.5902 31.5309 89.9031 24.3248 86.7918C24.3248 86.7918 27.0512 90.6525 31.0579 90.4307C35.0646 90.2089 36.9568 88.0983 36.9012 87.0985C36.8568 86.2986 36.1336 85.2017 35.6143 84.8962ZM55.0701 88.5999C56.5726 88.5167 56.7949 92.5161 55.7932 92.5715C54.7915 92.627 54.0685 88.6554 53.0946 89.2107C53.0946 89.2107 54.087 88.9886 55.0701 88.5999ZM41.0746 89.8762C39.099 90.487 40.161 92.9098 38.7093 92.5144C37.6891 92.2366 37.541 89.5703 38.5148 89.015L41.0746 89.8762Z" stroke="#222222" stroke-linecap="round" stroke-linejoin="round"/>
<path d="M33.0123 80.3967C33.3651 86.747 39.7054 91.5597 47.1737 91.1462C54.6419 90.7328 59.9649 86.2773 59.612 79.927C59.3342 74.9279 54.9109 67.6509 45.8959 68.15C38.4276 68.5634 32.5678 72.398 33.0123 80.3967Z" fill="#222222"/>
<path d="M44.8541 76.3498C44.4077 77.561 45.1643 78.9221 45.9936 78.9776C46.8228 79.0331 47.5686 78.7271 47.9413 77.8669C48.3141 77.0067 48.5319 74.7063 47.7469 74.3674C46.7175 73.923 45.3004 75.1385 44.8541 76.3498Z" fill="#F2F2F2"/>
<path d="M53.1434 75.8252C53.5182 76.8654 54.4592 77.5059 55.2846 77.2096C56.3268 76.8355 56.5021 76.03 56.0807 75.476C55.6593 74.922 55.2087 74.0892 54.5779 73.8922C53.5275 73.564 52.7686 74.785 53.1434 75.8252Z" fill="#F2F2F2"/>
<path d="M265.068 74.5775C264.883 71.4814 261.966 69.4812 258.325 70.9425L259.056 72.763C263.607 70.9365 265.068 74.5775 265.068 74.5775Z" fill="#222222"/>
<path d="M262.979 78.8315C263.96 75.8889 261.999 72.9464 258.075 72.9464V74.9081C262.979 74.9081 262.979 78.8315 262.979 78.8315Z" fill="#222222"/>
<path d="M258.952 80.793C259.933 78.8313 258.952 75.8888 255.029 74.908V76.8696C258.777 77.391 258.952 80.793 258.952 80.793Z" fill="#222222"/>
<path d="M240.67 47.4444V41.167L246.555 39.5977" stroke="#222222" stroke-width="1.25" stroke-linecap="round" stroke-linejoin="round"/>
<path d="M248.517 47.4444L249.498 41.5593L251.459 40.9708" stroke="#222222" stroke-width="1.25" stroke-linecap="round" stroke-linejoin="round"/>
<path fill-rule="evenodd" clip-rule="evenodd" d="M238.324 47.4443C240.613 45.4826 253.037 43.4925 255.98 45.4826C257.476 46.4945 259.302 53.3242 260.311 60.1805C256.09 58.4603 251.63 59.4055 250.697 63.1378C249.619 67.4506 253.64 68.042 256.582 65.0995C258.076 63.6055 259.57 63.1229 260.679 63.0098C261.309 68.6046 261.268 73.6683 259.903 74.9079C255.583 78.8313 240.683 78.8313 236.363 74.9079C233.42 72.2358 234.891 50.3868 238.324 47.4443Z" fill="#222222"/>
<path d="M253.591 53.8645C253.394 54.9299 251.305 55.4368 249.376 55.08C248.311 54.883 247.607 53.8597 247.804 52.7943C248.001 51.729 249.024 51.0251 250.089 51.2221C252.018 51.5788 253.788 52.7992 253.591 53.8645Z" fill="#F2F2F2"/>
<path d="M237.727 80.793C236.747 78.8313 237.727 75.8888 241.651 74.908V76.8696C237.903 77.391 237.727 80.793 237.727 80.793Z" fill="#222222"/>
<path d="M234.785 78.8315C233.804 75.8889 235.766 72.9464 239.689 72.9464V74.9081C234.785 74.9081 234.785 78.8315 234.785 78.8315Z" fill="#222222"/>
<path d="M231.094 74.5775C231.279 71.4814 234.196 69.4812 237.837 70.9425L237.106 72.763C232.555 70.9365 231.094 74.5775 231.094 74.5775Z" fill="#222222"/>
<path d="M82.9391 88.4747C81.4826 87.0182 83.1009 69.2166 84.3956 60.8013C89.7361 59.3448 104.786 59.3448 104.786 59.3448C106.243 61.2868 106.728 87.9892 104.786 90.4167C102.844 92.8442 85.3666 90.9022 82.9391 88.4747Z" fill="#222222" stroke="#222222" stroke-linecap="round" stroke-linejoin="round"/>
<path d="M79.0551 75.8518C79.8864 75.994 83.6025 76.3217 84.088 77.7782L82.9391 78.7648C80.6087 77.988 77.5986 78.9266 76.1421 79.2503L77.5986 82.6488L73.7147 81.1923L75.6566 85.0763L72.2582 82.9522C72.2582 85.5618 72.7437 87.9892 72.7437 87.9892C69.3452 85.5618 70.3162 78.7648 72.2582 77.3083C74.2002 75.8518 78.2238 75.7096 79.0551 75.8518Z" fill="#222222"/>
<path d="M114.804 91.0554C108.743 95.536 105.712 87.8591 104.571 81.0022L106.421 79.7201C106.421 83.1186 108.879 85.3039 110.317 86.3021C111.468 87.1006 113.835 85.9573 113.835 85.9573C113.651 86.8129 111.298 88.7858 111.298 88.7858C112.558 89.3324 114.994 88.8925 114.994 88.8925C114.447 90.1522 111.559 90.7704 111.559 90.7704C113.271 91.1387 114.804 91.0554 114.804 91.0554Z" fill="#222222"/>
<path d="M78.0482 60.8407C79.3217 59.1762 83.7355 57.7049 86.8441 59.7811C86.5799 62.0371 85.6105 65.5572 85.6105 65.5572C84.4711 62.8545 81.5286 59.1762 78.0482 60.8407Z" fill="#222222"/>
<path d="M96.9769 55.4982C99.9194 53.2912 104.333 54.7625 105.069 59.1763C103.774 61.0423 100.903 61.7723 100.903 61.7723C100.903 58.248 100.655 54.7624 96.9769 55.4982Z" fill="#222222"/>
<ellipse cx="86.3376" cy="68.5693" rx="0.970993" ry="1.45649" fill="#F2F2F2"/>
<ellipse cx="92.1636" cy="68.5692" rx="0.970993" ry="2.42748" fill="#F2F2F2"/>
<path d="M87.3086 97.6993L87.7941 89.9313L90.2216 90.9023L90.7071 97.2138L87.3086 97.6993Z" fill="#222222" stroke="#222222" stroke-linecap="round" stroke-linejoin="round"/>
<path d="M93.1346 97.6991L93.62 91.3876H96.0475L96.533 97.2136L93.1346 97.6991Z" fill="#222222" stroke="#222222" stroke-linecap="round" stroke-linejoin="round"/>
<path d="M122.237 29.7252C125.115 31.0534 134.855 28.1756 140.61 30.832C144.816 35.4807 143.045 52.526 143.045 52.526C139.503 54.6511 124.008 50.8081 120.355 50.8081C118.363 43.503 122.237 29.7252 122.237 29.7252Z" fill="#222222"/>
<path d="M140.61 30.832L140.82 30.3781L140.912 30.4209L140.981 30.4966L140.61 30.832ZM122.237 29.7252L121.755 29.5899L121.914 29.0256L122.446 29.2712L122.237 29.7252ZM120.355 50.8081V51.3081C120.13 51.3081 119.932 51.1572 119.873 50.9396L120.355 50.8081ZM143.045 52.526L143.542 52.5776L143.517 52.8262L143.302 52.9547L143.045 52.526ZM140.401 31.286C137.653 30.018 133.903 30.0574 130.376 30.2796C128.64 30.3889 126.945 30.5429 125.527 30.5847C124.13 30.6259 122.867 30.567 122.027 30.1792L122.446 29.2712C123.045 29.5475 124.079 29.627 125.498 29.5851C126.895 29.5439 128.534 29.3936 130.313 29.2815C133.814 29.061 137.811 28.9896 140.82 30.3781L140.401 31.286ZM122.237 29.7252C122.718 29.8605 122.718 29.8605 122.718 29.8606C122.718 29.8607 122.718 29.8608 122.718 29.8609C122.718 29.8613 122.718 29.8618 122.718 29.8625C122.717 29.864 122.716 29.8664 122.716 29.8695C122.714 29.8758 122.711 29.8854 122.708 29.8982C122.701 29.9238 122.69 29.9622 122.676 30.0128C122.649 30.1139 122.609 30.2639 122.558 30.4577C122.457 30.8454 122.314 31.4084 122.149 32.1071C121.819 33.505 121.4 35.4439 121.042 37.6087C120.323 41.9656 119.873 47.1392 120.838 50.6765L119.873 50.9396C118.845 47.1719 119.336 41.8041 120.056 37.4458C120.418 35.253 120.842 33.2909 121.176 31.8772C121.343 31.1701 121.487 30.5996 121.59 30.2052C121.642 30.0081 121.683 29.8549 121.711 29.7507C121.725 29.6986 121.736 29.6587 121.744 29.6317C121.748 29.6182 121.75 29.6079 121.752 29.6009C121.753 29.5974 121.754 29.5947 121.755 29.5929C121.755 29.592 121.755 29.5913 121.755 29.5908C121.755 29.5905 121.755 29.5903 121.755 29.5902C121.755 29.59 121.755 29.5899 122.237 29.7252ZM120.355 50.3081C121.318 50.3081 123.017 50.5572 125.023 50.8818C127.052 51.2101 129.432 51.6224 131.814 51.9692C134.195 52.316 136.556 52.5938 138.535 52.6543C139.524 52.6846 140.406 52.6601 141.14 52.5663C141.883 52.4715 142.432 52.3107 142.788 52.0972L143.302 52.9547C142.773 53.2725 142.063 53.4565 141.266 53.5583C140.461 53.6611 139.522 53.685 138.504 53.6539C136.467 53.5915 134.061 53.307 131.67 52.9587C129.278 52.6104 126.878 52.1948 124.863 51.8689C122.827 51.5394 121.219 51.3081 120.355 51.3081V50.3081ZM143.045 52.526C142.548 52.4743 142.548 52.4743 142.548 52.4742C142.548 52.4741 142.548 52.474 142.548 52.4738C142.548 52.4734 142.548 52.4727 142.548 52.4717C142.548 52.4698 142.549 52.4669 142.549 52.463C142.55 52.4552 142.551 52.4433 142.553 52.4274C142.556 52.3958 142.56 52.3484 142.566 52.2862C142.578 52.1618 142.595 51.9781 142.615 51.7423C142.655 51.2707 142.707 50.5908 142.757 49.7601C142.857 48.0978 142.946 45.8354 142.905 43.4308C142.864 41.0236 142.692 38.4884 142.274 36.2757C141.852 34.0432 141.194 32.2225 140.239 31.1675L140.981 30.4966C142.129 31.7659 142.827 33.8192 143.256 36.0901C143.689 38.3808 143.863 40.9785 143.905 43.4137C143.947 45.8515 143.856 48.141 143.755 49.82C143.705 50.6599 143.652 51.348 143.611 51.8266C143.591 52.066 143.574 52.2531 143.562 52.3806C143.556 52.4444 143.551 52.4933 143.548 52.5264C143.546 52.543 143.545 52.5556 143.544 52.5642C143.543 52.5685 143.543 52.5718 143.543 52.574C143.543 52.5751 143.543 52.576 143.543 52.5766C143.543 52.5769 143.543 52.5772 143.543 52.5773C143.543 52.5775 143.542 52.5776 143.045 52.526Z" fill="#222222"/>
<path d="M127.66 26.9203C126.501 26.9203 122.152 27.5047 122.152 30.4267L123.312 30.719C124.182 28.6735 127.66 26.9203 127.66 26.9203Z" fill="#222222"/>
<path d="M123.892 23.4138C122.336 24.4157 120.78 28.757 122.025 30.0928L122.958 30.4267C122.336 28.423 123.892 23.4138 123.892 23.4138Z" fill="#222222"/>
<path d="M125.757 37.6717C126.371 38.4839 128 38.5133 129.112 38.1401C130.224 37.7668 130.452 36.0914 129.838 35.2792C128.798 33.9037 127.903 34.431 126.887 35.1989C125.872 35.9667 125.143 36.8595 125.757 37.6717Z" fill="#F2F2F2"/>
<path d="M138.907 38.3756C139.662 39.1311 140.68 39.3383 141.435 38.5828C142.191 37.8274 142.191 36.6025 141.435 35.8471C140.68 35.0916 138.888 35.0916 138.133 35.8471C137.566 36.4137 138.151 37.6202 138.907 38.3756Z" fill="#F2F2F2"/>
<path d="M148.358 52.7472C148.137 51.8618 144.816 49.4268 143.488 49.4268" stroke="#222222" stroke-width="1.25" stroke-linecap="round" stroke-linejoin="round"/>
<path d="M113.161 48.9839C114.71 47.877 118.695 47.4343 119.802 47.6557" stroke="#222222" stroke-width="1.25" stroke-linecap="round" stroke-linejoin="round"/>
<path d="M127.051 55.6781L130.649 58.5028M127.051 55.6781L127.992 58.7242M127.051 55.6781L125.336 57.396" stroke="#222222" stroke-width="1.25" stroke-linecap="round" stroke-linejoin="round"/>
<path d="M127.66 55.6781L127.771 51.1977L126.443 50.755V55.6781H127.66Z" fill="#222222"/>
<path d="M135.076 55.4037L138.618 57.5044M135.076 55.4037L135.574 58.1131M135.076 55.4037L133.139 56.8956" stroke="#222222" stroke-width="1.25" stroke-linecap="round" stroke-linejoin="round"/>
<path d="M135.297 55.4036L135.74 50.7549L134.412 50.3121L134.623 55.4036H135.297Z" fill="#222222"/>
<path d="M128.878 43.5027C130.236 40.1062 138.009 40.459 140.444 43.5027C140.444 45.9378 137.4 47.7641 134.357 47.7641C131.313 47.7641 127.66 46.5465 128.878 43.5027Z" fill="#A0A0A0"/>
<path d="M163.184 85.2067L159.505 88.8849L170.54 90.3562L177.161 88.1493V86.678L174.954 84.4711L169.069 83.7355L163.184 85.2067Z" fill="#A0A0A0"/>
<path d="M168.122 87.4288C168.071 87.2717 168.183 87.1087 168.348 87.101L170.042 87.0218C170.154 87.0166 170.256 87.0868 170.291 87.1935L170.878 88.9783L168.666 89.0816L168.122 87.4288Z" fill="#F2F2F2" stroke="#A0A0A0" stroke-width="0.1" stroke-linecap="round" stroke-linejoin="round"/>
<path d="M170.335 87.3254C170.283 87.1683 170.395 87.0053 170.561 86.9976L172.255 86.9185C172.367 86.9132 172.469 86.9834 172.504 87.0901L173.091 88.8749L170.878 88.9783L170.335 87.3254Z" fill="#F2F2F2" stroke="#A0A0A0" stroke-width="0.1" stroke-linecap="round" stroke-linejoin="round"/>
<path fill-rule="evenodd" clip-rule="evenodd" d="M160.555 75.9123C162.507 73.0393 165.193 71.2297 168.262 71.2297C171.165 71.2297 173.599 73.5297 175.259 76.5303C176.942 79.5728 177.967 83.5584 177.967 87.4136C177.967 91.746 177.205 95.6559 175.549 98.4353C173.865 101.262 171.245 102.92 167.697 102.598C161.748 102.057 156.516 96.6611 157.063 87.3704C157.332 82.7838 158.602 78.786 160.555 75.9123ZM177.033 87.3312C175.871 86.2238 173.645 84.5073 172.05 84.5073C171.947 84.5073 171.835 84.5066 171.713 84.5058C169.48 84.491 164.24 84.4564 161.087 88.6601C161.087 88.6601 173.545 89.989 177.033 87.3312Z" fill="#222222"/>
<path d="M178.727 75.952C177.929 75.952 175.737 77.2809 174.74 77.9453L175.239 78.942C176.733 77.447 178.973 75.952 178.727 75.952Z" fill="#222222"/>
<path d="M179.225 78.4436L175.737 78.9419L176.235 79.9386L179.225 78.4436Z" fill="#222222"/>
<path d="M178.228 80.437H176.235L176.733 81.4337L178.228 80.437Z" fill="#222222"/>
<path d="M157.299 74.9553C158.794 75.4537 160.289 76.9486 160.289 76.9486L159.79 77.9453L157.299 74.9553Z" fill="#222222"/>
<path d="M157.797 78.4438C158.295 77.9454 159.292 77.9454 159.79 77.9454L159.292 78.9421C158.627 78.6099 157.797 78.4438 157.797 78.4438Z" fill="#222222"/>
<path d="M157.797 79.9387L159.292 78.942V79.9387H157.797Z" fill="#222222"/>
<path d="M174.242 81.4337C174.631 81.8229 174.837 82.7459 174.448 83.1351C174.059 83.5243 173.245 83.7385 173.245 82.9287C173.245 82.1189 172.747 81.932 172.747 81.4337C172.747 80.9354 173.853 81.0445 174.242 81.4337Z" fill="white"/>
<path d="M165.77 82.4303C165.77 82.9807 165.324 83.4269 164.774 83.4269C164.223 83.4269 163.395 82.3135 163.777 81.9319C164.158 81.5504 164.275 81.4336 164.774 81.4336C165.324 81.4336 165.77 81.8798 165.77 82.4303Z" fill="white"/>
<path d="M164.774 102.862C164.375 102.862 163.943 101.533 163.777 100.869H164.774C164.94 101.533 165.172 102.862 164.774 102.862Z" fill="#222222"/>
<path d="M172.747 102.862C172.348 102.862 171.916 101.533 171.75 100.869H172.747C172.913 101.533 173.146 102.862 172.747 102.862Z" fill="#222222"/>
<path d="M223.016 88.3735C222.861 92.1056 220.654 95.3928 217.398 97.6901C214.143 99.9872 209.884 101.258 205.737 100.972C197.527 100.404 192.336 93.4008 192.91 85.0965C193.479 76.8637 200.105 71.6735 208.087 72.162C216.826 72.6967 223.346 80.4125 223.016 88.3735Z" fill="#222222" stroke="#222222" stroke-linecap="square"/>
<path d="M207.253 65.7795C207.253 65.7795 204.287 68.9173 204.558 72.5514L208.739 72.2945C208.334 69.5378 207.253 65.7795 207.253 65.7795Z" fill="#222222" stroke="#222222" stroke-linecap="round" stroke-linejoin="round"/>
<path d="M221.994 70.198C220.483 70.6847 217.373 72.2198 217.029 74.4662L219.893 79.2139C219.622 76.2995 221.202 72.2359 221.993 70.2007L221.994 70.198Z" fill="#222222" stroke="#222222" stroke-linecap="round" stroke-linejoin="round"/>
<path d="M188.625 72.2666C189.004 74.4803 191.761 79.9299 193.867 80.2529L195.809 76.9581C193.811 75.9332 188.625 72.2666 188.625 72.2666Z" fill="#222222" stroke="#222222" stroke-linecap="round" stroke-linejoin="round"/>
<path d="M216.075 82.0545C216.731 82.8735 217.214 84.2948 216.239 85.6722C215.264 87.0496 212.498 86.6427 211.708 85.6555C211.089 84.8825 210.96 82.6156 211.93 81.839C213.417 80.6492 215.095 80.8295 216.075 82.0545Z" fill="#F2F2F2"/>
<path d="M200.098 85.6682C199.682 86.628 197.796 88.0432 197.013 87.427C196.295 86.8614 195.564 85.4124 196.189 83.973C196.813 82.5335 197.807 81.5783 199.273 82.2142C200.353 82.6823 200.915 83.784 200.098 85.6682Z" fill="#F2F2F2"/>
<path d="M214.661 89.9107C211.366 87.9685 203.428 88.1884 196.249 92.8358C197.925 95.9667 202.669 97.8234 209.264 96.987C214.196 96.3615 216.637 91.0761 214.661 89.9107Z" fill="#A0A0A0"/>
<path d="M190.745 100.614C187.915 100.331 191.12 93.4863 197.33 95.1571C197.996 95.4987 197.817 96.6688 197.817 96.6688C193.218 95.4991 193.576 100.897 190.745 100.614Z" fill="#222222"/>
<path d="M190.433 99.1951C188.481 99.3831 187.045 101.057 187.226 102.934C187.247 103.157 187.291 103.373 187.354 103.58C187.422 103.173 187.615 102.777 187.875 102.409C188.697 101.245 190.192 100.362 190.542 100.328C190.702 100.312 191.02 100.339 191.42 100.47C192.239 100.738 193.402 101.441 194.267 103.107C194.313 102.83 194.323 102.544 194.295 102.253C194.115 100.376 192.386 99.0071 190.433 99.1951Z" fill="#222222" stroke="#222222" stroke-linecap="round" stroke-linejoin="round"/>
<path d="M226.6 101.079C230 101.079 226.602 93.6551 220.333 95.0914C219.654 95.4078 217.797 97.5739 217.797 97.5739C222.436 96.5778 225.38 99.3254 226.6 101.079Z" fill="#222222"/>
<path d="M227.087 99.7383C229.264 99.4909 231.202 100.809 231.415 102.683C231.44 102.905 231.44 103.126 231.416 103.342C231.253 102.96 230.955 102.615 230.59 102.313C229.435 101.357 227.606 100.825 227.215 100.869C227.037 100.889 226.695 100.986 226.286 101.202C225.449 101.644 224.33 102.587 223.748 104.406C223.637 104.146 223.563 103.869 223.53 103.578C223.317 101.705 224.909 99.9857 227.087 99.7383Z" fill="#222222" stroke="#222222" stroke-linecap="round" stroke-linejoin="round"/>
<path d="M210.139 100.657L213.855 99.8464L213.266 108.376L210.458 107.945L210.139 100.657Z" fill="#222222"/>
<path d="M202.3 100.23L205.108 100.661L204.14 106.979L202.034 106.656L202.3 100.23Z" fill="#222222"/>
<path d="M210.21 92.36L211.968 88.062C210.961 87.0313 209.243 87.0662 208.278 88.137L210.21 92.36Z" fill="#222222"/>
<path d="M202.276 94.3184L203.321 88.8876L199.545 90.563L202.276 94.3184Z" fill="#222222"/>
<path d="M305.698 72.7451C305.539 70.2018 303.047 68.5588 299.936 69.7591L300.56 71.2546C304.449 69.7542 305.698 72.7451 305.698 72.7451Z" fill="#222222"/>
<path d="M303.913 76.239C304.751 73.822 303.075 71.4049 299.723 71.4049V73.0163C303.913 73.0163 303.913 76.239 303.913 76.239Z" fill="#222222"/>
<path d="M300.472 77.8506C301.31 76.2392 300.472 73.8222 297.12 73.0165V74.6279C300.322 75.0561 300.472 77.8506 300.472 77.8506Z" fill="#222222"/>
<path d="M297.932 48.8456C295.418 47.2108 284.803 48.8456 282.847 50.4569C279.914 52.874 278.657 70.8213 281.171 73.0163C284.862 76.2391 297.593 76.2391 301.284 73.0163C304.053 70.5992 300.446 50.4803 297.932 48.8456Z" fill="#222222"/>
<path d="M284.851 50.457V45.3006L289.88 44.0115" stroke="#222222" stroke-linecap="round" stroke-linejoin="round"/>
<path d="M291.556 50.457L292.394 45.6228L294.07 45.1394" stroke="#222222" stroke-linecap="round" stroke-linejoin="round"/>
<ellipse cx="292.394" cy="56.0968" rx="0.838046" ry="0.805696" fill="white"/>
<path d="M301.612 60.1254C298.54 59.4597 292.655 60.1955 291.556 61.7368" stroke="white" stroke-width="0.75" stroke-linecap="round" stroke-linejoin="round"/>
<path d="M282.337 77.8506C281.499 76.2392 282.337 73.8222 285.689 73.0165V74.6279C282.487 75.0561 282.337 77.8506 282.337 77.8506Z" fill="#222222"/>
<path d="M279.823 76.239C278.985 73.822 280.661 71.4049 284.013 71.4049V73.0163C279.823 73.0163 279.823 76.239 279.823 76.239Z" fill="#222222"/>
<path d="M276.669 72.7451C276.828 70.2018 279.32 68.5588 282.431 69.7591L281.806 71.2546C277.918 69.7542 276.669 72.7451 276.669 72.7451Z" fill="#222222"/>
<path d="M292.891 63.9098C294.708 64.2963 294.893 61.7568 294.479 60.1953L293.674 60.3925C293.674 60.3925 293.232 61.8067 292.891 62.1844C292.551 62.562 291.983 63.7166 292.891 63.9098Z" fill="white"/>
<path d="M188.864 26.6265C185.386 28.2315 173.616 24.754 166.661 27.964C161.579 33.5816 163.719 54.1792 163.719 54.1792C167.999 56.7472 186.724 52.1033 191.138 52.1033C193.545 43.2757 188.864 26.6265 188.864 26.6265Z" fill="#222222"/>
<path d="M166.661 27.964L166.452 27.51L166.359 27.5528L166.29 27.6286L166.661 27.964ZM188.864 26.6265L189.345 26.4912L189.187 25.9269L188.654 26.1725L188.864 26.6265ZM191.138 52.1033V52.6033C191.363 52.6033 191.561 52.4524 191.62 52.2349L191.138 52.1033ZM163.719 54.1792L163.221 54.2309L163.247 54.4794L163.461 54.608L163.719 54.1792ZM166.871 28.418C170.218 26.8732 174.775 26.924 179.035 27.1924C181.137 27.3248 183.18 27.5105 184.891 27.561C186.582 27.6108 188.083 27.5375 189.073 27.0805L188.654 26.1725C187.906 26.518 186.632 26.6119 184.92 26.5614C183.229 26.5115 181.243 26.3295 179.098 26.1944C174.865 25.9277 170.06 25.8448 166.452 27.51L166.871 28.418ZM188.864 26.6265C188.383 26.7618 188.383 26.7618 188.383 26.7619C188.383 26.762 188.383 26.7621 188.383 26.7623C188.383 26.7628 188.383 26.7634 188.383 26.7644C188.384 26.7662 188.385 26.7691 188.386 26.7729C188.388 26.7806 188.391 26.7922 188.395 26.8078C188.404 26.8388 188.417 26.8854 188.433 26.9467C188.467 27.0693 188.515 27.2508 188.577 27.4854C188.699 27.9546 188.871 28.6356 189.071 29.4808C189.47 31.1717 189.978 33.5172 190.41 36.136C191.28 41.4011 191.828 47.6732 190.655 51.9717L191.62 52.2349C192.855 47.7059 192.266 41.2396 191.397 35.9731C190.96 33.3262 190.447 30.9577 190.044 29.2509C189.843 28.3973 189.668 27.7087 189.544 27.2329C189.482 26.995 189.432 26.8102 189.398 26.6846C189.381 26.6218 189.368 26.5738 189.359 26.5413C189.355 26.525 189.351 26.5127 189.349 26.5043C189.348 26.5001 189.347 26.4969 189.346 26.4947C189.346 26.4936 189.346 26.4928 189.345 26.4922C189.345 26.4919 189.345 26.4916 189.345 26.4915C189.345 26.4913 189.345 26.4912 188.864 26.6265ZM191.138 51.6033C189.985 51.6033 187.941 51.9024 185.513 52.2952C183.063 52.6917 180.185 53.1902 177.306 53.6095C174.427 54.0287 171.57 54.3651 169.173 54.4385C167.974 54.4751 166.903 54.4456 166.008 54.3313C165.105 54.216 164.424 54.0193 163.976 53.7505L163.461 54.608C164.083 54.9811 164.924 55.2011 165.881 55.3233C166.847 55.4466 167.975 55.4756 169.203 55.438C171.659 55.3629 174.561 55.0198 177.45 54.599C180.339 54.1783 183.238 53.6764 185.673 53.2824C188.131 52.8847 190.084 52.6033 191.138 52.6033V51.6033ZM163.719 54.1792C164.216 54.1275 164.216 54.1275 164.216 54.1274C164.216 54.1273 164.216 54.1271 164.216 54.1269C164.216 54.1263 164.216 54.1255 164.216 54.1243C164.215 54.122 164.215 54.1184 164.215 54.1137C164.214 54.1041 164.212 54.0897 164.21 54.0705C164.206 54.0321 164.201 53.9747 164.194 53.8993C164.179 53.7487 164.159 53.5263 164.135 53.241C164.087 52.6704 164.023 51.8479 163.963 50.8431C163.842 48.8327 163.734 46.0959 163.784 43.1868C163.834 40.2749 164.042 37.2049 164.549 34.5229C165.059 31.821 165.858 29.5967 167.032 28.2995L166.29 27.6286C164.923 29.1401 164.084 31.5971 163.566 34.3372C163.044 37.0972 162.834 40.2299 162.784 43.1696C162.734 46.1121 162.843 48.8758 162.965 50.903C163.025 51.917 163.09 52.7476 163.138 53.3253C163.163 53.6142 163.184 53.8399 163.198 53.9937C163.205 54.0706 163.211 54.1296 163.215 54.1695C163.217 54.1894 163.219 54.2046 163.22 54.2149C163.22 54.22 163.221 54.2239 163.221 54.2266C163.221 54.2279 163.221 54.229 163.221 54.2297C163.221 54.23 163.221 54.2303 163.221 54.2305C163.221 54.2307 163.221 54.2309 163.719 54.1792Z" fill="#222222"/>
<path d="M182.31 23.2372C183.711 23.2372 188.966 23.9434 188.966 27.4744L187.565 27.8275C186.514 25.3558 182.31 23.2372 182.31 23.2372Z" fill="#222222"/>
<path d="M186.864 19C188.744 20.2106 190.624 25.4567 189.12 27.0709L187.992 27.4745C188.744 25.0532 186.864 19 186.864 19Z" fill="#222222"/>
<path d="M184.61 36.2293C183.867 37.2107 181.9 37.2462 180.556 36.7952C179.212 36.3442 178.936 34.3196 179.678 33.3381C180.936 31.676 182.017 32.3132 183.244 33.2411C184.471 34.1689 185.352 35.2478 184.61 36.2293Z" fill="#F2F2F2"/>
<path d="M168.72 37.0801C167.807 37.993 166.577 38.2434 165.664 37.3305C164.751 36.4176 164.751 34.9375 165.664 34.0246C166.577 33.1117 168.742 33.1117 169.655 34.0246C170.34 34.7093 169.633 36.1672 168.72 37.0801Z" fill="#F2F2F2"/>
<path d="M171.744 40.6704C172.546 38.5304 173.884 37.7279 175.756 39.8679" stroke="#A0A0A0" stroke-width="1.25" stroke-linecap="round" stroke-linejoin="round"/>
<path d="M157.299 54.4469C157.566 53.3768 161.579 50.4343 163.184 50.4343" stroke="#222222" stroke-width="1.25" stroke-linecap="round" stroke-linejoin="round"/>
<path d="M199.831 49.8994C197.959 48.5619 193.144 48.0269 191.806 48.2944" stroke="#222222" stroke-width="1.25" stroke-linecap="round" stroke-linejoin="round"/>
<path d="M182.979 58.1919L178.699 61.4019M182.979 58.1919L181.909 61.6694M182.979 58.1919L185.119 60.0644" stroke="#222222" stroke-width="1.25" stroke-linecap="round" stroke-linejoin="round"/>
<path d="M182.711 58.1919L182.176 52.5743L183.781 52.0393L183.246 58.1919H182.711Z" fill="#222222"/>
<path d="M173.349 57.6567L169.604 60.0643M173.349 57.6567V60.8668M173.349 57.6567L176.559 58.4592" stroke="#222222" stroke-width="1.25" stroke-linecap="round" stroke-linejoin="round"/>
<path d="M173.081 57.6568L172.546 52.0393L174.151 51.5043L173.616 57.6568H173.081Z" fill="#222222"/>
</svg>
