<?xml version="1.0" encoding="utf-8"?>
<!-- Generator: Adobe Illustrator 17.1.0, SVG Export Plug-In . SVG Version: 6.00 Build 0)  -->
<!DOCTYPE svg PUBLIC "-//W3C//DTD SVG 1.1//EN" "http://www.w3.org/Graphics/SVG/1.1/DTD/svg11.dtd">
<svg version="1.1" id="Layer_2" xmlns="http://www.w3.org/2000/svg" xmlns:xlink="http://www.w3.org/1999/xlink" x="0px" y="0px"
	 viewBox="470 376 260 148" enable-background="new 470 376 260 148" xml:space="preserve">
<path opacity="7.000000e-02" fill="none" stroke="#FFFFFF" stroke-width="4" stroke-linejoin="round" stroke-miterlimit="10" d="
	M536,450c6.2-26.1,20.5-29.7,30.4-21.3c2.6-9.8,20.1-23,33.6-6.6c0-17.8-30.9-42.9-36.6-42.9c5.1,1.6,12.6,17.8-3.8,17.8
	c-17.2,0-16.6-15.1-16-19.1c-1,3.9-3.3,5.8-7.6,5.8s-6.6-2-7.6-5.8c0.6,3.9,1.1,19.1-16,19.1c-16.5,0-8.6-16.4-3.8-17.8
	c-5.7,0-36.6,25.1-36.6,42.9c13.5-16.5,31-3.2,33.6,6.6C515.5,420.3,529.8,423.9,536,450z"/>
<path opacity="7.000000e-02" fill="none" stroke="#FFFFFF" stroke-width="4" stroke-linejoin="round" stroke-miterlimit="10" d="
	M664,522c6.2-26.1,20.5-29.7,30.4-21.3c2.6-9.8,20.1-23,33.6-6.6c0-17.8-30.9-42.9-36.6-42.9c5.1,1.6,12.6,17.8-3.8,17.8
	c-17.2,0-16.6-15.1-16-19.1c-1,3.9-3.3,5.8-7.6,5.8s-6.6-2-7.6-5.8c0.6,3.9,1.1,19.1-16,19.1c-16.5,0-8.6-16.4-3.8-17.8
	c-5.7,0-36.6,25.1-36.6,42.9c13.5-16.5,31-3.2,33.6,6.6C643.5,492.3,657.8,495.9,664,522z"/>
</svg>
