<?xml version="1.0" encoding="utf-8"?>
<!-- Generator: Adobe Illustrator 17.1.0, SVG Export Plug-In . SVG Version: 6.00 Build 0)  -->
<!DOCTYPE svg PUBLIC "-//W3C//DTD SVG 1.1//EN" "http://www.w3.org/Graphics/SVG/1.1/DTD/svg11.dtd">
<svg version="1.1" id="Layer_2" xmlns="http://www.w3.org/2000/svg" xmlns:xlink="http://www.w3.org/1999/xlink" x="0px" y="0px"
	 viewBox="470 376 260 148" enable-background="new 470 376 260 148" xml:space="preserve">
<path opacity="0.9" fill="none" stroke="#111111" stroke-width="3" stroke-linejoin="round" stroke-miterlimit="10" d="M537.9,451
	c4.8-26.3,18.9-30.8,29.2-22.9c2.1-9.9,18.9-24.1,33.2-8.3c-0.9-17.8-33.1-41.2-38.8-40.9c5.2,1.3,13.6,17.1-2.9,18
	c-17.1,0.9-17.4-14.2-17-18.2c-0.8,3.9-3,6-7.2,6.2c-4.2,0.2-6.7-1.6-7.9-5.4c0.8,3.9,2.1,19-15,19.9c-16.4,0.9-9.4-15.9-4.7-17.6
	c-5.7,0.3-35.3,27-34.3,44.7c12.6-17.2,30.8-4.8,33.9,4.8C515.9,422.3,530.3,425.3,537.9,451z"/>
<path opacity="0.9" fill="none" stroke="#111111" stroke-width="3" stroke-linejoin="round" stroke-miterlimit="10" d="M658.2,521.8
	c8.9-25.3,23.5-27.4,32.4-18c3.6-9.4,22.4-20.8,34.1-3c1.9-17.7-26.3-45.9-31.9-46.5c4.9,2.1,10.7,19-5.6,17.3
	c-17.1-1.8-14.9-16.8-13.9-20.6c-1.4,3.7-3.9,5.4-8.1,5c-4.2-0.4-6.3-2.6-6.9-6.6c0.2,4-0.9,19.1-17.9,17.3
	c-16.4-1.7-6.8-17.2-1.9-18.1c-5.7-0.6-39,21.1-40.9,38.8c15.2-15,31.2,0,32.7,10C641,490.1,654.8,495.3,658.2,521.8z"/>
</svg>
