<?xml version="1.0" encoding="utf-8"?>
<!-- Generator: Adobe Illustrator 17.1.0, SVG Export Plug-In . SVG Version: 6.00 Build 0)  -->
<!DOCTYPE svg PUBLIC "-//W3C//DTD SVG 1.1//EN" "http://www.w3.org/Graphics/SVG/1.1/DTD/svg11.dtd">
<svg version="1.1" id="Layer_1" xmlns="http://www.w3.org/2000/svg" xmlns:xlink="http://www.w3.org/1999/xlink" x="0px" y="0px"
	 viewBox="0 24 128 84" enable-background="new 0 24 128 84" xml:space="preserve">
<g id="Layer_3" display="none">
	<rect x="-418.4" y="-38.8" display="inline" fill="#555555" width="1964.7" height="965.4"/>
</g>
<g id="Layer_4" display="none">
	
		<path display="inline" fill="#555555" stroke="#FFFFFF" stroke-width="4" stroke-linecap="round" stroke-linejoin="round" stroke-miterlimit="10" d="
		M794.4,431.8c10.6,7,24.3,30.4,20.5,57c-7.6,52.5-102.4,56.6-90.2,92.8c-11.4-7.6-26.6-31.8-21.1-62.7
		c8.3-46.7,81.3-64.6,81.3-74.9"/>
	
		<path display="inline" fill="none" stroke="#FFFFFF" stroke-width="4" stroke-linecap="round" stroke-linejoin="round" stroke-miterlimit="10" d="
		M484.6,483.7c9,0,23,35.8,23,58.2c0,22.4-16.6,35.8-21.1,35.8"/>
</g>
<g id="Layer_5" display="none">
</g>
<g id="Layer_7" display="none">
</g>
<g>
	<path d="M82.6,48.7c-4.1,0-7.5,3.4-7.5,7.5s3.4,7.5,7.5,7.5s7.5-3.4,7.5-7.5S86.8,48.7,82.6,48.7z M82.6,62.4
		c-3.4,0-6.2-2.8-6.2-6.2s2.8-6.2,6.2-6.2s6.2,2.8,6.2,6.2S86.1,62.4,82.6,62.4z"/>
	<path d="M105.4,64.7c4.1,0,7.5-3.4,7.5-7.5s-3.4-7.5-7.5-7.5s-7.5,3.4-7.5,7.5S101.3,64.7,105.4,64.7z M105.4,51
		c3.4,0,6.2,2.8,6.2,6.2s-2.8,6.2-6.2,6.2c-3.4,0-6.2-2.8-6.2-6.2S102,51,105.4,51z"/>
	<circle cx="79.9" cy="58.8" r="1.5"/>
	<circle cx="102.7" cy="59.4" r="1.5"/>
	<path d="M123,94.3c0-4.2-2.2-7.8-5.9-9.8c-2.7-1.4-5.6-1.7-8.2-1c-0.2-1-0.5-1.7-0.8-2c-0.3-0.4-1.4-1.4-10.3-1.4
		c-0.2,0-0.5,0-0.7,0c-0.1-0.8-0.1-1.7-0.2-2.6c8.4-0.2,15.4-1.1,19.2-2.5c0.1,0,0.1-0.1,0.2-0.1c3.4-2.7,1.6-29.5,1.3-32.2h0
		c0-1-0.7-1.7-1.6-1.7c0,0,0,0,0,0c-0.1,0-10.1-0.7-20.9-0.8c0.1-1,0.2-2.4,0-3.6c1-0.5,1.6-1.5,1.6-2.6c0-1.7-1.3-3-3-3s-3,1.3-3,3
		c0,1.1,0.6,2.1,1.6,2.6c-0.2,1.2-0.1,2.6,0,3.6c-10.8,0.1-20.7,0.8-20.8,0.8c-0.9,0-1.7,0.8-1.7,1.7c-0.3,5-1.8,30,1.4,32.2
		c0,0,0.1,0.1,0.1,0.1c3.5,1.3,9.6,2.2,17,2.4c0,1.1,0.1,2.1,0.2,3c-4.6,0.3-8.7,0.8-9.6,1.4c-0.3,0.2-0.9,0.6-1.2,3.2
		c-3.7,3.8-10.4,6.6-16.4,6.8c-0.8-1.6-2.5-2.7-4.4-2.7c-0.4,0-0.8,0.1-1.2,0.1c-1.2,0.3-1.9,1.4-1.6,2.6c0.3,1,1.1,1.7,2.1,1.7
		c0.2,0,0.3,0,0.5-0.1c0.1,0,0.2-0.1,0.3-0.1c0.3,0,0.4,0.2,0.5,0.5c0.1,0.6-0.3,0.8-0.5,0.8c-1.2,0.3-1.9,1.4-1.6,2.6
		c0.3,1,1.1,1.7,2.1,1.7c0.2,0,0.3,0,0.5-0.1c1.4-0.3,2.6-1.2,3.3-2.4c0.3-0.5,0.5-1.1,0.5-1.6c5.6-0.2,11.6-2.4,15.8-5.6
		c0.1,4.4,1,11.2,2.5,12c1.2,0.7,2.8,1.1,4.5,1.4c-0.4,0.3-0.8,0.9-0.8,1.4v2.3c0,1,0.8,1.8,1.8,1.8h6.8c1,0,1.8-0.8,1.8-1.8v-2.3
		c0-0.4-0.1-0.7-0.3-1c0.5,0,1.1,0,1.6-0.1c-0.2,0.3-0.4,0.7-0.4,1v2.3c0,1,0.8,1.8,1.8,1.8h6.8c1,0,1.8-0.8,1.8-1.8v-2.3
		c0-1-0.8-1.8-1.8-1.8h-0.9c2.7-0.4,4.8-1,5.3-1.6c1-1.2,1.4-8.7,0.9-13.9c1.9-0.7,4.2-0.5,6.2,0.6c2.7,1.5,4.3,4.2,4.3,7.3
		c-1.7,0.6-3.2,2.2-3.2,4.6c0,1.2,1,2.1,2.1,2.1s2.1-1,2.1-2.1c0-0.2,0-0.6,0.6-0.6s0.6,0.4,0.6,0.6c0,1.2,1,2.1,2.1,2.1
		c1.2,0,2.1-1,2.1-2.1C126.6,96.4,125,94.8,123,94.3z M57.9,97.3c-0.1,0-0.1,0-0.1,0c-0.3,0-0.5-0.2-0.6-0.5
		c-0.1-0.3,0.1-0.6,0.4-0.8c1.5-0.3,1.9-1.5,1.6-2.6c-0.2-0.9-0.9-1.7-2-1.7c-0.2,0-0.4,0-0.6,0.1c-0.1,0-0.1,0-0.1,0
		c-0.3,0-0.5-0.2-0.6-0.5c-0.1-0.3,0.1-0.6,0.4-0.8c0.3,0.1,0.6,0.1,0.8,0.1c1.7,0,2.9,1.2,3.2,2.7C60.9,94.9,60.1,96.8,57.9,97.3z
		 M94,32.2c1,0,1.7,0.8,1.7,1.7s-0.8,1.7-1.7,1.7s-1.7-0.8-1.7-1.7S93,32.2,94,32.2z M71.4,42.7c0-0.2,0.2-0.5,0.4-0.5
		c0.1,0,10.9-0.8,22.1-0.8c11.2,0,22,0.8,22.1,0.8c0.2,0,0.4,0.2,0.4,0.5c0,0,0,0.1,0,0.1c0.3,2.2,1.6,28.6-0.8,31
		c-4.1,1.5-12.4,2.4-21.7,2.4c-9.3,0-17.7-0.9-21.8-2.4C70.5,72.3,70.5,56.9,71.4,42.7z M90,77.4c1.9,0.1,3.8,0.1,5.8,0.1
		c0,0.9,0.1,1.8,0.2,2.6c-0.1,0-0.2,0-0.2,0c-0.7,0-1.5,0-2.3,0.1c-0.3,0-0.5,0-0.8,0c-0.8,0-1.6,0.1-2.5,0.1
		C90.1,79.4,90,78.5,90,77.4z M107.6,99.7c-0.7,0.7-7.9,2-15.6,2c-5.1,0-9-0.6-10.9-1.7c-0.9-0.7-2.2-8.7-1.8-14.2
		c0.2-2.6,0.7-3,0.7-3c0.7-0.4,5.1-1,10.2-1.3c0.8,0,1.6-0.1,2.5-0.1c0.3,0,0.5,0,0.8,0c1.1,0,2.2-0.1,3.2-0.1c0,0,0,0,0,0
		c0.4,0,0.8,0,1.3,0c7.9,0,9.2,0.9,9.3,1c0.5,0.5,1.1,3.7,1.1,8.8C108.4,96,108,99.3,107.6,99.7z M124.5,99.7
		c-0.3,0-0.6-0.3-0.6-0.6c0-1.5-1.1-2.2-2.2-2.2s-2.2,0.7-2.2,2.2c0,0.3-0.3,0.6-0.6,0.6s-0.6-0.3-0.6-0.6c0.1-1.5,0.9-2.5,2-3
		c0,0,0,0,0,0c0.5-0.3,1-0.4,1.6-0.4c1.7,0,3.4,1.2,3.4,3.4C125.1,99.4,124.9,99.7,124.5,99.7z"/>
</g>
<g>
	<path d="M42.6,62.9c0.2-0.2,0.3-0.5,0.1-0.7s-0.5-0.3-0.7-0.1c-1.6,1.2-5.6,0.7-7.3-0.6c-0.2-0.2-0.5-0.1-0.7,0.1
		c-0.2,0.2-0.1,0.5,0.1,0.7c1.2,0.9,3.2,1.5,5.1,1.5C40.5,63.8,41.8,63.5,42.6,62.9z"/>
	<path d="M24.8,61.5c-1.4,0.8-3.6,0.7-5.1,0.1c-0.9-0.3-1.4-0.7-1.5-0.9c-0.1-0.3-0.4-0.4-0.7-0.3c-0.3,0.1-0.4,0.4-0.3,0.7
		c0.3,0.8,1.5,1.3,2.1,1.5c0.8,0.3,1.9,0.5,3,0.5c1,0,2.1-0.2,3-0.7c0.2-0.1,0.3-0.4,0.2-0.7C25.3,61.4,25,61.3,24.8,61.5z"/>
	<path d="M56.6,64.1c-0.1-0.4-0.2-0.8-0.4-1.2c4-5.6,4.6-12.8,3-18.6c-2.4-8.8-9.4-14.5-17.9-14.6c-1.8-1.8-6.4-4.2-11.9-4.2
		c-12.2,0-22.8,8.1-26.9,20.7C-1.8,59.5,2.2,73,12.8,80.7c0.1,0.1,0.2,0.1,0.4,0.1c0.2,0,0.3-0.1,0.4-0.2c0.2-0.2,0.3-0.5,0.1-0.8
		c-1-1.7-1.7-3.2-2.3-4.7c0.3,0.5,0.7,0.9,1,1.4c2.1,2.9,3.9,5.4,3,11.3c0,0.3,0.1,0.5,0.3,0.6c0.1,0.1,0.2,0.1,0.3,0.1
		c0.1,0,0.3,0,0.4-0.1c3.3-2.7,4.6-5.8,5.1-8.1c0.3,0.1,0.5,0.2,0.8,0.3c-0.7,0.8-1.3,2-1.8,3.4c0,0,0,0,0,0.1
		c-1,2.9-1.7,6.8-1.7,10.6c0,4,2,7.4,4.6,7.9c0.2,1.1,0.5,2.1,0.8,2.8c-0.2,0.6-0.1,1.2,0.3,1.6c0.1,0.3,0.6,0.7,3.2,0.7
		c2.5,0,3.4-0.3,3.8-0.6c0,0,0.1,0,0.1,0c0,0,0,0,0,0c0.4,0.3,1.3,0.6,3.8,0.6c0,0,0,0,0,0c2.6,0,3.1-0.4,3.2-0.7
		c0.3-0.4,0.5-1,0.3-1.5c1-1.6,1.2-5.4,1.1-7.8c1.9,1.5,3.9,2.5,5.3,2.9c0.1,0,0.1,0,0.2,0c0.2,0,0.4-0.1,0.5-0.2
		c0.2-0.2,0.2-0.5,0.1-0.7c-1.4-2.7-2-5-2-6.8c1.3,0.5,2.9,0.8,4.4,1.2c1.6,0.4,3.3,0.8,4.6,1.3c0.1,0,0.1,0,0.2,0c0,0,0.1,0,0.1,0
		c0,0,0,0,0.1,0c0.4,0.2,0.9,0.3,1.3,0.3c0.7,0,1.3-0.3,1.6-0.8c0.2-0.3,0.2-0.8,0.1-1.2c-0.2-0.5-0.6-1-1.1-1.4
		c-0.1-0.1-0.1-0.2-0.3-0.3c-2.5-1.2-4.7-3.4-6.4-5.3c1-0.5,2-1,3.1-1.6c3.8-1.8,7.7-3.7,9.2-7.8C63.6,71.4,59.3,66.3,56.6,64.1z
		 M35,80.6c-1.5,0.2-3,0.3-4.5,0.3c-8.2,0-15.6-3.8-20-10.3c0-0.1-0.1-0.2-0.1-0.2c-0.1-1.2,0-2.3,0.3-3.3
		c1.3-4.6,6.2-7.3,11.8-10.4c5.6-3.1,12-6.6,15.9-13c1.4,4.5,4.7,7.5,7.5,10.1c4.4,4.1,7.6,7.1,3.5,13.6c-0.2,0.2-0.1,0.6,0.1,0.8
		c0.1,0.1,0.3,0.2,0.5,0.2c0.1,0,0.2,0,0.3-0.1c0.5-0.3,1-0.7,1.5-1c0.1,0,0.1,0.1,0.1,0.1c0,0.6-2.3,1.7-4.2,2.7
		C43.5,72.2,37.4,75.2,35,80.6z M57.9,44.7c1.9,6.8,0.6,15.6-6.2,21.1c2.5-5.8-1.1-9.2-5-12.8c-3-2.8-6.4-6-7.5-10.8
		c1.5-3,2.5-6.7,2.5-11.1C49.4,31.3,55.7,36.6,57.9,44.7z M3.7,46.7c3.9-12,14-19.8,25.7-19.8c5.6,0,9.8,2.6,11.1,3.9
		c-0.1,14.7-9.9,20.1-18.6,24.9c-5.6,3.1-11,6-12.4,11.1c-0.9,3-0.3,6.7,1.8,11C2.9,70.2-0.1,58.3,3.7,46.7z M17,86.4
		c0.4-5.2-1.5-7.8-3.5-10.5c-0.2-0.2-0.4-0.5-0.5-0.7c2.2,2,4.7,3.6,7.4,4.8C20.1,81.7,19.2,84.1,17,86.4z M30.5,81.9
		c1.4,0,2.7-0.1,4.1-0.3c-0.5,1.4-0.7,3-0.6,4.8c-0.7-0.5-1.3-1.2-1.5-2.2c0-0.2,0.1-0.5,0.1-0.7c0-0.3-0.3-0.6-0.6-0.6
		c0,0,0,0-0.1,0c0,0,0,0-0.1,0c-0.3,0-0.6,0.3-0.6,0.6c0,0.2,0,0.4,0,0.7c-0.5,2.2-3.3,3.4-4.9,3.4c-1.5,0-4.3-0.7-4.4-3.1
		c0.6-1.6,1.2-2.8,1.9-3.4C25.9,81.6,28.1,81.9,30.5,81.9z M38.2,104.4c-1-0.7-2.5-0.9-3.6-0.9c-0.7,0-1.6,0.1-2.4,0.5
		c-0.2,0.1-0.4,0.3-0.6,0.5c-0.2-0.2-0.3-0.4-0.6-0.6c-0.7-0.4-1.6-0.4-2.3-0.4c-1.1,0-2.6,0.2-3.6,0.9c-0.6-1.9-1.3-6.9-0.9-8.1
		c0.1-0.3-0.1-0.7-0.4-0.8c-0.3-0.1-0.7,0.1-0.8,0.4c-0.2,0.6-0.2,2-0.1,3.6l-0.9,1c-1.2-1.2-2-3.4-2-5.8c0-3,0.4-5.8,1-8.2
		c1,1.5,3.1,2.3,5,2.3c1.6,0,4.2-1,5.5-2.9c0.5,0.8,1.3,1.6,2.4,2.1c0,0.1,0,0.1,0,0.2c0.7,3.4,2.6,6.2,4.8,8.3
		C39.2,99.2,38.8,103,38.2,104.4z M54.2,92.9l-0.7,1.2c-1.3-0.5-3-0.9-4.6-1.3c-1.6-0.4-3.2-0.8-4.5-1.3c0-0.1,0.1-0.2,0.1-0.4
		c0.5-1.6,1.7-2.7,3.3-3.7C49.5,89.3,51.7,91.5,54.2,92.9z M60.1,77.1c-1.3,3.6-5,5.3-8.6,7.1c-3.6,1.7-7,3.3-8.1,6.7
		c-0.1,0.3-0.2,0.6-0.2,0.9c0,0,0,0,0,0.1c0,0.1,0,0.3,0,0.4c-0.3,1.9,0.2,4.1,1.4,6.7c-1.4-0.6-3-1.7-4.5-3.1c0,0-0.1-0.1-0.1-0.1
		c-2-1.9-3.9-4.5-4.5-7.7c-1.8-9.4,7-13.8,12.8-16.7c2.7-1.3,4.5-2.3,4.8-3.4c1,0.1,2.1-0.3,2.8-1.2c0.2-0.3,0.4-0.7,0.6-1
		C58.9,67.8,62,72.1,60.1,77.1z"/>
</g>
<g id="Layer_6" display="none">
	
		<path display="inline" opacity="0.5" fill="none" stroke="#00D43D" stroke-width="4" stroke-linecap="round" stroke-linejoin="round" stroke-miterlimit="10" enable-background="new    " d="
		M367.8,484.9c-7.2-52.5,17.3-88.7,60.2-91.3c42.9-2.6,105.9-26.2,69.3-95.4C450.1,259.2,290.5,319.6,367.8,484.9z"/>
	
		<path display="inline" fill="none" stroke="#FFFFFF" stroke-width="4" stroke-linecap="round" stroke-linejoin="round" stroke-miterlimit="10" d="
		M541.3,431.8c0,12.2-46.5,32.8-66.2,69.8c-13,24.3-13.4,60.5,6.4,79.4c-2.1-34.8-2.2-58.2,43.5-78.1c41.3-18,53.8-55.5,29.4-78.7"
		/>
	
		<path display="inline" opacity="0.5" fill="none" stroke="#00D43D" stroke-width="4" stroke-linecap="round" stroke-linejoin="round" stroke-miterlimit="10" enable-background="new    " d="
		M32.5,484.9c-7.2-52.5,17.3-88.7,60.2-91.3c42.9-2.6,105.9-26.2,69.3-95.4C114.7,259.2-44.9,319.6,32.5,484.9z"/>
	
		<path display="inline" opacity="0.5" fill="none" stroke="#00D43D" stroke-width="4" stroke-linecap="round" stroke-linejoin="round" stroke-miterlimit="10" enable-background="new    " d="
		M205.9,431.8c3.8,12.8-32.6,15-59.9,45.7c-27.4,30.7-26.6,72.3-6.8,91.1c-2.1-34.8,10.7-41.7,56.1-62.1
		c45.4-20.5,54-67.6,29.6-90.9"/>
</g>
</svg>
