<?xml version="1.0" encoding="utf-8"?>
<!-- Generator: Adobe Illustrator 17.1.0, SVG Export Plug-In . SVG Version: 6.00 Build 0)  -->
<!DOCTYPE svg PUBLIC "-//W3C//DTD SVG 1.1//EN" "http://www.w3.org/Graphics/SVG/1.1/DTD/svg11.dtd">
<svg version="1.1" id="Layer_1" xmlns="http://www.w3.org/2000/svg" xmlns:xlink="http://www.w3.org/1999/xlink" x="0px" y="0px"
	 viewBox="0 0 84 108" enable-background="new 0 0 84 108" xml:space="preserve">
<g>
	<g>
		<path d="M32.2,107.5c-2.8,0-5.6-0.3-6.5-1c-1.4-0.8-2.1-8.3-1.6-9.8c0.1-0.3,0.4-0.5,0.7-0.4c0.3,0.1,0.5,0.4,0.4,0.7
			c-0.5,1.4,0.4,7.8,1.2,8.5c1.7,1.1,10.6,1,11.6,0c0,0,0.1-0.1,0.1-0.1c0.7-0.3,1.4-5.3,1-8.4c0-0.3,0.2-0.6,0.5-0.7
			c0.3-0.1,0.6,0.2,0.7,0.5c0.4,2.4,0.1,8.7-1.6,9.6C37.7,107.2,35,107.5,32.2,107.5z"/>
	</g>
	<path d="M36.1,81.9c-1.4,0.2-3,0.3-4.5,0.3c-8,0-15.2-3.8-19.3-10.1c-0.2-0.3-0.5-0.3-0.8-0.2c-0.3,0.2-0.3,0.5-0.2,0.8
		c4.3,6.7,11.9,10.6,20.3,10.6c1.6,0,3.1-0.1,4.6-0.3c0.3,0,0.5-0.3,0.5-0.7C36.7,82.1,36.4,81.8,36.1,81.9z"/>
	<path d="M25,100.1c0-0.2-0.2-0.4-0.4-0.4c-0.2-0.1-0.4,0-0.6,0.2l-1.6,1.6c-0.2,0.2-0.2,0.5,0,0.8c0.1,0.1,0.2,0.2,0.3,0.3
		c0.5,0.5,1.2,0.8,1.8,0.8c0.1,0,0.2,0,0.3,0c0.2,0,0.3-0.1,0.4-0.2C25.4,102.8,25.5,102.7,25,100.1z"/>
	<g>
		<path d="M24.6,103.2C24.6,103.2,24.5,103.2,24.6,103.2c-2.6-0.3-4.6-3.7-4.6-7.5c0-5.9,1.7-12.1,3.8-14c0.2-0.2,0.6-0.2,0.8,0
			c0.2,0.2,0.2,0.6,0,0.8c-1.7,1.5-3.4,7.2-3.4,13.2c0,3.2,1.6,6.2,3.5,6.4c0.3,0,0.5,0.3,0.5,0.6C25.1,103,24.9,103.2,24.6,103.2z"
			/>
	</g>
	<path d="M51.4,69c0,0,0.1,0.1,0.1,0.1c1.3,1.1,3.3,0.9,4.4-0.4c1-1.2,0.9-2.9-0.1-4C54.6,66.3,53.2,67.8,51.4,69z"/>
	<path d="M42,101.4l-1.6-1.6c-0.2-0.2-0.4-0.2-0.6-0.2c-0.2,0.1-0.4,0.2-0.4,0.4c-0.5,2.6-0.4,2.7-0.3,2.9c0.1,0.1,0.2,0.2,0.4,0.2
		c0.1,0,0.2,0,0.3,0c0.6,0,1.3-0.3,1.8-0.8c0.1-0.1,0.2-0.2,0.3-0.3C42.2,102,42.2,101.6,42,101.4z"/>
	<path d="M43.2,99.3c-0.3-0.1-0.6,0-0.8,0.3c-0.7,1.4-1.7,2.3-2.7,2.4c-0.3,0-0.5,0.3-0.5,0.6c0,0.3,0.3,0.5,0.6,0.5c0,0,0,0,0.1,0
		c1.4-0.2,2.7-1.3,3.6-3.1C43.7,99.8,43.5,99.5,43.2,99.3z"/>
	<path d="M49.8,26.1c-0.2-0.1-0.4-0.1-0.6,0c-0.2,0.1-0.3,0.3-0.3,0.5c0,4.7-0.1,6.4-1.7,6.4c-0.7,0-1.7-0.3-3-0.6
		c-2.7-0.7-6.7-1.7-13-1.7c-6.2,0-10.5,1-13.3,1.7c-1.3,0.3-2.4,0.6-3.1,0.6c-1.6,0-1.7-1.6-1.7-6.4c0-0.2-0.1-0.4-0.3-0.5
		c-0.2-0.1-0.4-0.1-0.6,0C4.9,31,0.5,54.6,5.1,63.8c4.8,9.7,23,11.9,26.1,11.9c3.1,0,20.9-2.2,25.7-11.9
		C61.6,54.6,57.1,31,49.8,26.1z M26.5,64.5c-0.8,0.5-1.8,0.7-2.8,0.7c-1,0-2-0.2-2.7-0.4c-1-0.3-1.7-0.8-1.9-1.3
		c-0.1-0.1,0-0.3,0.2-0.4c0.1-0.1,0.3,0,0.4,0.2c0.1,0.2,0.6,0.7,1.6,1c1.5,0.5,3.6,0.6,5-0.2c0.1-0.1,0.3,0,0.4,0.1
		C26.7,64.2,26.6,64.4,26.5,64.5z M43.1,64.9c-0.8,0.6-1.9,0.9-3.2,0.9c-1.8,0-3.7-0.5-4.8-1.4c-0.1-0.1-0.1-0.3,0-0.4
		c0.1-0.1,0.3-0.1,0.4,0c1.7,1.3,5.6,1.8,7.2,0.5c0.1-0.1,0.3-0.1,0.4,0C43.2,64.7,43.2,64.8,43.1,64.9z"/>
	<g>
		<path d="M25.2,81.8c-0.1-0.2-0.3-0.4-0.5-0.4c-4.9,0-7.5,12.2-7.5,18.5c0,2.4,4,8.1,5.8,8.1c0.2,0,0.4-0.1,0.5-0.3
			c0.1-0.2,0.1-0.4,0-0.6c-1.4-2.1-2.5-5.6-2.5-7.3l0-0.3c0-9.1,1.4-14.8,4.1-17C25.2,82.3,25.3,82.1,25.2,81.8z"/>
	</g>
	<path d="M22.7,80.7c-0.3-0.1-0.6,0.2-0.7,0.5c-0.4,2.2-1.8,4.5-4,6.5c0.5-5.1-1.2-7.6-3-10.3c-1-1.5-2-3-2.8-5.1
		c-0.1-0.8,0-1.6,0.1-2.4c0-0.2-0.1-0.5-0.3-0.6c-2.9-1.7-4.9-3.8-6-6.1c-0.7-1.3-0.7-2.2-0.9-3.9c0-0.3-0.1-0.7-0.1-1.1
		c0-0.3-0.3-0.5-0.6-0.5C4.2,57.8,4,58,4,58.3c-0.7,10.1,3,18.1,10.8,23.9c0.1,0.1,0.2,0.1,0.3,0.1c0.1,0,0.3,0,0.4-0.1
		c0.2-0.2,0.3-0.5,0.1-0.7c-0.9-1.5-1.6-3-2.1-4.3c0.2,0.3,0.4,0.6,0.6,1c1.9,2.8,3.5,5.3,2.6,10.9c0,0.2,0.1,0.5,0.3,0.6
		c0.1,0.1,0.2,0.1,0.3,0.1c0.1,0,0.3,0,0.4-0.1c3-2.3,5-5.3,5.5-8.1C23.2,81.1,23,80.8,22.7,80.7z M5.2,64c1.2,2.3,3.3,4.4,6.1,6.1
		c-0.4,2.7,0.3,5.8,2,9.4C8.6,75.3,5.9,70.2,5.2,64z"/>
	<g>
		<path d="M46.1,100.6c-0.7-0.2-1.6-0.6-2.7-1.2l0,0.4c0,1.7-1.1,5.2-2.5,7.3c-0.1,0.2-0.1,0.4,0,0.6c0.1,0.2,0.3,0.3,0.5,0.3
			c1.7,0,5.8-5.7,5.8-8.1c0-2.4-0.4-6.4-1.4-10C43.8,92,43.3,95.2,46.1,100.6z"/>
	</g>
	<g>
		<path d="M55.4,65.6c-0.3-0.2-0.6-0.1-0.8,0.2c-0.2,0.3-0.1,0.6,0.2,0.8c2,1.2,7.3,6.1,5.1,12.2c-1.3,3.4-4.8,5.1-8.2,6.8
			c-3.4,1.6-6.7,3.2-7.7,6.4c-0.7,2.1-0.4,4.6,1,7.7c-3.1-1.4-7.7-5.1-8.7-10.4c-1.7-9.1,6.7-13.3,12.3-16c2.9-1.4,4.7-2.3,4.7-3.6
			c0-0.3-0.3-0.6-0.6-0.6s-0.6,0.3-0.6,0.6c0,0.6-2.2,1.7-4,2.5c-5.5,2.8-14.8,7.4-12.9,17.3c1.3,6.7,7.7,11,10.9,11.8
			c0,0,0.1,0,0.1,0c0.2,0,0.3-0.1,0.5-0.2c0.1-0.2,0.2-0.4,0.1-0.6c-1.8-3.4-2.3-6.1-1.6-8.1c0.9-2.7,3.9-4.2,7.1-5.7
			c3.6-1.7,7.4-3.5,8.8-7.4C63.5,72.3,57.7,66.9,55.4,65.6z"/>
	</g>
	<path d="M35.7,89.3c-0.1-0.6-0.2-1.2-0.2-1.8c-0.4-0.3-0.8-0.4-1-0.4c-0.3,0-0.5,0.2-0.6,0.5c0,0.3,0.1,0.5,0.4,0.6
		c0.1,0.1,0.3,0.4,0.3,0.6c0,0.1-0.2,0.1-0.5,0.1c-0.4,0-0.7-0.1-0.9-0.3c-0.3-0.3-0.3-0.8-0.2-1c0-0.3-0.2-0.6-0.5-0.6
		c-0.3-0.1-0.6,0.1-0.7,0.4c0,0.1-0.1,0.2-0.2,0.2c-0.2,0-0.2,0-0.2-0.2c-0.1-0.3-0.4-0.5-0.7-0.4c-0.3,0.1-0.5,0.3-0.5,0.6
		c0,0.2,0,0.7-0.2,1c-0.2,0.2-0.5,0.3-0.9,0.3c-0.3,0-0.4-0.1-0.5-0.1c-0.1-0.2,0.1-0.6,0.2-0.6c0.3-0.1,0.4-0.4,0.4-0.6
		c0-0.3-0.3-0.5-0.6-0.5c-0.9,0-4.4,2.9-4.4,5c0,0.2,0.2,0.5,0.4,0.5c0.2,0.1,0.5,0,0.6-0.2c0.3-0.4,0.7-0.6,1.1-0.6
		c0.7,0,1.3,0.6,1.4,1.1c0.1,0.2,0.2,0.3,0.4,0.4c0.2,0.1,0.4,0,0.5-0.1c0.2-0.2,0.5-0.3,0.7-0.3c0.6,0,1.2,0.8,1.6,2.2
		c0.1,0.3,0.3,0.4,0.6,0.4c0.3,0,0.5-0.2,0.6-0.4c0.3-1.4,0.9-2.2,1.6-2.2c0.2,0,0.5,0.1,0.7,0.3c0.2,0.1,0.4,0.2,0.5,0.1
		c0.2-0.1,0.3-0.2,0.4-0.4c0.1-0.4,0.6-0.9,1.1-1C36.1,91.1,35.9,90.2,35.7,89.3z"/>
	<path d="M36.5,82.2c-1.7,0.1-3.7,0.5-4.9,1.8c-1.9-1.9-5.4-2.4-7.1-2.4c-2,0-2.7,2.2-2.7,3.7c0,0.3,0.2,0.5,0.5,0.6
		c0,0,0.1,0,0.1,0c0.2,0,0.4-0.1,0.5-0.3c0.4-0.9,1.5-1.3,3.1-1.3c2.3,0,4.9,0.9,5.2,1.2c0.1,0.1,0.3,0.1,0.4,0.1c0,0,0,0,0,0
		c0.1,0,0.2,0,0.4-0.1c0.3-0.2,2-0.8,3.8-1.1C36,83.5,36.2,82.8,36.5,82.2z"/>
	<path d="M38.9,105.3c-0.8-0.8-2.5-1.2-3.9-1.2c-0.6,0-1.5,0.1-2.2,0.4c-0.3,0.1-0.4,0.3-0.6,0.5c-0.1-0.2-0.3-0.4-0.6-0.5
		c-0.7-0.4-1.6-0.4-2.2-0.4c-1.4,0-3.2,0.4-3.9,1.2c-0.7,0.7-0.5,1.6-0.1,2.1c0.1,0.3,0.6,0.6,3.1,0.6c2.6,0,3.4-0.3,3.7-0.6
		c0.3,0.3,1.1,0.6,3.7,0.6c0,0,0,0,0,0c2.5,0,2.9-0.3,3.1-0.6C39.4,106.9,39.6,106,38.9,105.3z"/>
</g>
<path opacity="0.9" fill="222222" d="M71.7,4.8c-0.4-2.1-3.7-4.4-5-4.7c0,0-0.1,0-0.1,0l0,0c-0.1,0-0.1,0-0.1,0
	C66.2,0,66,0.2,66,0.5c0,0.2,0.2,0.5,0.4,0.5c0.1,0.1,0.5,0.5,0.5,0.8c0,0.2-0.4,0.3-0.6,0.3c-0.5,0.1-0.9,0-1.1-0.3
	c-0.4-0.4-0.4-1.1-0.4-1.2c0-0.3-0.2-0.5-0.5-0.5c-0.3,0-0.5,0.2-0.5,0.4c0,0.2-0.1,0.3-0.4,0.3c-0.1,0-0.2,0-0.3-0.3
	c-0.1-0.2-0.4-0.4-0.6-0.3c-0.3,0.1-0.4,0.3-0.3,0.6c0,0.1,0.2,0.8-0.1,1.3c-0.2,0.3-0.5,0.4-1,0.5c-0.5,0.1-0.6-0.1-0.7-0.2
	c-0.1-0.3,0.1-0.8,0.3-0.9c0.2-0.1,0.4-0.3,0.3-0.6c-0.1-0.2-0.3-0.4-0.5-0.4c-1,0.1-4.4,3.6-4.1,5.9C56,6.8,56.2,7,56.4,7
	c0.2,0.1,0.4,0,0.5-0.2c0.4-0.6,0.8-0.9,1.4-0.9c0.8,0,1.5,0.6,1.7,1.1c0.1,0.2,0.2,0.3,0.4,0.3c0.2,0,0.3,0,0.5-0.1
	C61,7,61.3,6.8,61.7,6.8c0.8,0,1.5,0.9,2,2.3c0.1,0.2,0.3,0.3,0.5,0.3c0,0,0,0,0.1,0c0.2,0,0.4-0.2,0.4-0.4c0.2-1.7,0.9-2.7,1.7-2.7
	c0.2,0,0.5,0.1,0.8,0.3c0.1,0.1,0.3,0.1,0.5,0c0.2-0.1,0.3-0.2,0.3-0.4c0.1-0.6,0.9-1.5,1.7-1.5c0.4,0,0.8,0.2,1.2,0.6
	c0.1,0.1,0.2,0.2,0.4,0.1c0.3,0,0.5-0.2,0.5-0.5C71.7,4.9,71.7,4.8,71.7,4.8z"/>
<path opacity="0.9" fill="222222" d="M82.6,16.8c-0.5-0.7-1.7-2.1-2.4-2.2c-0.2,0-0.5,0.1-0.6,0.3s0,0.5,0.3,0.6
	c0.1,0.1,0.3,0.5,0.2,0.9c0,0.1-0.2,0.3-0.7,0.2c-0.5-0.1-0.8-0.3-1-0.5c-0.3-0.5-0.1-1.2-0.1-1.3c0.1-0.3-0.1-0.5-0.3-0.6
	c-0.3-0.1-0.5,0-0.6,0.3c-0.1,0.3-0.3,0.3-0.4,0.2c-0.3,0-0.3-0.1-0.3-0.4c0-0.3-0.2-0.5-0.5-0.5c-0.3,0-0.5,0.2-0.5,0.5
	c0,0.4-0.1,1.6-1.6,1.4c-0.2,0-0.6-0.1-0.6-0.3c0-0.3,0.3-0.7,0.5-0.8c0.2,0,0.4-0.2,0.4-0.5s-0.2-0.5-0.4-0.5c0,0-0.1,0-0.1,0
	c-1,0-5,2.4-5.4,4.7c0,0.2,0.1,0.4,0.3,0.5c0.2,0.1,0.4,0.1,0.6-0.1c0.4-0.4,0.8-0.5,1.2-0.5c0.9,0,1.6,0.9,1.7,1.6
	c0,0.2,0.1,0.3,0.3,0.4c0.2,0.1,0.3,0.1,0.5,0c0.2-0.1,0.5-0.2,0.7-0.2c0.9,0,1.5,1.1,1.6,2.8c0,0.2,0.2,0.4,0.4,0.5
	c0,0,0.1,0,0.1,0c0.2,0,0.4-0.1,0.5-0.3c0.6-1.4,1.3-2.2,2.1-2.2c0.4,0,0.7,0.3,0.9,0.5c0.1,0.1,0.3,0.2,0.5,0.2
	c0.2,0,0.3-0.1,0.4-0.3c0.2-0.5,1-1,1.7-1c0.6,0,1,0.3,1.4,0.9c0.1,0.2,0.3,0.3,0.5,0.2c0.2,0,0.4-0.2,0.4-0.4
	C84.3,19.3,83.2,17.6,82.6,16.8z"/>
</svg>
