<?xml version="1.0" encoding="utf-8"?>
<!-- Generator: Adobe Illustrator 17.1.0, SVG Export Plug-In . SVG Version: 6.00 Build 0)  -->
<!DOCTYPE svg PUBLIC "-//W3C//DTD SVG 1.1//EN" "http://www.w3.org/Graphics/SVG/1.1/DTD/svg11.dtd">
<svg version="1.1" xmlns="http://www.w3.org/2000/svg" xmlns:xlink="http://www.w3.org/1999/xlink" x="0px" y="0px"
	 viewBox="500 380 200 140" enable-background="new 500 380 200 140" xml:space="preserve">
<g id="Layer_3" display="none">
	<rect x="-935" y="-304.3" display="inline" fill="#555555" width="3069.9" height="1508.5"/>
</g>
<g id="Layer_4" display="none">
	
		<image display="inline" overflow="visible" opacity="0.4" width="2448" height="2448" xlink:href="C1C5FA3581E57BEA.jpg"  transform="matrix(-0.2676 0 0 0.2676 778.9628 81.0372)">
	</image>
	
		<path display="inline" fill="#555555" stroke="#FFFFFF" stroke-width="4" stroke-linecap="round" stroke-linejoin="round" stroke-miterlimit="10" d="
		M960,431c16.5,11,38,47.5,32,89c-11.9,82.1-160,88.5-141,145c-17.8-11.8-41.6-49.7-33-98c13-73,127-101,127-117"/>
	
		<path display="inline" fill="none" stroke="#FFFFFF" stroke-width="4" stroke-linecap="round" stroke-linejoin="round" stroke-miterlimit="10" d="
		M476,512c14,0,36,56,36,91s-26,56-33,56"/>
</g>
<g id="Layer_5" display="none">
	
		<image display="inline" overflow="visible" opacity="0.4" width="2448" height="2448" xlink:href="C1C5FA3581E57BEF.jpg"  transform="matrix(-0.2374 0 0 0.2374 731.3332 140.3285)">
	</image>
</g>
<g id="Layer_7" display="none">
</g>
<g id="Layer_2">
	<g>
		
			<path fill="none" stroke="#FFFFFF" stroke-width="1.2662" stroke-linecap="round" stroke-linejoin="round" stroke-miterlimit="10" d="
			M537,495.3c-0.8,2.4,0.6,13.9,2.3,14.9c3,2,18.1,1.8,20.1,0c2.1-0.9,2.8-10.3,2.2-14.8"/>
		
			<path fill="none" stroke="#FFFFFF" stroke-width="1.2662" stroke-linecap="round" stroke-linejoin="round" stroke-miterlimit="10" d="
			M553.7,481.8c-2.4-1.2-4.3-3.2-4.3-6.2"/>
		<g>
			
				<path fill="none" stroke="#FFFFFF" stroke-width="1.2662" stroke-linecap="round" stroke-linejoin="round" stroke-miterlimit="10" d="
				M583.5,493.2c-4.4-1.6-10.9-2.7-15.3-4.4"/>
			
				<path fill="#FFFFFF" stroke="#FFFFFF" stroke-width="0.7597" stroke-linecap="round" stroke-linejoin="round" stroke-miterlimit="10" d="
				M583.6,493.4c0.2,0.1,0.3,0.2,0.5,0.3c1.5,0.8,3.1,0.5,3.7-0.5s-0.1-2.6-1.6-3.4c-0.2-0.1-0.4-0.2-0.5-0.2L583.6,493.4z"/>
			
				<path fill="none" stroke="#FFFFFF" stroke-width="1.2662" stroke-linecap="round" stroke-linejoin="round" stroke-miterlimit="10" d="
				M574.9,480.6c3.1,3.5,6.8,7.2,11,9.3"/>
		</g>
		
			<path fill="#FFFFFF" stroke="#FFFFFF" stroke-width="1.2662" stroke-linecap="round" stroke-linejoin="round" stroke-miterlimit="10" d="
			M548.8,511.7c-0.4,1-9.4,1.1-9.6,0.2c-0.4-0.4-0.9-1.3,0-2.3c1.5-1.7,6.7-2.2,8.8-1.1C549.4,509.3,549.1,511.1,548.8,511.7z"/>
		
			<path fill="#FFFFFF" stroke="#FFFFFF" stroke-width="1.2662" stroke-linecap="round" stroke-linejoin="round" stroke-miterlimit="10" d="
			M550.3,509c-0.7,0.9-0.5,2.2-0.3,2.7c0.1,0.4,1.4,0.6,2.9,0.7C552,511.5,551.1,510.3,550.3,509z"/>
		
			<path fill="none" stroke="#FFFFFF" stroke-width="1.013" stroke-linecap="round" stroke-linejoin="round" stroke-miterlimit="10" d="
			M515.1,455.3c6.8,10.4,18.7,17,32.4,17c2.7,0,5.4-0.2,8-0.6"/>
		
			<path fill="#FFFFFF" stroke="#FFFFFF" stroke-width="0.7597" stroke-linecap="round" stroke-linejoin="round" stroke-miterlimit="10" d="
			M534.2,503.4c0.1,0.2,0.3,0.3,0.4,0.4c0.8,0.8,1.9,1.1,2.7,1c0.2,0-0.6-4.1-0.6-4.1L534.2,503.4z"/>
		
			<path fill="none" stroke="#FFFFFF" stroke-width="1.2662" stroke-linecap="round" stroke-linejoin="round" stroke-miterlimit="10" d="
			M536.3,471c-3,2.8-5.9,12.3-5.9,22.2c0,5.7,2.9,11,6.6,11.4"/>
		
			<path fill="none" stroke="#FFFFFF" stroke-width="1.2662" stroke-linecap="round" stroke-linejoin="round" stroke-miterlimit="10" d="
			M639.5,465.1c0,2,0.1,4.4,0.5,6.5c3.5-0.2,7.3-0.4,10.9-0.4c-0.2-1.7-0.3-3.9-0.4-6C646.8,465.3,643.1,465.2,639.5,465.1z"/>
		
			<path fill="none" stroke="#FFFFFF" stroke-width="1.2662" stroke-linecap="round" stroke-linejoin="round" stroke-miterlimit="10" d="
			M681.2,461.3c-13.9,5.2-54.8,5.2-68.9,0c-4.9-3.3-1.8-49.5-1.8-49.5c0-0.9,0.7-1.7,1.6-1.7c0,0,16.8-1.2,34.6-1.2
			c17.8,0,34.6,1.2,34.6,1.2c0.9,0,1.6,0.7,1.6,1.7C683,411.8,686,457.5,681.2,461.3z"/>
		<circle fill="none" stroke="#FFFFFF" stroke-width="1.2662" stroke-miterlimit="10" cx="629" cy="433" r="10.7"/>
		<circle fill="none" stroke="#FFFFFF" stroke-width="1.2662" stroke-miterlimit="10" cx="664.6" cy="434.5" r="10.7"/>
		<circle fill="#FFFFFF" cx="624.7" cy="437" r="2.4"/>
		<circle fill="#FFFFFF" cx="660.3" cy="438" r="2.4"/>
		
			<path fill="none" stroke="#FFFFFF" stroke-width="1.2662" stroke-linecap="round" stroke-linejoin="round" stroke-miterlimit="10" d="
			M668.8,501.6c-2,2.4-33.2,6.1-42.7,0.6c-2.7-1.6-5.1-26.5-1.8-28.5c3.4-2,40.4-4.2,43.9-0.6C671,475.9,670.7,499.2,668.8,501.6z"
			/>
		<g>
			<path fill="#FFFFFF" d="M634.3,513.4c-1.3,0-2.3-1-2.3-2.3v-3.6c0-1.3,1-2.3,2.3-2.3H645c1.3,0,2.3,1,2.3,2.3v3.6
				c0,1.3-1,2.3-2.3,2.3H634.3z"/>
			<path fill="#FFFFFF" d="M645,505.7c1,0,1.8,0.8,1.8,1.8v3.6c0,1-0.8,1.8-1.8,1.8h-10.7c-1,0-1.8-0.8-1.8-1.8v-3.6
				c0-1,0.8-1.8,1.8-1.8H645 M645,504.7h-10.7c-1.5,0-2.8,1.3-2.8,2.8v3.6c0,1.5,1.3,2.8,2.8,2.8H645c1.5,0,2.8-1.3,2.8-2.8v-3.6
				C647.8,506,646.6,504.7,645,504.7L645,504.7z"/>
		</g>
		<g>
			<path fill="#FFFFFF" d="M652.1,513.4c-1.3,0-2.3-1-2.3-2.3v-3.6c0-1.3,1-2.3,2.3-2.3h10.7c1.3,0,2.3,1,2.3,2.3v3.6
				c0,1.3-1,2.3-2.3,2.3H652.1z"/>
			<path fill="#FFFFFF" d="M662.8,505.7c1,0,1.8,0.8,1.8,1.8v3.6c0,1-0.8,1.8-1.8,1.8h-10.7c-1,0-1.8-0.8-1.8-1.8v-3.6
				c0-1,0.8-1.8,1.8-1.8H662.8 M662.8,504.7h-10.7c-1.5,0-2.8,1.3-2.8,2.8v3.6c0,1.5,1.3,2.8,2.8,2.8h10.7c1.5,0,2.8-1.3,2.8-2.8
				v-3.6C665.6,506,664.4,504.7,662.8,504.7L662.8,504.7z"/>
		</g>
		<g>
			<g>
				<path fill="#FFFFFF" d="M690.1,494.6c2.7,0,5.3,1.8,5.3,5.3c0,0.5-0.4,1-1,1c-0.5,0-1-0.4-1-1c0-2.3-1.7-3.4-3.4-3.4
					c-1.7,0-3.4,1.1-3.4,3.4c0,0.5-0.4,1-1,1s-1-0.4-1-1C684.8,496.4,687.5,494.6,690.1,494.6 M690.1,492.2c-3.7,0-7.7,2.7-7.7,7.7
					c0,1.8,1.5,3.3,3.3,3.3c1.8,0,3.3-1.5,3.3-3.3c0-0.3,0-1,1-1s1,0.7,1,1c0,1.8,1.5,3.3,3.3,3.3s3.3-1.5,3.3-3.3
					C697.8,494.9,693.9,492.2,690.1,492.2L690.1,492.2z"/>
			</g>
		</g>
		<g>
			<path fill="#FFFFFF" d="M645.3,409.3c-0.1,0-0.3-0.1-0.3-0.3c-0.3-1.8-0.6-5.1-0.1-7.5c0-0.1,0.1-0.2,0.2-0.2c0,0,0.1,0,0.1,0
				c0,0,0.1,0,0.1,0c0.4,0.2,0.9,0.3,1.4,0.3c0.5,0,0.9-0.1,1.3-0.3c0,0,0.1,0,0.1,0c0,0,0.1,0,0.1,0c0.1,0,0.1,0.1,0.2,0.2
				c0.6,2.5,0.2,5.8-0.1,7.5c0,0.1-0.1,0.2-0.3,0.2c0,0-1.2,0-1.2,0S645.3,409.3,645.3,409.3z"/>
			<path fill="#FFFFFF" d="M645.2,401.5c0.5,0.2,1,0.3,1.5,0.3c0.5,0,1-0.1,1.5-0.3c0.6,2.4,0.2,5.7-0.1,7.4c-0.4,0-0.8,0-1.2,0
				c-0.5,0-1,0-1.5,0C645.1,407.3,644.7,404,645.2,401.5 M645.2,401c-0.1,0-0.2,0-0.3,0.1c-0.2,0.1-0.3,0.2-0.3,0.4
				c-0.5,2.5-0.2,5.9,0.1,7.7c0,0.3,0.3,0.5,0.6,0.5c0,0,0,0,0,0c0.5,0,1,0,1.5,0c0.4,0,0.7,0,1.1,0l0.1,0c0,0,0,0,0,0
				c0.3,0,0.5-0.2,0.6-0.5c0.3-1.8,0.7-5.2,0.1-7.7c0-0.2-0.2-0.3-0.3-0.4c-0.1,0-0.2-0.1-0.3-0.1c-0.1,0-0.2,0-0.2,0
				c-0.4,0.2-0.8,0.3-1.2,0.3c-0.4,0-0.8-0.1-1.2-0.3C645.4,401,645.3,401,645.2,401L645.2,401z"/>
		</g>
		<g>
			<g>
				<path fill="#FFFFFF" d="M589.4,486.6c2.7,0,4.5,1.9,5,4.2c0.6,2.6-0.6,5.6-4,6.4c-0.1,0-0.1,0-0.2,0c-0.4,0-0.8-0.3-0.9-0.8
					c-0.1-0.5,0.2-1,0.7-1.2c2.3-0.5,2.9-2.4,2.5-4.1c-0.3-1.4-1.4-2.7-3.1-2.7c-0.3,0-0.6,0-0.9,0.1c-0.1,0-0.1,0-0.2,0
					c-0.4,0-0.8-0.3-0.9-0.8c-0.1-0.5,0.2-1,0.7-1.2C588.5,486.6,589,486.6,589.4,486.6 M589.4,484.2c-0.6,0-1.3,0.1-1.9,0.2
					c-1.8,0.4-2.9,2.2-2.5,4c0.4,1.5,1.7,2.6,3.3,2.6c0.3,0,0.5,0,0.8-0.1c0.1,0,0.3-0.1,0.4-0.1c0.4,0,0.7,0.3,0.8,0.8
					c0.2,1-0.4,1.2-0.8,1.2c-1.8,0.4-2.9,2.2-2.5,4c0.4,1.5,1.7,2.6,3.3,2.6c0.3,0,0.5,0,0.8-0.1c2.2-0.5,4-1.8,5.1-3.7
					c0.9-1.7,1.2-3.6,0.7-5.6C596,486.6,593,484.2,589.4,484.2L589.4,484.2z"/>
			</g>
		</g>
		<circle fill="none" stroke="#FFFFFF" stroke-width="1.2662" stroke-miterlimit="10" cx="646.7" cy="398.2" r="3.7"/>
		<path fill="#FFFFFF" d="M622.9,476.8c-0.1,0.1-0.2,0.2-0.3,0.3c-5.9,6.8-18.1,11.6-28.3,11.3c0.3,0.5,0.5,1.1,0.7,1.6
			c0.2,1,0.2,2.1-0.2,3.1c0.2,0,0.4,0,0.6,0c9.6,0,20.2-3.7,27.2-9.5C622.6,481,622.6,478.6,622.9,476.8z"/>
		<path fill="#FFFFFF" d="M687.4,493.9c0,0.5,0.1,0.9,0.3,1.3c0.8-0.4,1.6-0.6,2.5-0.6c0.6,0,1.2,0.1,1.8,0.3
			c0.1-0.2,0.1-0.4,0.1-0.6c0.6-7.3-2.8-13.8-9.1-17.2c-4.5-2.4-9.5-2.8-13.7-1.2c0.3,1.3,0.5,3,0.7,4.9c3.1-1.5,7.2-1.4,10.7,0.5
			C685.3,483.8,687.8,488.5,687.4,493.9z"/>
		<path fill="none" stroke="#FFFFFF" stroke-width="1.013" stroke-linecap="round" stroke-miterlimit="10" d="M553.6,441.9
			c2.9,2.2,9.5,3.1,12.4,0.9"/>
		<path fill="none" stroke="#FFFFFF" stroke-width="1.013" stroke-linecap="round" stroke-miterlimit="10" d="M527.5,440.3
			c0.8,1.9,7.6,3.8,11.5,1.6"/>
		
			<path fill="none" stroke="#FFFFFF" stroke-width="1.2662" stroke-linecap="round" stroke-linejoin="round" stroke-miterlimit="10" d="
			M533,476.9c0,4.5,4.7,6,7.9,6s8.7-2.6,8.7-7.3"/>
		
			<path fill="none" stroke="#FFFFFF" stroke-width="1.2662" stroke-linecap="round" stroke-linejoin="round" stroke-miterlimit="10" d="
			M586,444.9c2.8,1.7,12.8,10.1,8.7,21c-5.8,15.4-36.4,10.1-23.4,35.4c-4.4-1.1-15-7.7-17.1-18.5c-4.2-22.4,27.7-27.4,27.7-32.3"/>
		
			<path fill="#FFFFFF" stroke="#FFFFFF" stroke-width="1.2662" stroke-linecap="round" stroke-linejoin="round" stroke-miterlimit="10" d="
			M555.8,508.1c-0.4,1.4-0.5,2.8-0.3,4.4c2.1,0,4-0.2,4.1-0.6c0.4-0.4,0.9-1.3,0-2.3C559,508.9,557.4,508.4,555.8,508.1z"/>
		
			<path fill="none" stroke="#FFFFFF" stroke-width="1.2662" stroke-linecap="round" stroke-linejoin="round" stroke-miterlimit="10" d="
			M560.1,411c4.2,19.1,29.6,21.6,17.7,40.1c25.9-15.6,15.7-58.5-13.8-58.5"/>
		<path fill="#FFFFFF" d="M579.9,449.8c0.1,0.1,0.1,0.1,0.2,0.2c2.2,1.8,5.3,1.4,7.1-0.7c1.6-2,1.5-4.8-0.2-6.6
			C585.1,445.3,582.7,447.7,579.9,449.8z"/>
		
			<path fill="none" stroke="#FFFFFF" stroke-width="1.2662" stroke-linecap="round" stroke-linejoin="round" stroke-miterlimit="10" d="
			M545.8,386.1c-41.6,0-60.2,58.8-25.3,84.4c-25.1-43.9,43.6-28.1,43.6-77.7C562,390.3,554.8,386.1,545.8,386.1z"/>
		
			<path fill="none" stroke="#FFFFFF" stroke-width="1.2662" stroke-linecap="round" stroke-linejoin="round" stroke-miterlimit="10" d="
			M532.8,469.9c-0.8,4.5-3.2,9.1-7.7,12.7c2.3-14.7-6.2-16.7-10-27.2"/>
		
			<path fill="#FFFFFF" stroke="#FFFFFF" stroke-width="1.2662" stroke-linecap="round" stroke-linejoin="round" stroke-miterlimit="10" d="
			M550,511.7c0.4,1,9.4,1.1,9.6,0.2c0.4-0.4,0.9-1.3,0-2.3c-1.5-1.7-6.7-2.2-8.8-1.1C549.5,509.3,549.8,511.1,550,511.7z"/>
	</g>
</g>
<g id="Layer_6" display="none">
	
		<path display="inline" opacity="0.5" fill="none" stroke="#00D43D" stroke-width="4" stroke-linecap="round" stroke-linejoin="round" stroke-miterlimit="10" d="
		M293.5,513.9c-11.3-82,27-138.6,94.1-142.7c67.1-4.1,165.4-40.9,108.3-149C422,161.3,172.6,255.7,293.5,513.9z"/>
	
		<path display="inline" fill="none" stroke="#FFFFFF" stroke-width="4" stroke-linecap="round" stroke-linejoin="round" stroke-miterlimit="10" d="
		M564.5,431c0,19-72.7,51.3-103.5,109c-20.3,38-20.9,94.5,10,124c-3.3-54.4-3.4-91,68-122c64.6-28.1,84.1-86.7,46-123"/>
	
		<path display="inline" opacity="0.5" fill="none" stroke="#00D43D" stroke-width="4" stroke-linecap="round" stroke-linejoin="round" stroke-miterlimit="10" d="
		M-230.5,513.9c-11.3-82,27-138.6,94.1-142.7c67.1-4.1,165.4-40.9,108.3-149C-102,161.3-351.4,255.7-230.5,513.9z"/>
	
		<path display="inline" opacity="0.5" fill="none" stroke="#00D43D" stroke-width="4" stroke-linecap="round" stroke-linejoin="round" stroke-miterlimit="10" d="
		M40.5,431c6,20-50.9,23.5-93.6,71.4c-42.8,48-41.5,112.9-10.7,142.4c-3.3-54.4,16.7-65.1,87.7-97.1s84.4-105.7,46.2-142"/>
</g>
</svg>
