<?xml version="1.0" encoding="utf-8"?>
<!-- Generator: Adobe Illustrator 17.1.0, SVG Export Plug-In . SVG Version: 6.00 Build 0)  -->
<!DOCTYPE svg PUBLIC "-//W3C//DTD SVG 1.1//EN" "http://www.w3.org/Graphics/SVG/1.1/DTD/svg11.dtd">
<svg version="1.1" id="Layer_2" xmlns="http://www.w3.org/2000/svg" xmlns:xlink="http://www.w3.org/1999/xlink" x="0px" y="0px"
	 viewBox="0 0 512 256" enable-background="new 0 0 512 256" xml:space="preserve">
<path fill="none" stroke="#FFFFFF" stroke-width="4" stroke-linecap="round" stroke-linejoin="round" stroke-miterlimit="10" d="
	M337.401,150.966c-0.015,3.439,0.174,7.379,0.852,10.916c5.958-0.366,12.3-0.613,18.358-0.681
	c-0.359-2.897-0.552-6.611-0.655-10.072C349.772,151.234,343.514,151.179,337.401,150.966z"/>
<path fill="none" stroke="#FFFFFF" stroke-width="4" stroke-linecap="round" stroke-linejoin="round" stroke-miterlimit="10" d="
	M119.042,105.565c-8.968-17.616-5.125-40.204,7.208-51.721c-0.29-0.275-0.569-0.542-0.876-0.829
	c-17.014-15.904-44.893,3.064-45.124,34.398c-0.349,47.461,57.964,72.864,43.644,109.481c15.165-12.206,22.026-33.567,15.165-50.302
	C134.498,135.466,121.948,121.673,119.042,105.565z"/>
<path fill="none" stroke="#FFFFFF" stroke-width="4" stroke-linecap="round" stroke-linejoin="round" stroke-miterlimit="10" d="
	M246.029,112.015c-0.201-0.427-0.404-0.853-0.62-1.271c-2.946,13.543-10.235,25.458-20.355,34.206
	c2.972,7.103,8.778,14.097,17.823,17.709C231.966,139.319,248.275,134.558,246.029,112.015z"/>
<path fill="none" stroke="#FFFFFF" stroke-width="4" stroke-linecap="round" stroke-linejoin="round" stroke-miterlimit="10" d="
	M212.174,153.571c-8.503,4.28-18.099,6.705-28.268,6.705c-7.999,0-15.642-1.507-22.682-4.227
	c-16.302,15.934-20.229,34.513-15.738,51.003c0.066,0.243,6.338-0.232,6.168-1.255c-1.736-10.412,2.257-28.421,15.097-28.079
	c6.25,0.167,5.333,42,4.667,44.333l17.583,3.833c0,0-5.25-21.25,2.75-21.25s4.618,21.25,4.618,21.25h0.088l19.583-3.833
	c-0.667-2.333-9.75-42.1-1.333-44.333c8.794-2.333,16.044,13.776,29.164,18.917c0.965,0.378,4.053-4.339,3.868-4.51
	C231.197,176.731,232.386,165.626,212.174,153.571z"/>
<path fill="none" stroke="#FFFFFF" stroke-width="6" stroke-linecap="round" stroke-miterlimit="10" d="M155.594,111.084
	c4.438,3.491,14.795,2.154,19.233-1.327"/>
<path fill="none" stroke="#FFFFFF" stroke-width="6" stroke-linecap="round" stroke-miterlimit="10" d="M199.978,111.084
	c5.918,3.491,16.552,0.492,17.754-2.437"/>
<path fill="#FFFFFF" stroke="#FFFFFF" stroke-width="3" stroke-linecap="round" stroke-linejoin="round" stroke-miterlimit="10" d="
	M145.054,207.194c0.04,0.327,0.106,0.659,0.199,0.992c0.748,2.683,2.963,4.409,4.946,3.856c1.984-0.553,2.985-3.176,2.237-5.859
	c-0.093-0.333-0.208-0.651-0.343-0.951L145.054,207.194z"/>
<path fill="#FFFFFF" stroke="#FFFFFF" stroke-width="4" stroke-linecap="round" stroke-linejoin="round" stroke-miterlimit="10" d="
	M188.576,223.103c-8.553-3.264-26.677-8.718-26.583,1.004c0.091,9.43,22.191,6.528,27.508,3.264L188.576,223.103z"/>
<path fill="#FFFFFF" stroke="#FFFFFF" stroke-width="4" stroke-linecap="round" stroke-linejoin="round" stroke-miterlimit="10" d="
	M196.917,223.103c8.553-3.264,26.677-8.718,26.583,1.004c-0.091,9.43-22.191,6.528-27.508,3.264L196.917,223.103z"/>
<path fill="none" stroke="#FFFFFF" stroke-width="4" stroke-linecap="round" stroke-linejoin="round" stroke-miterlimit="10" d="
	M407.751,144.572c-23.375,8.812-92.375,8.812-116,0c-8.333-5.521-3-83.375-3-83.375c0-1.553,1.221-2.812,2.727-2.812
	c0,0,28.273-2,58.273-2s58.273,2,58.273,2c1.506,0,2.727,1.259,2.727,2.812C410.751,61.197,415.751,138.052,407.751,144.572z"/>
<circle fill="none" stroke="#FFFFFF" stroke-width="4" stroke-miterlimit="10" cx="319.751" cy="96.885" r="18"/>
<circle fill="none" stroke="#FFFFFF" stroke-width="4" stroke-miterlimit="10" cx="379.751" cy="99.385" r="18"/>
<circle fill="#FFFFFF" cx="313.751" cy="98.885" r="4"/>
<circle fill="#FFFFFF" cx="373.751" cy="101.385" r="4"/>
<path fill="none" stroke="#FFFFFF" stroke-width="4" stroke-linecap="round" stroke-linejoin="round" stroke-miterlimit="10" d="
	M386.751,212.385c-3.333,4-56,10.333-72,1c-4.553-2.656-8.667-44.667-3-48c5.667-3.333,68-7,74-1
	C390.482,169.116,390.084,208.385,386.751,212.385z"/>
<path fill="#FFFFFF" stroke="#FFFFFF" stroke-width="4" stroke-linecap="round" stroke-linejoin="round" stroke-miterlimit="10" d="
	M349.751,228.385c0,1.657-1.343,3-3,3h-18c-1.657,0-3-1.343-3-3v-6c0-1.657,1.343-3,3-3h18c1.657,0,3,1.343,3,3V228.385z"/>
<path fill="#FFFFFF" stroke="#FFFFFF" stroke-width="4" stroke-linecap="round" stroke-linejoin="round" stroke-miterlimit="10" d="
	M379.751,228.385c0,1.657-1.343,3-3,3h-18c-1.657,0-3-1.343-3-3v-6c0-1.657,1.343-3,3-3h18c1.657,0,3,1.343,3,3V228.385z"/>
<g>
	<g>
		<path fill="#FFFFFF" d="M422.751,200.567c4.472,0,9,3.091,9,9c0,0.904-0.733,1.636-1.636,1.636c-0.904,0-1.636-0.733-1.636-1.636
			c0-3.957-2.876-5.727-5.727-5.727c-2.851,0-5.727,1.771-5.727,5.727c0,0.904-0.733,1.636-1.636,1.636s-1.636-0.733-1.636-1.636
			C413.751,203.658,418.279,200.567,422.751,200.567 M422.751,196.567c-6.302,0-13,4.556-13,13c0,3.108,2.528,5.636,5.636,5.636
			s5.636-2.528,5.636-5.636c0-0.561,0-1.727,1.727-1.727c1.727,0,1.727,1.167,1.727,1.727c0,3.108,2.528,5.636,5.636,5.636
			s5.636-2.528,5.636-5.636C435.751,201.123,429.053,196.567,422.751,196.567L422.751,196.567z"/>
	</g>
</g>
<g>
	<path fill="#FFFFFF" d="M347.268,56.89c-0.247,0-0.457-0.18-0.494-0.424c-0.454-2.975-1.085-8.582-0.203-12.718
		c0.031-0.147,0.128-0.272,0.263-0.341c0.07-0.037,0.148-0.055,0.227-0.055c0.069,0,0.139,0.014,0.203,0.043
		c0.73,0.325,1.503,0.489,2.297,0.489c0.778,0,1.535-0.157,2.249-0.466c0.063-0.028,0.132-0.042,0.199-0.042
		c0.077,0,0.153,0.018,0.224,0.053c0.132,0.066,0.229,0.187,0.263,0.331c0.991,4.144,0.278,9.744-0.234,12.713
		c-0.042,0.24-0.25,0.415-0.493,0.415c-0.001,0-2.016-0.004-2.016-0.004S347.269,56.89,347.268,56.89z"/>
	<path fill="#FFFFFF" d="M347.059,43.852c0.765,0.34,1.609,0.533,2.5,0.533c0.87,0,1.698-0.182,2.448-0.508
		c0.97,4.055,0.264,9.59-0.241,12.512c-0.671-0.002-1.342-0.004-2.016-0.004c-0.829,0-1.657,0.002-2.483,0.005
		C346.82,53.462,346.194,47.91,347.059,43.852 M347.059,42.852c-0.156,0-0.312,0.036-0.454,0.109
		c-0.269,0.137-0.461,0.388-0.524,0.683c-0.899,4.216-0.262,9.89,0.198,12.897c0.075,0.488,0.495,0.849,0.988,0.849
		c0.001,0,0.002,0,0.004,0c0.825-0.003,1.651-0.005,2.479-0.005c0.604,0,1.206,0.002,1.807,0.004l0.205,0.001
		c0.001,0,0.002,0,0.003,0c0.486,0,0.902-0.35,0.985-0.83c0.52-3.006,1.241-8.682,0.229-12.915c-0.069-0.287-0.261-0.53-0.525-0.662
		c-0.141-0.07-0.294-0.106-0.447-0.106c-0.135,0-0.271,0.027-0.398,0.082c-0.651,0.282-1.341,0.425-2.051,0.425
		c-0.723,0-1.427-0.15-2.094-0.446C347.336,42.881,347.198,42.852,347.059,42.852L347.059,42.852z"/>
</g>
<path fill="#FFFFFF" stroke="#FFFFFF" stroke-width="3" stroke-linecap="round" stroke-linejoin="round" stroke-miterlimit="10" d="
	M243.974,197.569c0.244,0.222,0.51,0.431,0.797,0.623c2.315,1.548,5.12,1.415,6.265-0.297c1.145-1.712,0.196-4.355-2.12-5.903
	c-0.287-0.192-0.582-0.358-0.88-0.498L243.974,197.569z"/>
<g>
	<g>
		<path fill="#FFFFFF" d="M253.981,185.808c4.51,0,7.61,3.271,8.476,7.016c1.007,4.357-0.985,9.465-6.742,10.796
			c-0.124,0.029-0.248,0.042-0.37,0.042c-0.745,0-1.418-0.512-1.593-1.268c-0.203-0.88,0.345-1.759,1.226-1.963
			c3.855-0.891,4.932-4.092,4.29-6.87c-0.549-2.376-2.365-4.479-5.293-4.479c-0.494,0-1.02,0.06-1.577,0.189
			c-0.124,0.029-0.248,0.042-0.37,0.042c-0.745,0-1.418-0.512-1.593-1.268c-0.203-0.88,0.345-1.759,1.226-1.963
			C252.469,185.896,253.244,185.808,253.981,185.808 M253.981,181.808c-1.055,0-2.139,0.127-3.221,0.377
			c-3.028,0.7-4.922,3.733-4.222,6.761c0.594,2.572,2.852,4.368,5.49,4.368c0.426,0,0.854-0.049,1.271-0.145
			c0.247-0.057,0.474-0.086,0.676-0.086c0.714,0,1.184,0.464,1.396,1.38c0.389,1.683-0.748,1.946-1.294,2.072
			c-3.028,0.7-4.922,3.733-4.222,6.761c0.594,2.572,2.852,4.367,5.49,4.367c0.426,0,0.854-0.049,1.271-0.145
			c3.759-0.869,6.782-3.083,8.513-6.234c1.538-2.801,1.973-6.124,1.226-9.359C264.955,185.874,259.983,181.808,253.981,181.808
			L253.981,181.808z"/>
	</g>
</g>
<path fill="none" stroke="#FFFFFF" stroke-width="4" stroke-linecap="round" stroke-linejoin="round" stroke-miterlimit="10" d="
	M122.49,111.188c6.324,28.095,31.41,49.089,61.416,49.089c30.157,0,55.348-21.204,61.514-49.512"/>
<path fill="none" stroke="#FFFFFF" stroke-width="4" stroke-linecap="round" stroke-linejoin="round" stroke-miterlimit="10" d="
	M140.354,45.988c-6.67,24.273,26.076,40.5,56.035,39.946s55.85,17.384,53.261,47.713C292.185,46.358,179.745-7.643,140.354,45.988z"
	/>
<path fill="none" stroke="#FFFFFF" stroke-width="4" stroke-linejoin="round" stroke-miterlimit="10" d="M152.864,74.093
	c-9.774-6.795-15.394-16.187-12.708-27.316c-30.17,5.31-38.404,60.041-1.466,77.784C125.977,103.257,146.938,90.422,152.864,74.093z
	"/>
<path fill="#FFFFFF" stroke="#FFFFFF" stroke-width="4" stroke-linecap="round" stroke-linejoin="round" stroke-miterlimit="10" d="
	M130.105,50.796c-0.002-0.003-0.003-0.005-0.005-0.008c-7.27-10.84-27.518,14.724-14.649,22.524
	C117.715,63.877,122.806,55.608,130.105,50.796z"/>
<circle fill="none" stroke="#FFFFFF" stroke-width="4" stroke-miterlimit="10" cx="349.559" cy="38.218" r="6.167"/>
<path fill="#FFFFFF" d="M309.567,170.623c-0.176,0.143-0.348,0.295-0.501,0.472c-9.923,11.413-30.426,19.539-47.729,18.962
	c0.512,0.86,0.895,1.796,1.12,2.768c0.399,1.726,0.319,3.567-0.271,5.247c0.32,0.005,0.638,0.017,0.959,0.017
	c16.208,0,34.006-6.316,45.883-15.932C308.922,177.734,309.075,173.668,309.567,170.623z"/>
<path fill="#FFFFFF" d="M418.099,199.382c-0.066,0.776,0.105,1.514,0.437,2.16c1.307-0.643,2.763-0.975,4.215-0.975
	c1.044,0,2.088,0.175,3.08,0.509c0.117-0.324,0.209-0.66,0.239-1.02c1.045-12.356-4.706-23.171-15.383-28.928
	c-7.515-4.052-15.95-4.706-23.049-2.087c0.503,2.24,0.882,5.076,1.15,8.225c5.22-2.584,12.126-2.32,18.102,0.903
	C414.676,182.368,418.866,190.298,418.099,199.382z"/>
</svg>
