<?xml version="1.0" encoding="utf-8"?>
<!-- Generator: Adobe Illustrator 17.1.0, SVG Export Plug-In . SVG Version: 6.00 Build 0)  -->
<!DOCTYPE svg PUBLIC "-//W3C//DTD SVG 1.1//EN" "http://www.w3.org/Graphics/SVG/1.1/DTD/svg11.dtd">
<svg version="1.1" id="Layer_2" xmlns="http://www.w3.org/2000/svg" xmlns:xlink="http://www.w3.org/1999/xlink" x="0px" y="0px"
	 viewBox="0 0 128 128" enable-background="new 0 0 128 128" xml:space="preserve">
<g>
	<path fill="#FFFF00" d="M70,79H54c-11.6,0-21-9.4-21-21V28c0-1.7,1.3-3,3-3s3,1.3,3,3v30c0,8.3,6.7,15,15,15h16c8.3,0,15-6.7,15-15
		V28c0-1.7,1.3-3,3-3s3,1.3,3,3v30C91,69.6,81.6,79,70,79z"/>
</g>
<path fill="#FFFF00" d="M38,53c0,1.1-0.9,2-2,2h-4c-1.1,0-2-0.9-2-2v-6c0-1.1,0.9-2,2-2h4c1.1,0,2,0.9,2,2V53z"/>
<path fill="#FFFF00" d="M94,53c0,1.1-0.9,2-2,2h-4c-1.1,0-2-0.9-2-2v-6c0-1.1,0.9-2,2-2h4c1.1,0,2,0.9,2,2V53z"/>
<path fill="#FFFF00" d="M76,96c0,1.1-0.9,2-2,2H50c-1.1,0-2-0.9-2-2v-4c0-1.1,0.9-2,2-2h24c1.1,0,2,0.9,2,2V96z"/>
<path fill="#FFFF00" d="M68,120c0,1.1-0.9,2-2,2h-8c-1.1,0-2-0.9-2-2V96c0-1.1,0.9-2,2-2h8c1.1,0,2,0.9,2,2V120z"/>
<rect x="48" y="90" fill="#FFFF00" width="28" height="4"/>
<rect x="48" y="76" fill="#FFFF00" width="28" height="12"/>
<path fill="#FFFF00" d="M70,54c0-1.1,0.9-2,2-2h10v-4H72c-1.1,0-2-0.9-2-2c0-1.1,0.9-2,2-2h8v-4h-8c-1.1,0-2-0.9-2-2
	c0-1.1,0.9-2,2-2h8v-4h-8c-1.1,0-2-0.9-2-2c0-1.1,0.9-2,2-2h8v-4h-8c-1.1,0-2-0.9-2-2c0-1.1,0.9-2,2-2h8v-2c0-5.5-4.5-10-10-10H54
	c-5.5,0-10,4.5-10,10v2h8c1.1,0,2,0.9,2,2c0,1.1-0.9,2-2,2h-8v4h8c1.1,0,2,0.9,2,2c0,1.1-0.9,2-2,2h-8v4h8c1.1,0,2,0.9,2,2
	c0,1.1-0.9,2-2,2h-8v4h8c1.1,0,2,0.9,2,2c0,1.1-0.9,2-2,2H42v4h10c1.1,0,2,0.9,2,2c0,1.1-0.9,2-2,2h-8v4c0,5.5,4.5,10,10,10h16
	c5.5,0,10-4.5,10-10v-4h-8C70.9,56,70,55.1,70,54z"/>
<path fill="#FFFF00" d="M96,120c0,1.1-0.9,2-2,2H30c-1.1,0-2-0.9-2-2l0,0c0-1.1,0.9-2,2-2h64C95.1,118,96,118.9,96,120L96,120z"/>
</svg>
