<?xml version="1.0" encoding="utf-8"?>
<!-- Generator: Adobe Illustrator 17.1.0, SVG Export Plug-In . SVG Version: 6.00 Build 0)  -->
<!DOCTYPE svg PUBLIC "-//W3C//DTD SVG 1.1//EN" "http://www.w3.org/Graphics/SVG/1.1/DTD/svg11.dtd">
<svg version="1.1" id="Your_Icon" xmlns="http://www.w3.org/2000/svg" xmlns:xlink="http://www.w3.org/1999/xlink" x="0px" y="0px"
	 viewBox="0 0 99.8 94.5" enable-background="new 0 0 99.8 94.5" xml:space="preserve">
<g opacity="0.1">
	<path fill="#FF003B" d="M44,54.5l-1.6-1.6c-0.6,0.7-0.9,1.5-0.9,2.4c0,0.6,0.1,1.1,0.4,1.6l0,0c0,0,0,0,0,0L39.8,59L27.5,46.7
		c0.2,0.3,0.3,0.7,0.2,1c0.1-0.3,0.1-0.7-0.2-1c0,0,0-0.1-0.1-0.1h0c-0.7-0.7-1.6-1.1-2.5-1.1c-0.9,0-1.8,0.4-2.5,1.1
		c-0.7,0.7-1.1,1.6-1.1,2.5c0,0.9,0.4,1.8,1.1,2.5l25.9,25.9c0,0,0,0,0,0c0,0,0,0.1,0.1,0.1c0.3,0.3,0.4,0.6,0.4,1
		c0,0.3-0.1,0.7-0.4,1c-0.3,0.3-0.6,0.4-1,0.4c-0.3,0-0.7-0.1-1-0.4L20.5,53.8c0,0-0.1-0.1-0.2-0.1c0,0,0,0,0,0c0,0,0,0,0,0h0
		c-0.7-0.7-1.6-1.1-2.5-1.1c-0.9,0-1.8,0.4-2.5,1.1c-0.7,0.7-1,1.6-1,2.5c0,0.9,0.4,1.8,1.1,2.5l13.2,13.2c0.2,0.2,0.5,0.3,0.8,0.3
		c0.3,0,0.6-0.1,0.8-0.3c0.4-0.4,0.4-1.1,0-1.6L16.9,57.1c-0.3-0.3-0.4-0.6-0.4-1c0-0.3,0.1-0.7,0.4-1c0.3-0.3,0.6-0.4,1-0.4
		c0.3,0,0.7,0.1,1,0.4c0,0,0.1,0.1,0.2,0.1c0.2,0.2,0.5,0.2,0.7,0.2c-0.3,0-0.5-0.1-0.7-0.2c0,0,0,0,0,0l25.9,25.9
		c0.7,0.7,1.6,1.1,2.5,1.1c0,0,0,0,0,0c0.9,0,1.8-0.4,2.5-1.1c0.7-0.7,1-1.6,1-2.5c0-0.9-0.4-1.8-1-2.5c0,0,0,0,0,0c0,0,0,0,0,0
		c0,0,0-0.1-0.1-0.1L23.9,50.1c-0.3-0.3-0.4-0.6-0.4-1c0-0.3,0.1-0.7,0.4-1c0.3-0.3,0.6-0.4,1-0.4c0.3,0,0.6,0.1,0.9,0.3
		c-0.2-0.2-0.3-0.5-0.3-0.8c0,0.3,0.1,0.5,0.3,0.8c0,0,0,0,0,0c0,0,0,0.1,0.1,0.1L39,61.4c0.2,0.2,0.5,0.3,0.8,0.3
		c0.3,0,0.6-0.1,0.8-0.3l2.9-2.9c0,0,0,0,0,0l0.7-0.7c0.4-0.4,0.4-1.1,0-1.6c-0.2-0.2-0.5-0.3-0.8-0.3c0.3,0,0.6,0.1,0.8,0.3
		c-0.3-0.3-0.4-0.6-0.4-1C43.7,55,43.8,54.7,44,54.5z M49.8,77.6c0.2-0.2,0.3-0.5,0.3-0.7C50.1,77.1,50,77.4,49.8,77.6z M48.3,76.1
		c-0.2,0.2-0.3,0.5-0.3,0.7C48,76.6,48.1,76.3,48.3,76.1z M42.5,56.3C42.5,56.3,42.5,56.3,42.5,56.3L42.5,56.3L42.5,56.3L42.5,56.3z
		 M42.4,57.7c0,0,0.1,0.1,0.1,0.1c0,0,0,0,0,0C42.5,57.8,42.5,57.8,42.4,57.7z M42.9,58.2C43,58.2,43,58.2,42.9,58.2
		C43,58.2,43,58.2,42.9,58.2z"/>
	<rect x="44.1" y="56.3" fill="#FF003B" width="0" height="0"/>
	<path fill="#FF003B" d="M86.5,32.2c1.1-2,1.6-4.2,1.6-6.4c0-3.4-1.3-6.9-3.9-9.5c-2.6-2.6-6.1-3.9-9.5-3.9c-2.2,0-4.4,0.6-6.4,1.6
		c0,0,0.1,0.1,0.1,0.1l0,0c0,0-0.1-0.1-0.1-0.1c-0.4,0.2-0.7,0.4-1.1,0.6c0,0,0,0,0,0c0.3-0.2,0.7-0.4,1.1-0.6
		c-0.5-0.4-1.1-0.6-1.7-0.6c-1,0-2,0.5-2.7,1.2l0,0c-0.8,0.8-1.2,1.7-1.2,2.7c0,0.6,0.2,1.1,0.6,1.6c0,0,0,0,0,0c0,0,0,0,0,0
		c-1.3,2.1-1.9,4.5-1.9,6.9c0,0.3,0,0.5,0,0.8c0,0,0,0,0,0c0,0,0,0,0,0c-0.1,0-0.1,0.1-0.2,0.2l-19.5,24c-0.4,0.4-0.3,1.1,0.1,1.5
		l0.8,0.8c0,0,0,0,0,0l1.6,1.6c0-0.1,0.1-0.1,0.1-0.2c0.1-0.1,0.2-0.3,0.3-0.4c-0.1,0.2-0.1,0.3-0.3,0.4c-0.1,0.1-0.1,0.1-0.1,0.2
		l0.9,0.9l0,0c0,0,0,0,0,0l0.1,0.1l0,0c0,0,0,0,0,0l0.9,0.9c0.1,0,0.1-0.1,0.2-0.1v0c0.4-0.4,1.1-0.4,1.6,0c0.4,0.4,0.4,1.1,0,1.6
		c0,0,0,0,0,0c0.4-0.4,0.4-1.1,0-1.6c-0.4-0.4-1.1-0.4-1.6,0v0c-0.1,0.1-0.1,0.1-0.2,0.1l0,0c-0.2,0.2-0.5,0.3-0.8,0.3
		c-0.4,0-0.7-0.1-1-0.4c0.4,0.4,0.4,1.1,0,1.6l-0.7,0.7c0.5,0.3,1.1,0.4,1.6,0.4c0,0,0,0,0,0c0.8,0,1.7-0.3,2.4-0.9l0,0c0,0,0,0,0,0
		l0.8,0.8c0.2,0.2,0.5,0.3,0.8,0.3c0.2,0,0.5-0.1,0.7-0.2l24-19.5c0.1-0.1,0.1-0.1,0.2-0.2c0.3-0.4,0.3-1,0-1.4c0,0,0,0,0,0
		c0.3,0.4,0.3,1,0,1.4c0.2,0,0.4,0,0.7,0c0,0,0,0,0,0c2.4,0,4.8-0.6,6.9-1.9c-0.1-0.1-0.2-0.1-0.2-0.2l-1.4-1.4
		c-1.6,0.9-3.4,1.3-5.2,1.3c-2.9,0-5.7-1.1-7.9-3.3c-2.2-2.2-3.3-5.1-3.3-7.9c0-1.8,0.4-3.6,1.3-5.2l15.2,15.2l1.4,1.4
		c0.1,0.1,0.1,0.1,0.2,0.2c0.4-0.2,0.7-0.4,1-0.7c0,0,0,0,0,0c-0.3,0.2-0.7,0.5-1,0.7c0.5,0.4,1.1,0.5,1.6,0.5c0,0,0,0,0,0
		c1,0,2-0.5,2.7-1.2c0.8-0.8,1.2-1.7,1.2-2.7C87.1,33.3,86.9,32.7,86.5,32.2C86.5,32.2,86.5,32.2,86.5,32.2z M65.1,35.3
		c1.7,1.7,3.8,2.9,5.9,3.5L49.1,56.5l-2.6-2.6h0l0.1,0.1c0.4,0.4,0.4,1.1,0,1.6c-0.2,0.2-0.5,0.3-0.8,0.3c0,0,0,0,0,0
		c0.3,0,0.6-0.1,0.8-0.3c0.4-0.4,0.4-1.1,0-1.6l-0.1-0.1c0,0,0,0,0,0l-2.6-2.6l17.8-21.8c0,0,0,0,0,0l1.1-1.4
		c0.4-0.5,0.3-1.2-0.2-1.6c-0.2-0.2-0.5-0.3-0.7-0.3c0.3,0,0.5,0.1,0.7,0.3c0.5,0.4,0.5,1.1,0.2,1.6l-1.1,1.4
		C62.3,31.6,63.5,33.6,65.1,35.3z M66,18.6c-0.2,0.3-0.5,0.6-0.7,0.9l0,0c0,0,0,0,0,0l-1.2-1.2c-0.1-0.1-0.2-0.3-0.3-0.5
		c0,0,0,0,0,0c0.1,0.2,0.2,0.3,0.3,0.5l1.2,1.2C65.5,19.2,65.7,18.9,66,18.6l-1.1-1.1c0,0-0.1-0.1-0.1-0.3c0-0.3,0.2-0.8,0.6-1.2
		c0.4-0.4,0.9-0.6,1.2-0.6c0.2,0,0.2,0,0.3,0.1l1.2,1.2c0.3-0.2,0.6-0.4,0.9-0.6l0,0c0,0,0,0,0,0l0,0c-0.3,0.2-0.6,0.4-0.9,0.6
		l15.7,15.7l1.2,1.2c0,0,0.1,0.1,0.1,0.3c0,0.3-0.2,0.8-0.6,1.2c-0.4,0.4-0.9,0.6-1.2,0.6c-0.2,0-0.2,0-0.3-0.1l-1.1-1.1
		c-0.3,0.2-0.6,0.5-0.9,0.7l0,0c0.3-0.2,0.6-0.4,0.9-0.7L66,18.6z M86,33.8c0-0.2-0.1-0.4-0.1-0.6c-0.1-0.1-0.1-0.3-0.3-0.4
		l-1.3-1.3l0,0c0.2-0.3,0.4-0.7,0.5-1L69.9,15.6c0,0,0,0,0,0l0,0c1.5-0.7,3.1-1.1,4.7-1.1c2.9,0,5.7,1.1,7.9,3.3
		c2.2,2.2,3.3,5.1,3.3,7.9c0,1.6-0.4,3.2-1.1,4.7l0,0c-0.2,0.4-0.3,0.7-0.5,1l1.3,1.3c0.1,0.1,0.2,0.2,0.3,0.4
		C86,33.4,86,33.6,86,33.8z"/>
</g>
</svg>
