<?xml version="1.0" encoding="utf-8"?>
<!-- Generator: Adobe Illustrator 17.1.0, SVG Export Plug-In . SVG Version: 6.00 Build 0)  -->
<!DOCTYPE svg PUBLIC "-//W3C//DTD SVG 1.1//EN" "http://www.w3.org/Graphics/SVG/1.1/DTD/svg11.dtd">
<svg version="1.1"
	 id="svg2876" inkscape:version="0.48.2 r9819" sodipodi:docname="sliced_bread.svg" xmlns:cc="http://creativecommons.org/ns#" xmlns:inkscape="http://www.inkscape.org/namespaces/inkscape" xmlns:svg="http://www.w3.org/2000/svg" xmlns:rdf="http://www.w3.org/1999/02/22-rdf-syntax-ns#" xmlns:dc="http://purl.org/dc/elements/1.1/" xmlns:sodipodi="http://sodipodi.sourceforge.net/DTD/sodipodi-0.dtd"
	 xmlns="http://www.w3.org/2000/svg" xmlns:xlink="http://www.w3.org/1999/xlink" x="0px" y="0px" viewBox="-18.4 -14 128 128"
	 enable-background="new -18.4 -14 128 128" xml:space="preserve">
<sodipodi:namedview  inkscape:current-layer="g3015" inkscape:pageshadow="2" inkscape:window-x="-8" inkscape:window-height="738" inkscape:window-width="1280" inkscape:window-maximized="1" inkscape:pageopacity="0" inkscape:window-y="-8" pagecolor="#ffffff" guidetolerance="10" bordercolor="#666666" objecttolerance="10" inkscape:cx="61.286872" inkscape:cy="46.023245" inkscape:zoom="2.6641777" gridtolerance="10" showgrid="false" borderopacity="1" id="namedview2888">
	</sodipodi:namedview>
<defs>
	
	
		<inkscape:perspective  inkscape:persp3d-origin="44.29134 : 29.52756 : 1" inkscape:vp_y="0 : 1000 : 0" inkscape:vp_z="88.58268 : 44.29134 : 1" sodipodi:type="inkscape:persp3d" inkscape:vp_x="0 : 44.29134 : 1" id="perspective2892">
		</inkscape:perspective>
	
		<inkscape:perspective  inkscape:persp3d-origin="45 : 33.333333 : 1" inkscape:vp_y="0 : 1000 : 0" inkscape:vp_z="90 : 50 : 1" sodipodi:type="inkscape:persp3d" inkscape:vp_x="0 : 50 : 1" id="perspective3682">
		</inkscape:perspective>
	
		<inkscape:perspective  inkscape:persp3d-origin="44.29134 : 29.52756 : 1" inkscape:vp_y="0 : 1000 : 0" inkscape:vp_z="88.58268 : 44.29134 : 1" sodipodi:type="inkscape:persp3d" inkscape:vp_x="0 : 44.29134 : 1" id="perspective3743">
		</inkscape:perspective>
	
		<inkscape:perspective  inkscape:persp3d-origin="44.29134 : 29.52756 : 1" inkscape:vp_y="0 : 1000 : 0" inkscape:vp_z="88.58268 : 44.29134 : 1" sodipodi:type="inkscape:persp3d" inkscape:vp_x="0 : 44.29134 : 1" id="perspective3769">
		</inkscape:perspective>
</defs>
<path id="path3258" inkscape:connector-curvature="0" opacity="0.9" fill="none" stroke="#FFFFFF" stroke-width="2" stroke-linecap="round" stroke-linejoin="round" stroke-miterlimit="10" d="
	M35.4,77.2l33.4-41.7l-11.3-7.9L29.7,73.3L35.4,77.2L35.4,77.2z"/>
<path id="path3250" inkscape:connector-curvature="0" opacity="0.9" fill="#FFFFFF" stroke="#FFFFFF" stroke-width="2" stroke-linecap="round" stroke-linejoin="round" stroke-miterlimit="10" d="
	M9.8,86.9c1.9-3.4,4.5-5.9,8.5-6.3c2.3-0.2,5.1,0.5,7.1,0c1.2-0.3,2.1-1,2.8-2l1-1.4l2.8,1.9l-1,1.4c-1.3,1.9-2.9,3.1-5.2,3.5
	c-2.5,0.5-4.8-0.2-7.2,0c-2.9,0.3-4.6,2.3-5.9,4.6l-0.9,1.5l-3-1.7L9.8,86.9L9.8,86.9z"/>
<path id="path3229" inkscape:connector-curvature="0" opacity="0.9" fill="none" stroke="#FFFFFF" stroke-width="2" stroke-linecap="round" stroke-linejoin="round" stroke-miterlimit="10" d="
	M80.1,28.8c3.8-5.4,2.5-12.9-3-16.8c-5.4-3.8-12.9-2.5-16.8,3c-1.5,2.1-2.2,4.5-2.2,6.9l16.2,11.3C76.6,32.4,78.6,30.9,80.1,28.8z"
	/>
<circle opacity="0.9" fill="none" stroke="#FFFFFF" stroke-width="2" stroke-linecap="round" stroke-linejoin="round" stroke-miterlimit="10" cx="74.7" cy="17.6" r="2.4"/>
<circle opacity="0.9" fill="none" stroke="#FFFFFF" stroke-width="2" stroke-linecap="round" stroke-linejoin="round" stroke-miterlimit="10" cx="77.1" cy="23.9" r="1.6"/>
</svg>
