<svg width="1024" height="640" viewBox="0 0 1024 640" version="1.1" xmlns="http://www.w3.org/2000/svg" xmlns:xlink="http://www.w3.org/1999/xlink">
<title>robotodex</title>
<desc>Created using Figma</desc>
<g id="Canvas" transform="translate(-6572 -574)">
<g id="robotodex">
<path d="M 6572 574L 7596 574L 7596 1214L 6572 1214L 6572 574Z" fill="#D1D1D5"/>
<g id="Rectangle">
<use xlink:href="#path0_fill" transform="translate(6572 574)" fill="#C6C6CB"/>
</g>
<g id="Rectangle 2">
<use xlink:href="#path1_fill" transform="translate(6907 882)" fill="#FFFFFF"/>
</g>
<g id="Group 2">
<g id="Group">
<g id="Group">
<g id="Vector">
<use xlink:href="#path2_fill" transform="translate(6901 875.851)" fill="#3E3B3B"/>
</g>
</g>
</g>
<g id="Group">
<g id="Vector">
<use xlink:href="#path3_fill" transform="translate(6929.05 858.531)" fill="#FFFFFF"/>
</g>
<g id="Vector">
<use xlink:href="#path4_fill" transform="translate(6923.71 853.206)" fill="#3E3B3B"/>
</g>
</g>
<g id="Vector">
<use xlink:href="#path5_fill" transform="translate(7105.38 858.535)" fill="#FFFFFF"/>
</g>
<g id="Vector">
<use xlink:href="#path6_fill" transform="translate(7100.04 853.206)" fill="#3E3B3B"/>
</g>
<g id="Group">
<g id="Vector">
<use xlink:href="#path7_fill" transform="translate(6975.13 897.174)" fill="#3E3B3B"/>
</g>
</g>
<g id="Group">
<g id="Vector">
<use xlink:href="#path8_fill" transform="translate(7159.48 905.17)" fill="#3E3B3B"/>
</g>
</g>
<g id="Group">
<g id="Vector">
<use xlink:href="#path9_fill" transform="translate(7015.88 707.325)" fill="#3E3B3B"/>
</g>
</g>
<g id="Group">
<g id="Vector">
<use xlink:href="#path10_fill" transform="translate(7078.01 726.319)" fill="#3E3B3B"/>
</g>
</g>
<g id="Group">
<g id="Vector">
<use xlink:href="#path11_fill" transform="translate(7004.52 689.994)" fill="#FFFFFF"/>
</g>
<g id="Vector">
<use xlink:href="#path12_fill" transform="translate(7000.52 686)" fill="#3E3B3B"/>
</g>
</g>
<g id="Group">
<g id="Vector">
<use xlink:href="#path13_fill" transform="translate(7173.29 713.087)" fill="#FFFFFF"/>
</g>
<g id="Vector">
<use xlink:href="#path14_fill" transform="translate(7169.28 709.091)" fill="#3E3B3B"/>
</g>
</g>
<g id="Group">
<g id="Vector">
<use xlink:href="#path15_fill" transform="translate(7025.94 1029.95)" fill="#3E3B3B"/>
</g>
</g>
</g>
</g>
</g>
<defs>
<path id="path0_fill" d="M 0 0L 1024 0L 1024 640L 0 640L 0 0Z"/>
<path id="path1_fill" d="M 0 0L 354 0L 354 214L 0 214L 0 0Z"/>
<path id="path2_fill" d="M 355.317 10.657L 355.317 214.494L 10.6854 214.494L 10.6854 10.657L 355.317 10.657ZM 355.317 -7.82292e-06L 10.6854 -7.82292e-06C 4.7814 -7.82292e-06 -1.984e-05 4.77248 -1.984e-05 10.657L -1.984e-05 214.494C -1.984e-05 220.38 4.78329 225.149 10.6854 225.149L 355.315 225.149C 361.219 225.149 366 220.38 366 214.494L 366 10.657C 366.002 4.7706 361.221 -7.82292e-06 355.317 -7.82292e-06Z"/>
<path id="path3_fill" d="M 66.1228 131.895C 102.641 131.895 132.246 102.37 132.246 65.9476C 132.246 29.5258 102.641 0 66.1228 0C 29.6042 0 0 29.5258 0 65.9476C 0 102.37 29.6042 131.895 66.1228 131.895Z"/>
<path id="path4_fill" d="M 71.4674 142.549C 32.0598 142.549 7.8437e-06 110.574 7.8437e-06 71.2724C 7.8437e-06 31.9711 32.0598 6.67249e-06 71.4674 6.67249e-06C 110.873 6.67249e-06 142.929 31.973 142.929 71.2724C 142.929 110.576 110.873 142.549 71.4674 142.549ZM 71.4674 10.657C 37.9524 10.657 10.6853 37.8481 10.6853 71.2724C 10.6853 104.697 37.9524 131.891 71.4674 131.891C 104.98 131.891 132.246 104.697 132.246 71.2724C 132.246 37.85 104.98 10.657 71.4674 10.657Z"/>
<path id="path5_fill" d="M 66.119 131.888C 102.636 131.888 132.238 102.364 132.238 65.9439C 132.238 29.5241 102.636 0 66.119 0C 29.6025 0 -1.38418e-05 29.5241 -1.38418e-05 65.9439C -1.38418e-05 102.364 29.6025 131.888 66.119 131.888Z"/>
<path id="path6_fill" d="M 71.4617 142.549C 32.056 142.549 -5.99813e-06 110.574 -5.99813e-06 71.2724C -5.99813e-06 31.9711 32.0579 6.67249e-06 71.4617 6.67249e-06C 110.865 6.67249e-06 142.922 31.973 142.922 71.2724C 142.923 110.576 110.867 142.549 71.4617 142.549ZM 71.4617 10.657C 37.9486 10.657 10.6872 37.8481 10.6872 71.2724C 10.6872 104.697 37.9486 131.891 71.4617 131.891C 104.975 131.891 132.238 104.697 132.238 71.2724C 132.238 37.85 104.975 10.657 71.4617 10.657Z"/>
<path id="path7_fill" d="M 15.0283 29.9769C 23.3281 29.9769 30.0565 23.2663 30.0565 14.9884C 30.0565 6.71055 23.3281 0 15.0283 0C 6.72839 0 1.84558e-05 6.71055 1.84558e-05 14.9884C 1.84558e-05 23.2663 6.72839 29.9769 15.0283 29.9769Z"/>
<path id="path8_fill" d="M 15.0282 29.9769C 23.3281 29.9769 30.0565 23.2663 30.0565 14.9884C 30.0565 6.71055 23.3281 7.13267e-06 15.0282 7.13267e-06C 6.72836 7.13267e-06 -1.38418e-05 6.71055 -1.38418e-05 14.9884C -1.38418e-05 23.2663 6.72836 29.9769 15.0282 29.9769Z"/>
<path id="path9_fill" d="M 64.1161 175.857C 62.4719 175.857 60.9259 174.835 60.342 173.203L 0.23463 5.34253C -0.509979 3.26353 0.576677 0.975304 2.65931 0.234553C 4.7325 -0.509969 7.03819 0.5776 7.78091 2.65284L 67.8882 170.511C 68.6347 172.592 67.5462 174.879 65.4654 175.621C 65.0194 175.781 64.5621 175.857 64.1161 175.857Z"/>
<path id="path10_fill" d="M 4.00554 156.514C 3.24392 156.514 2.47288 156.301 1.79252 155.847C -0.0519915 154.627 -0.554699 152.147 0.668047 150.307L 99.4894 1.78908C 100.716 -0.0524297 103.201 -0.553806 105.042 0.667586C 106.886 1.88898 107.389 4.36946 106.166 6.20909L 7.34494 154.725C 6.57576 155.886 5.30388 156.514 4.00554 156.514Z"/>
<path id="path11_fill" d="M 12.0215 23.9792C 18.6608 23.9792 24.0429 18.6113 24.0429 11.9896C 24.0429 5.36794 18.6608 0 12.0215 0C 5.3822 0 2.21469e-05 5.36794 2.21469e-05 11.9896C 2.21469e-05 18.6113 5.3822 23.9792 12.0215 23.9792Z"/>
<path id="path12_fill" d="M 16.028 31.9692C 7.18908 31.9692 -2.62995e-05 24.7973 -2.62995e-05 15.9818C -2.62995e-05 7.16814 7.18908 1.20795e-06 16.028 1.20795e-06C 24.8669 1.20795e-06 32.0541 7.17003 32.0541 15.9818C 32.0541 24.7992 24.8669 31.9692 16.028 31.9692ZM 16.028 7.99371C 11.6095 7.99371 8.01307 11.5768 8.01307 15.9837C 8.01307 20.3905 11.6095 23.9774 16.028 23.9774C 20.4465 23.9774 24.0429 20.3905 24.0429 15.9837C 24.0429 11.5768 20.4465 7.99371 16.028 7.99371Z"/>
<path id="path13_fill" d="M 12.0214 23.9792C 18.6607 23.9792 24.043 18.6113 24.043 11.9896C 24.043 5.36794 18.6607 0 12.0214 0C 5.38217 0 -1.43032e-05 5.36794 -1.43032e-05 11.9896C -1.43032e-05 18.6113 5.38217 23.9792 12.0214 23.9792Z"/>
<path id="path14_fill" d="M 16.028 31.973C 7.18717 31.973 8.3051e-06 24.7992 8.3051e-06 15.9855C 8.3051e-06 7.17002 7.18905 1.72564e-07 16.028 1.72564e-07C 24.865 1.72564e-07 32.0541 7.17002 32.0541 15.9855C 32.0541 24.801 24.8631 31.973 16.028 31.973ZM 16.028 7.99183C 11.6095 7.99183 8.01304 11.5768 8.01304 15.9855C 8.01304 20.3942 11.6095 23.9792 16.028 23.9792C 20.4465 23.9792 24.0411 20.3942 24.0411 15.9855C 24.0411 11.5787 20.4465 7.99183 16.028 7.99183Z"/>
<path id="path15_fill" d="M 51.4438 30.0091C 30.5267 30.0091 11.0573 22.5507 0.988067 8.41989C -0.722267 6.02234 -0.155262 2.69365 2.24865 0.987852C 4.65824 -0.719835 7.99006 -0.158131 9.6985 2.24507C 23.8291 22.0757 63.2234 25.2367 90.755 8.75728C 93.2856 7.23243 96.5702 8.05987 98.0859 10.5837C 99.6054 13.1057 98.787 16.3815 96.2565 17.8951C 82.5927 26.0716 66.6346 30.0091 51.4438 30.0091Z"/>
</defs>
</svg>
