<svg width="1024" height="640" viewBox="0 0 1024 640" fill="none" xmlns="http://www.w3.org/2000/svg">
<g id="soundsradcakes">
<rect id="Rectangle" width="1024" height="640" fill="#F5FA1C"/>
<g id="soundsradcakes-logo">
<path id="Vector" d="M710.689 410.712C703.337 410.712 697.376 404.76 697.376 397.42V317.669C697.376 215.061 613.769 131.584 511.001 131.584C408.232 131.584 324.626 215.061 324.626 317.669V397.42C324.626 404.76 318.665 410.712 311.313 410.712C303.961 410.712 298 404.76 298 397.42V317.669C298 200.403 393.552 105 511.001 105C628.45 105 724 200.401 724 317.668V397.418C724 404.76 718.04 410.712 710.689 410.712ZM404.5 463.879V330.962C404.5 323.621 398.539 317.669 391.187 317.669H364.563C357.211 317.669 351.25 323.621 351.25 330.962V463.879C351.25 471.219 357.211 477.171 364.563 477.171H391.187C398.539 477.17 404.5 471.219 404.5 463.879ZM670.75 463.879V330.962C670.75 323.621 664.789 317.669 657.437 317.669H630.813C623.461 317.669 617.5 323.621 617.5 330.962V463.879C617.5 471.219 623.461 477.171 630.813 477.171H657.437C664.79 477.17 670.75 471.219 670.75 463.879Z" fill="white"/>
<path id="Vector_2" d="M602.712 419.913C602.712 402.767 590.131 388.559 573.685 385.98C577.487 381.123 579.773 375.025 579.773 368.382C579.773 352.57 566.936 339.753 551.1 339.753H543.4C544.669 336.17 545.366 332.318 545.366 328.302C545.366 309.328 529.961 293.948 510.958 293.948C510.958 312.921 491.842 322.576 476.55 328.302C458.757 334.964 442.143 343.683 442.143 362.656C442.143 371.508 445.497 379.575 451.005 385.668C433.222 386.999 419.204 401.817 419.204 419.913C419.204 438.314 433.694 453.334 451.903 454.224L458.277 527.195C458.572 530.598 461.425 532.995 464.844 532.995H557.159C560.578 532.995 563.431 530.598 563.726 527.195L570.1 454.115C588.268 453.182 602.712 438.285 602.712 419.913Z" fill="white"/>
</g>
</g>
</svg>
