<svg width="1024" height="640" viewBox="0 0 1024 640" version="1.1" xmlns="http://www.w3.org/2000/svg" xmlns:xlink="http://www.w3.org/1999/xlink">
<title>Swiss</title>
<desc>Created using Figma</desc>
<g id="Canvas" transform="translate(-3131 244)">
<g id="Swiss">
<g id="Rectangle">
<use xlink:href="#path0_fill" transform="translate(3131 -244)" fill="#0C0C0F"/>
</g>
<g id="Swiss">
<use xlink:href="#path1_fill" transform="translate(3212.27 -148)" fill="#FFFFFF"/>
</g>
<g id="Ellipse">
<use xlink:href="#path2_fill" transform="translate(3212 238)" fill="#FFEB3B"/>
</g>
<g id="Ellipse">
<use xlink:href="#path2_fill" transform="translate(3342 238)" fill="#FFEB3B"/>
</g>
<g id="Line">
<use xlink:href="#path3_stroke" transform="translate(3212.27 172.25)" fill="#FFFFFF"/>
</g>
<g id="Logo">
<use xlink:href="#path4_fill" transform="translate(3472 238)" fill="#FFFFFF"/>
</g>
</g>
</g>
<defs>
<path id="path0_fill" d="M 0 0L 1024 0L 1024 640L 0 640L 0 0Z"/>
<path id="path1_fill" d="M 33.792 141.496L 4.608 141.496C 4.48 149.944 6.016 157.24 9.216 163.384C 12.416 169.528 16.704 174.584 22.08 178.552C 27.584 182.52 33.856 185.4 40.896 187.192C 48.064 189.112 55.424 190.072 62.976 190.072C 72.32 190.072 80.512 188.984 87.552 186.808C 94.72 184.632 100.672 181.624 105.408 177.784C 110.272 173.816 113.92 169.144 116.352 163.768C 118.784 158.392 120 152.568 120 146.296C 120 138.616 118.336 132.344 115.008 127.48C 111.808 122.488 107.968 118.52 103.488 115.576C 99.008 112.632 94.464 110.52 89.856 109.24C 85.376 107.832 81.856 106.872 79.296 106.36C 70.72 104.184 63.744 102.392 58.368 100.984C 53.12 99.576 48.96 98.168 45.888 96.76C 42.944 95.352 40.96 93.816 39.936 92.152C 38.912 90.488 38.4 88.312 38.4 85.624C 38.4 82.68 39.04 80.248 40.32 78.328C 41.6 76.408 43.2 74.808 45.12 73.528C 47.168 72.248 49.408 71.352 51.84 70.84C 54.272 70.328 56.704 70.072 59.136 70.072C 62.848 70.072 66.24 70.392 69.312 71.032C 72.512 71.672 75.328 72.76 77.76 74.296C 80.192 75.832 82.112 77.944 83.52 80.632C 85.056 83.32 85.952 86.712 86.208 90.808L 115.392 90.808C 115.392 82.872 113.856 76.152 110.784 70.648C 107.84 65.016 103.808 60.408 98.688 56.824C 93.568 53.24 87.68 50.68 81.024 49.144C 74.496 47.48 67.648 46.648 60.48 46.648C 54.336 46.648 48.192 47.48 42.048 49.144C 35.904 50.808 30.4 53.368 25.536 56.824C 20.672 60.28 16.704 64.632 13.632 69.88C 10.688 75 9.216 81.08 9.216 88.12C 9.216 94.392 10.368 99.768 12.672 104.248C 15.104 108.6 18.24 112.248 22.08 115.192C 25.92 118.136 30.272 120.568 35.136 122.488C 40 124.28 44.992 125.816 50.112 127.096C 55.104 128.504 60.032 129.784 64.896 130.936C 69.76 132.088 74.112 133.432 77.952 134.968C 81.792 136.504 84.864 138.424 87.168 140.728C 89.6 143.032 90.816 146.04 90.816 149.752C 90.816 153.208 89.92 156.088 88.128 158.392C 86.336 160.568 84.096 162.296 81.408 163.576C 78.72 164.856 75.84 165.752 72.768 166.264C 69.696 166.648 66.816 166.84 64.128 166.84C 60.16 166.84 56.32 166.392 52.608 165.496C 48.896 164.472 45.632 163 42.816 161.08C 40.128 159.032 37.952 156.408 36.288 153.208C 34.624 150.008 33.792 146.104 33.792 141.496ZM 248.527 187L 279.824 87.736L 251.792 87.736L 233.551 154.936L 233.167 154.936L 216.271 87.736L 189.775 87.736L 173.263 155.128L 172.879 155.128L 154.64 87.736L 125.84 87.736L 157.328 187L 185.552 187L 202.448 120.376L 202.832 120.376L 220.496 187L 248.527 187ZM 319.463 72.376L 319.463 49.912L 292.198 49.912L 292.198 72.376L 319.463 72.376ZM 292.198 87.736L 292.198 187L 319.463 187L 319.463 87.736L 292.198 87.736ZM 362.051 154.744L 336.13 154.744C 336.386 161.4 337.858 166.968 340.547 171.448C 343.363 175.8 346.883 179.32 351.107 182.008C 355.459 184.696 360.387 186.616 365.891 187.768C 371.394 188.92 377.026 189.496 382.787 189.496C 388.419 189.496 393.923 188.92 399.299 187.768C 404.802 186.744 409.667 184.888 413.89 182.2C 418.115 179.512 421.507 175.992 424.066 171.64C 426.754 167.16 428.099 161.656 428.099 155.128C 428.099 150.52 427.202 146.68 425.41 143.608C 423.619 140.408 421.251 137.784 418.306 135.736C 415.362 133.56 411.97 131.832 408.131 130.552C 404.419 129.272 400.579 128.184 396.611 127.288C 392.771 126.392 388.994 125.56 385.282 124.792C 381.57 124.024 378.243 123.192 375.298 122.296C 372.483 121.272 370.179 119.992 368.386 118.456C 366.595 116.92 365.698 114.936 365.698 112.504C 365.698 110.456 366.21 108.856 367.234 107.704C 368.259 106.424 369.475 105.464 370.882 104.824C 372.418 104.184 374.083 103.8 375.875 103.672C 377.666 103.416 379.331 103.288 380.866 103.288C 385.731 103.288 389.954 104.248 393.539 106.168C 397.122 107.96 399.106 111.48 399.49 116.728L 425.41 116.728C 424.899 110.584 423.299 105.528 420.611 101.56C 418.05 97.464 414.787 94.2 410.819 91.768C 406.85 89.336 402.307 87.608 397.187 86.584C 392.195 85.56 387.01 85.048 381.635 85.048C 376.259 85.048 371.011 85.56 365.891 86.584C 360.77 87.48 356.163 89.144 352.067 91.576C 347.97 93.88 344.642 97.08 342.082 101.176C 339.651 105.272 338.435 110.52 338.435 116.92C 338.435 121.272 339.33 124.984 341.122 128.056C 342.915 131 345.283 133.496 348.227 135.544C 351.17 137.464 354.499 139.064 358.21 140.344C 362.051 141.496 365.955 142.52 369.922 143.416C 379.651 145.464 387.202 147.512 392.579 149.56C 398.082 151.608 400.834 154.68 400.834 158.776C 400.834 161.208 400.259 163.256 399.106 164.92C 397.955 166.456 396.483 167.736 394.69 168.76C 393.026 169.656 391.107 170.36 388.93 170.872C 386.882 171.256 384.898 171.448 382.979 171.448C 380.291 171.448 377.666 171.128 375.106 170.488C 372.675 169.848 370.499 168.888 368.578 167.608C 366.658 166.2 365.059 164.472 363.778 162.424C 362.626 160.248 362.051 157.688 362.051 154.744ZM 465.176 154.744L 439.255 154.744C 439.511 161.4 440.983 166.968 443.672 171.448C 446.488 175.8 450.008 179.32 454.232 182.008C 458.584 184.696 463.512 186.616 469.016 187.768C 474.519 188.92 480.151 189.496 485.912 189.496C 491.544 189.496 497.048 188.92 502.424 187.768C 507.927 186.744 512.792 184.888 517.015 182.2C 521.24 179.512 524.632 175.992 527.191 171.64C 529.879 167.16 531.224 161.656 531.224 155.128C 531.224 150.52 530.327 146.68 528.535 143.608C 526.744 140.408 524.376 137.784 521.431 135.736C 518.487 133.56 515.095 131.832 511.256 130.552C 507.544 129.272 503.704 128.184 499.736 127.288C 495.896 126.392 492.119 125.56 488.407 124.792C 484.695 124.024 481.368 123.192 478.423 122.296C 475.608 121.272 473.304 119.992 471.511 118.456C 469.72 116.92 468.823 114.936 468.823 112.504C 468.823 110.456 469.335 108.856 470.359 107.704C 471.384 106.424 472.6 105.464 474.007 104.824C 475.543 104.184 477.208 103.8 479 103.672C 480.791 103.416 482.456 103.288 483.991 103.288C 488.856 103.288 493.079 104.248 496.664 106.168C 500.247 107.96 502.231 111.48 502.615 116.728L 528.535 116.728C 528.024 110.584 526.424 105.528 523.736 101.56C 521.175 97.464 517.912 94.2 513.944 91.768C 509.975 89.336 505.432 87.608 500.312 86.584C 495.32 85.56 490.135 85.048 484.76 85.048C 479.384 85.048 474.136 85.56 469.016 86.584C 463.895 87.48 459.288 89.144 455.192 91.576C 451.095 93.88 447.767 97.08 445.207 101.176C 442.776 105.272 441.56 110.52 441.56 116.92C 441.56 121.272 442.455 124.984 444.247 128.056C 446.04 131 448.408 133.496 451.352 135.544C 454.295 137.464 457.624 139.064 461.335 140.344C 465.176 141.496 469.08 142.52 473.047 143.416C 482.776 145.464 490.327 147.512 495.704 149.56C 501.207 151.608 503.959 154.68 503.959 158.776C 503.959 161.208 503.384 163.256 502.231 164.92C 501.08 166.456 499.608 167.736 497.815 168.76C 496.151 169.656 494.232 170.36 492.055 170.872C 490.007 171.256 488.023 171.448 486.104 171.448C 483.416 171.448 480.791 171.128 478.231 170.488C 475.8 169.848 473.624 168.888 471.703 167.608C 469.783 166.2 468.184 164.472 466.903 162.424C 465.751 160.248 465.176 157.688 465.176 154.744Z"/>
<path id="path2_fill" d="M 96 48C 96 74.5097 74.5097 96 48 96C 21.4903 96 0 74.5097 0 48C 0 21.4903 21.4903 0 48 0C 74.5097 0 96 21.4903 96 48Z"/>
<path id="path3_stroke" d="M 0 0L 861.46 0L 861.46 -8L 0 -8L 0 0Z"/>
<path id="path4_fill" d="M 48 0C 34.375 0.3125 23.0312 5 13.9688 14.0625C 4.96875 23.0625 0.3125 34.375 0 48C 0.1875 58.75 3.28125 68.1875 9.28125 76.3125C 15.2812 84.4375 23.125 90.1875 32.8125 93.5625C 34 93.75 34.8438 93.5625 35.3438 93C 35.8438 92.5 36.0938 91.9062 36.0938 91.2188L 36 82.3125C 30.125 83.1875 26.0625 82.8438 23.8125 81.2812C 21.5625 79.7188 20.25 78.1562 19.875 76.5938C 19.5625 75.7812 18.9375 74.625 18 73.125C 17.0625 71.625 16.0625 70.5312 15 69.8438C 14 69.3438 13.25 68.7188 12.75 67.9688C 12.3125 67.2188 13.0312 66.8125 14.9062 66.75C 16.7812 66.8125 18.3438 67.4375 19.5938 68.625C 20.9062 69.8125 21.7812 70.8125 22.2188 71.625C 24.5312 75.0625 27.0625 76.8125 29.8125 76.875C 32.5625 76.875 34.6875 76.4688 36.1875 75.6562C 36.4375 74.0938 36.8125 72.7812 37.3125 71.7188C 37.875 70.6562 38.5312 69.8125 39.2812 69.1875C 33.6562 68.8125 28.6562 67.0312 24.2812 63.8438C 19.9062 60.5938 17.5938 54.4688 17.3438 45.4688C 17.4062 42.8438 17.8438 40.4688 18.6562 38.3438C 19.5312 36.2188 20.75 34.3125 22.3125 32.625C 21.9375 32 21.625 30.5625 21.375 28.3125C 21.125 26.0625 21.5938 23.25 22.7812 19.875C 22.7812 19.6875 23.8438 19.75 25.9688 20.0625C 28.0938 20.3125 31.4375 21.9062 36 24.8438C 39.875 23.7812 43.875 23.25 48 23.25C 52.125 23.25 56.125 23.7812 60 24.8438C 64.5625 21.9062 67.9062 20.3125 70.0312 20.0625C 72.1562 19.75 73.2188 19.6875 73.2188 19.875C 74.4062 23.25 74.875 26.0625 74.625 28.3125C 74.375 30.5625 74.0625 32 73.6875 32.625C 75.25 34.3125 76.4375 36.2188 77.25 38.3438C 78.125 40.4688 78.5938 42.8438 78.6562 45.4688C 78.4062 54.4688 76.0625 60.5938 71.625 63.8438C 67.25 67.0312 62.2812 68.8125 56.7188 69.1875C 57.5938 69.9375 58.3438 71.0625 58.9688 72.5625C 59.5938 74 59.9375 75.8438 60 78.0938L 59.9062 91.2188C 59.9062 91.9062 60.1562 92.5 60.6562 93C 61.1562 93.5625 62 93.75 63.1875 93.5625C 72.875 90.1875 80.7188 84.4375 86.7188 76.3125C 92.7188 68.1875 95.8125 58.75 96 48C 95.6875 34.375 91 23.0625 81.9375 14.0625C 72.9375 5 61.625 0.3125 48 0Z"/>
</defs>
</svg>
