<svg width="1024" height="640" viewBox="0 0 1024 640" fill="none" xmlns="http://www.w3.org/2000/svg">
<g id="swiss">
<rect id="Rectangle" width="1024" height="640" fill="#0C0C0F"/>
<g id="Swiss">
<path d="M115.062 237.496H85.878C85.75 245.944 87.286 253.24 90.486 259.384C93.686 265.528 97.974 270.584 103.35 274.552C108.854 278.52 115.126 281.4 122.166 283.192C129.334 285.112 136.694 286.072 144.246 286.072C153.59 286.072 161.782 284.984 168.822 282.808C175.99 280.632 181.942 277.624 186.678 273.784C191.542 269.816 195.19 265.144 197.622 259.768C200.054 254.392 201.27 248.568 201.27 242.296C201.27 234.616 199.606 228.344 196.278 223.48C193.078 218.488 189.238 214.52 184.758 211.576C180.278 208.632 175.734 206.52 171.126 205.24C166.646 203.832 163.126 202.872 160.566 202.36C151.99 200.184 145.014 198.392 139.638 196.984C134.39 195.576 130.23 194.168 127.158 192.76C124.214 191.352 122.23 189.816 121.206 188.152C120.182 186.488 119.67 184.312 119.67 181.624C119.67 178.68 120.31 176.248 121.59 174.328C122.87 172.408 124.47 170.808 126.39 169.528C128.438 168.248 130.678 167.352 133.11 166.84C135.542 166.328 137.974 166.072 140.406 166.072C144.118 166.072 147.51 166.392 150.582 167.032C153.782 167.672 156.598 168.76 159.03 170.296C161.462 171.832 163.382 173.944 164.79 176.632C166.326 179.32 167.222 182.712 167.478 186.808H196.662C196.662 178.872 195.126 172.152 192.054 166.648C189.11 161.016 185.078 156.408 179.958 152.824C174.838 149.24 168.95 146.68 162.294 145.144C155.766 143.48 148.918 142.648 141.75 142.648C135.606 142.648 129.462 143.48 123.318 145.144C117.174 146.808 111.67 149.368 106.806 152.824C101.942 156.28 97.974 160.632 94.902 165.88C91.958 171 90.486 177.08 90.486 184.12C90.486 190.392 91.638 195.768 93.942 200.248C96.374 204.6 99.51 208.248 103.35 211.192C107.19 214.136 111.542 216.568 116.406 218.488C121.27 220.28 126.262 221.816 131.382 223.096C136.374 224.504 141.302 225.784 146.166 226.936C151.03 228.088 155.382 229.432 159.222 230.968C163.062 232.504 166.134 234.424 168.438 236.728C170.87 239.032 172.086 242.04 172.086 245.752C172.086 249.208 171.19 252.088 169.398 254.392C167.606 256.568 165.366 258.296 162.678 259.576C159.99 260.856 157.11 261.752 154.038 262.264C150.966 262.648 148.086 262.84 145.398 262.84C141.43 262.84 137.59 262.392 133.878 261.496C130.166 260.472 126.902 259 124.086 257.08C121.398 255.032 119.222 252.408 117.558 249.208C115.894 246.008 115.062 242.104 115.062 237.496Z" fill="white"/>
<path d="M329.797 283L361.094 183.736H333.061L314.821 250.936H314.437L297.541 183.736H271.045L254.533 251.128H254.149L235.909 183.736H207.109L238.597 283H266.821L283.717 216.376H284.101L301.765 283H329.797Z" fill="white"/>
<path d="M400.732 168.376V145.912H373.468V168.376H400.732ZM373.468 183.736V283H400.732V183.736H373.468Z" fill="white"/>
<path d="M443.32 250.744H417.4C417.656 257.4 419.128 262.968 421.816 267.448C424.632 271.8 428.152 275.32 432.376 278.008C436.728 280.696 441.656 282.616 447.16 283.768C452.664 284.92 458.296 285.496 464.056 285.496C469.688 285.496 475.192 284.92 480.568 283.768C486.072 282.744 490.936 280.888 495.16 278.2C499.384 275.512 502.776 271.992 505.336 267.64C508.024 263.16 509.368 257.656 509.368 251.128C509.368 246.52 508.472 242.68 506.68 239.608C504.888 236.408 502.52 233.784 499.576 231.736C496.632 229.56 493.24 227.832 489.4 226.552C485.688 225.272 481.848 224.184 477.88 223.288C474.04 222.392 470.264 221.56 466.552 220.792C462.84 220.024 459.512 219.192 456.568 218.296C453.752 217.272 451.448 215.992 449.656 214.456C447.864 212.92 446.968 210.936 446.968 208.504C446.968 206.456 447.48 204.856 448.504 203.704C449.528 202.424 450.744 201.464 452.152 200.824C453.688 200.184 455.353 199.8 457.145 199.672C458.936 199.416 460.6 199.288 462.136 199.288C467 199.288 471.224 200.248 474.809 202.168C478.392 203.96 480.376 207.48 480.76 212.728H506.68C506.168 206.584 504.568 201.528 501.88 197.56C499.32 193.464 496.056 190.2 492.089 187.768C488.12 185.336 483.576 183.608 478.456 182.584C473.464 181.56 468.28 181.048 462.904 181.048C457.528 181.048 452.28 181.56 447.16 182.584C442.04 183.48 437.432 185.144 433.336 187.576C429.24 189.88 425.912 193.08 423.352 197.176C420.92 201.272 419.704 206.52 419.704 212.92C419.704 217.272 420.6 220.984 422.392 224.056C424.184 227 426.552 229.496 429.496 231.544C432.44 233.464 435.769 235.064 439.48 236.344C443.321 237.496 447.224 238.52 451.192 239.416C460.92 241.464 468.472 243.512 473.848 245.56C479.352 247.608 482.104 250.68 482.104 254.776C482.104 257.208 481.528 259.256 480.376 260.92C479.224 262.456 477.752 263.736 475.96 264.76C474.296 265.656 472.377 266.36 470.201 266.872C468.153 267.256 466.169 267.448 464.249 267.448C461.561 267.448 458.936 267.128 456.376 266.488C453.944 265.848 451.768 264.888 449.848 263.608C447.928 262.2 446.328 260.472 445.048 258.424C443.896 256.248 443.32 253.688 443.32 250.744Z" fill="white"/>
<path d="M546.445 250.744H520.525C520.781 257.4 522.253 262.968 524.941 267.448C527.757 271.8 531.277 275.32 535.501 278.008C539.853 280.696 544.781 282.616 550.285 283.768C555.789 284.92 561.421 285.496 567.181 285.496C572.813 285.496 578.317 284.92 583.693 283.768C589.197 282.744 594.062 280.888 598.286 278.2C602.51 275.512 605.902 271.992 608.462 267.64C611.15 263.16 612.494 257.656 612.494 251.128C612.494 246.52 611.598 242.68 609.806 239.608C608.014 236.408 605.646 233.784 602.702 231.736C599.758 229.56 596.365 227.832 592.525 226.552C588.813 225.272 584.973 224.184 581.005 223.288C577.165 222.392 573.389 221.56 569.677 220.792C565.965 220.024 562.637 219.192 559.693 218.296C556.877 217.272 554.573 215.992 552.781 214.456C550.989 212.92 550.093 210.936 550.093 208.504C550.093 206.456 550.605 204.856 551.629 203.704C552.653 202.424 553.869 201.464 555.277 200.824C556.813 200.184 558.478 199.8 560.27 199.672C562.061 199.416 563.725 199.288 565.261 199.288C570.125 199.288 574.349 200.248 577.934 202.168C581.517 203.96 583.501 207.48 583.885 212.728H609.806C609.294 206.584 607.693 201.528 605.005 197.56C602.445 193.464 599.181 190.2 595.213 187.768C591.245 185.336 586.701 183.608 581.581 182.584C576.589 181.56 571.405 181.048 566.029 181.048C560.653 181.048 555.405 181.56 550.285 182.584C545.165 183.48 540.557 185.144 536.461 187.576C532.365 189.88 529.037 193.08 526.477 197.176C524.045 201.272 522.829 206.52 522.829 212.92C522.829 217.272 523.725 220.984 525.517 224.056C527.309 227 529.677 229.496 532.621 231.544C535.565 233.464 538.894 235.064 542.605 236.344C546.446 237.496 550.349 238.52 554.317 239.416C564.045 241.464 571.597 243.512 576.973 245.56C582.477 247.608 585.229 250.68 585.229 254.776C585.229 257.208 584.653 259.256 583.501 260.92C582.349 262.456 580.877 263.736 579.085 264.76C577.421 265.656 575.502 266.36 573.326 266.872C571.278 267.256 569.294 267.448 567.374 267.448C564.686 267.448 562.061 267.128 559.501 266.488C557.069 265.848 554.893 264.888 552.973 263.608C551.053 262.2 549.453 260.472 548.173 258.424C547.021 256.248 546.445 253.688 546.445 250.744Z" fill="white"/>
</g>
<circle id="Ellipse" cx="129" cy="530" r="48" fill="#F5FA1C"/>
<circle id="Ellipse_2" cx="259" cy="530" r="48" fill="#F5FA1C"/>
<line id="Line" x1="81.27" y1="412.25" x2="942.73" y2="412.25" stroke="white" stroke-width="8"/>
<path id="Logo" d="M389 482C375.375 482.312 364.031 487 354.969 496.062C345.969 505.062 341.312 516.375 341 530C341.188 540.75 344.281 550.188 350.281 558.312C356.281 566.438 364.125 572.188 373.812 575.562C375 575.75 375.844 575.562 376.344 575C376.844 574.5 377.094 573.906 377.094 573.219L377 564.312C371.125 565.188 367.062 564.844 364.812 563.281C362.562 561.719 361.25 560.156 360.875 558.594C360.562 557.781 359.938 556.625 359 555.125C358.062 553.625 357.062 552.531 356 551.844C355 551.344 354.25 550.719 353.75 549.969C353.312 549.219 354.031 548.812 355.906 548.75C357.781 548.812 359.344 549.438 360.594 550.625C361.906 551.812 362.781 552.812 363.219 553.625C365.531 557.062 368.062 558.812 370.812 558.875C373.562 558.875 375.688 558.469 377.188 557.656C377.438 556.094 377.812 554.781 378.312 553.719C378.875 552.656 379.531 551.812 380.281 551.188C374.656 550.812 369.656 549.031 365.281 545.844C360.906 542.594 358.594 536.469 358.344 527.469C358.406 524.844 358.844 522.469 359.656 520.344C360.531 518.219 361.75 516.312 363.312 514.625C362.938 514 362.625 512.562 362.375 510.312C362.125 508.062 362.594 505.25 363.781 501.875C363.781 501.688 364.844 501.75 366.969 502.062C369.094 502.312 372.438 503.906 377 506.844C380.875 505.781 384.875 505.25 389 505.25C393.125 505.25 397.125 505.781 401 506.844C405.562 503.906 408.906 502.312 411.031 502.062C413.156 501.75 414.219 501.688 414.219 501.875C415.406 505.25 415.875 508.062 415.625 510.312C415.375 512.562 415.062 514 414.688 514.625C416.25 516.312 417.438 518.219 418.25 520.344C419.125 522.469 419.594 524.844 419.656 527.469C419.406 536.469 417.062 542.594 412.625 545.844C408.25 549.031 403.281 550.812 397.719 551.188C398.594 551.938 399.344 553.062 399.969 554.562C400.594 556 400.938 557.844 401 560.094L400.906 573.219C400.906 573.906 401.156 574.5 401.656 575C402.156 575.562 403 575.75 404.188 575.562C413.875 572.188 421.719 566.438 427.719 558.312C433.719 550.188 436.812 540.75 437 530C436.688 516.375 432 505.062 422.938 496.062C413.938 487 402.625 482.312 389 482Z" fill="white"/>
</g>
</svg>
