<svg width="1025" height="640" viewBox="0 0 1025 640" version="1.1" xmlns="http://www.w3.org/2000/svg" xmlns:xlink="http://www.w3.org/1999/xlink">
<title>wkyuan</title>
<desc>Created using Figma</desc>
<g id="Canvas" transform="translate(-1983 244)">
<g id="wkyuan">
<g id="Frame">
<g id="Rectangle">
<use xlink:href="#path0_fill" transform="translate(1983 -244)" fill="#C6C6CB"/>
</g>
<g id="Group 2">
<g id="Ellipse">
<use xlink:href="#path1_fill" transform="matrix(0.944995 0.327083 -0.327312 0.944916 2923.14 -81)" fill="#EAEAEC" fill-opacity="0.3"/>
</g>
<g id="Ellipse">
<use xlink:href="#path2_fill" transform="matrix(0.944996 0.327081 -0.327314 0.944916 2827.07 -28.1156)" fill="#EAEAEC" fill-opacity="0.3"/>
</g>
<g id="Ellipse">
<mask id="mask0_outline_out">
<rect id="mask0_outline_inv" fill="white" x="-1" y="-1" width="75" height="75" transform="matrix(0.944996 0.327082 -0.327314 0.944916 2814.75 -52.3005)"/>
<use xlink:href="#path3_fill" fill="black" transform="matrix(0.944996 0.327082 -0.327314 0.944916 2814.75 -52.3005)"/>
</mask>
<g mask="url(#mask0_outline_out)">
<use xlink:href="#path4_stroke_2x" transform="matrix(0.944996 0.327082 -0.327314 0.944916 2814.75 -52.3005)" fill="#D1D1D5"/>
</g>
</g>
</g>
<g id="Group 2">
<g id="Ellipse">
<use xlink:href="#path5_fill" transform="translate(2189.27 -112)" fill="#EAEAEC" fill-opacity="0.3"/>
</g>
<g id="Ellipse">
<use xlink:href="#path5_fill" transform="translate(2068 -12.303)" fill="#EAEAEC" fill-opacity="0.3"/>
</g>
<g id="Ellipse">
<use xlink:href="#path5_fill" transform="translate(2260.6 101.636)" fill="#EAEAEC" fill-opacity="0.3"/>
</g>
</g>
<g id="Group">
<g id="IMG_7179">
<use xlink:href="#path6_fill" transform="matrix(-1 0 0 1 2583.2 -40.9958)" fill="#0C0C0F"/>
</g>
<g id="Vector 41">
<use xlink:href="#path7_fill" transform="matrix(-1 0 0 1 2433.82 -13.4161)" fill="#0C0C0F"/>
</g>
<g id="Vector 41">
<use xlink:href="#path8_fill" transform="matrix(0.260713 0.965416 0.965679 -0.259738 2548.86 50.7378)" fill="#0C0C0F"/>
</g>
<g id="Vector 42">
<use xlink:href="#path9_fill" transform="matrix(-1 0 0 1 2459.91 -126.534)" fill="#0C0C0F"/>
</g>
<g id="Vector 43">
<use xlink:href="#path10_fill" transform="matrix(-1 0 0 1 2679.77 -14.4177)" fill="#0C0C0F"/>
</g>
<g id="Vector 43">
<use xlink:href="#path11_fill" transform="matrix(-0.920185 0.391484 0.39282 0.919615 2688.11 -87.3481)" fill="#0C0C0F"/>
</g>
<g id="Vector 43">
<use xlink:href="#path12_fill" transform="matrix(0.530163 0.847896 -0.848852 0.52863 2405.98 -181)" fill="#0C0C0F"/>
</g>
<g id="Vector 43">
<use xlink:href="#path13_fill" transform="matrix(0.0540233 0.99854 -0.998551 0.0538068 2484.39 -125.168)" fill="#0C0C0F"/>
</g>
<g id="Vector 43">
<use xlink:href="#path14_fill" transform="matrix(-0.412775 0.910833 0.911455 0.411399 2576.76 -75.5397)" fill="#0C0C0F"/>
</g>
<g id="Vector 44">
<use xlink:href="#path15_fill" transform="matrix(-1 0 0 1 2627.6 37.1043)" fill="#0C0C0F"/>
</g>
<g id="Vector 44">
<use xlink:href="#path16_fill" transform="matrix(0.999089 0.0426769 -0.0428485 0.999082 2386.28 35.7735)" fill="#0C0C0F"/>
</g>
<g id="Vector 44">
<use xlink:href="#path17_fill" transform="matrix(0.997601 -0.0692326 0.0695103 0.997581 2381.58 78.1252)" fill="#0C0C0F"/>
</g>
<g id="Ellipse 18">
<use xlink:href="#path18_fill" transform="matrix(-0.987022 -0.160584 -0.161217 0.986919 2518.79 25.2546)" fill="#FFEB3B"/>
</g>
<g id="Ellipse 19">
<use xlink:href="#path19_fill" transform="matrix(-0.99137 -0.13109 -0.131609 0.991302 2554.17 39.2515)" fill="#FFEB3B"/>
</g>
<g id="Vector 45">
<use xlink:href="#path20_fill" transform="matrix(-1 0 0 1 2404.01 164.103)" fill="#0C0C0F"/>
</g>
<g id="Vector 46">
<use xlink:href="#path21_fill" transform="matrix(-1 0 0 1 2586.13 170.99)" fill="#0C0C0F"/>
</g>
<g id="Vector 47">
<use xlink:href="#path22_fill" transform="matrix(-1 0 0 1 2506.66 252.81)" fill="#0C0C0F"/>
</g>
<g id="Vector 48">
<use xlink:href="#path23_fill" transform="matrix(-1 0 0 1 2467.36 241.652)" fill="#0C0C0F"/>
</g>
</g>
<g id="Union">
<use xlink:href="#path24_fill" transform="translate(1984 272)" fill="#0C0C0F"/>
</g>
</g>
</g>
</g>
<defs>
<path id="path0_fill" d="M 0 0L 1024 0L 1024 640L 0 640L 0 0Z"/>
<path id="path1_fill" d="M 24.1933 12.0929C 24.1933 18.7717 18.7775 24.1859 12.0967 24.1859C 5.41586 24.1859 0 18.7717 0 12.0929C 0 5.4142 5.41586 0 12.0967 0C 18.7775 0 24.1933 5.4142 24.1933 12.0929Z"/>
<path id="path2_fill" d="M 36.2902 18.1394C 36.2902 28.1575 28.1663 36.2788 18.1451 36.2788C 8.12383 36.2788 0 28.1575 0 18.1394C 0 8.12129 8.12383 0 18.1451 0C 28.1663 0 36.2902 8.12129 36.2902 18.1394Z"/>
<path id="path3_fill" d="M 72.5802 36.2788C 72.5802 56.315 56.3326 72.5576 36.2901 72.5576C 16.2476 72.5576 0 56.315 0 36.2788C 0 16.2426 16.2476 0 36.2901 0C 56.3326 0 72.5802 16.2426 72.5802 36.2788Z"/>
<path id="path4_stroke_2x" d="M 71.5802 36.2788C 71.5802 55.7624 55.7806 71.5576 36.2901 71.5576L 36.2901 73.5576C 56.8846 73.5576 73.5802 56.8676 73.5802 36.2788L 71.5802 36.2788ZM 36.2901 71.5576C 16.7996 71.5576 1 55.7624 1 36.2788L -1 36.2788C -1 56.8676 15.6956 73.5576 36.2901 73.5576L 36.2901 71.5576ZM 1 36.2788C 1 16.7951 16.7996 1 36.2901 1L 36.2901 -1C 15.6956 -1 -1 15.69 -1 36.2788L 1 36.2788ZM 36.2901 1C 55.7806 1 71.5802 16.7951 71.5802 36.2788L 73.5802 36.2788C 73.5802 15.69 56.8846 -1 36.2901 -1L 36.2901 1Z"/>
<path id="path5_fill" d="M 21.4 10.6818C 21.4 16.5812 16.6094 21.3636 10.7 21.3636C 4.79055 21.3636 0 16.5812 0 10.6818C 0 4.78241 4.79055 0 10.7 0C 16.6094 0 21.4 4.78241 21.4 10.6818Z"/>
<path id="path6_fill" d="M 115.842 0C 93.4831 0 15.2256 33.4715 0.319397 59.5049C -3.40715 74.3811 26.4052 137.605 41.3114 178.515C 31.374 210.747 11.499 264.053 37.5849 286.367C 54.083 300.48 100.936 308.682 123.295 301.244C 145.655 293.805 186.647 264.053 194.1 208.267C 201.553 152.481 153.108 48.3477 153.108 33.4715C 153.108 18.5953 138.202 0 115.842 0Z"/>
<path id="path7_fill" d="M 0 5.89155C 10.9679 13.1887 32.6958 -18.8883 86.2963 18.5221C 88.3209 19.8394 89.4371 20.7677 89.4371 20.7677C 88.3782 19.9928 87.3313 19.2445 86.2963 18.5221C 79.2595 13.9435 61.2494 4.66536 40.992 13.3296C 31.7693 17.2743 22.3593 28.2058 7.45309 28.2058C 1.49062 28.2058 0 12.09 0 5.89155Z"/>
<path id="path8_fill" d="M 74.293 9.70772C 34.395 -14.6524 26.4829 15.8789 14.0098 4.85725L 0 15.3174C 3.62386 28.7869 30.7215 17.2579 41.3261 12.5027C 62.177 3.15292 74.293 9.70772 74.293 9.70772Z"/>
<path id="path9_fill" d="M 104.343 0C 67.0779 11.1572 11.1797 55.7859 0 92.9766C 3.72655 97.9353 13.0861 107.824 18.6328 104.134C 26.0859 99.175 30.4335 89.2575 33.539 70.6622C 40.9921 26.0334 104.343 0 104.343 0Z"/>
<path id="path10_fill" d="M 0 6.89356C 33.539 -7.98263 104.343 3.17452 115.523 21.7698L 100.617 36.646C 93.1638 36.646 80.017 18.9287 63.3514 10.6126C 33.539 -4.26358 0 6.89356 0 6.89356Z"/>
<path id="path11_fill" d="M 0 6.32277C 64.1345 -13.2957 154.083 17.1633 172.604 37.5202L 166.581 40.4398C 154.75 40.4398 147.896 29.4695 100.569 10.9521C 53.2424 -7.5653 0 6.32277 0 6.32277Z"/>
<path id="path12_fill" d="M 0 6.97356C 70.6156 -14.6641 169.654 18.9298 190.047 41.3821L 183.415 44.6022C 170.388 44.6022 162.841 32.5028 110.732 12.0794C 58.6228 -8.34397 0 6.97356 0 6.97356Z"/>
<path id="path13_fill" d="M 0 7.02912C 59.6443 -14.781 143.295 19.0807 160.52 41.7118L 154.919 44.9576C 143.915 44.9576 137.541 32.7618 93.528 12.1757C 49.5148 -8.41046 0 7.02912 0 7.02912Z"/>
<path id="path14_fill" d="M 0 11.1063C 20.4012 3.3852 91.771 -10.1319 109.001 12.4915L 103.398 15.7362C 103.398 15.7362 107.826 40.5548 93.5593 16.2511C 79.2921 -8.05252 0 11.1063 0 11.1063Z"/>
<path id="path15_fill" d="M 0 63.224C 3.72657 26.0334 37.2657 0 52.1719 0C 53.4141 2.47937 55.8985 15.62 55.8985 18.5953C 55.8985 22.3144 45.5475 28.8341 37.2657 29.7525C 3.72656 33.4715 0 63.224 0 63.224Z"/>
<path id="path16_fill" d="M 0 61.8465C 1.3862 36.2617 24.2623 3.97557 37.9457 0C 39.0455 2.99214 49.0897 11.8248 49.0897 15.4153C 49.0897 19.9035 39.9251 27.7717 32.5923 28.8799C 2.89706 33.3681 0 61.8465 0 61.8465Z"/>
<path id="path17_fill" d="M 1.55898 56.3829C -5.86881 26.6976 15.0649 -0.746971 26.0517 0.0155236C 35.3293 0.659391 44.9961 24.597 44.9961 28.1876C 44.9961 32.6758 27.3961 22.968 20.0262 23.7943C -1.83346 26.2452 1.55898 56.3829 1.55898 56.3829Z"/>
<path id="path18_fill" d="M 34.4717 32.5355C 34.4717 53.8943 17.3876 67.2225 10.3801 64.3838C 0.247741 60.2792 -1.17168e-12 41.8227 4.15599e-24 32.5355C 4.15599e-24 14.5666 7.71676 0 17.2359 0C 26.755 0 34.4717 8.08844 34.4717 32.5355Z"/>
<path id="path19_fill" d="M 29.8112 22.8321C 29.8112 33.9896 24.593 44.6302 15.8431 44.6302C 7.09318 44.6302 0 34.6394 0 22.3151C 0 6.09575 10.562 0 15.8431 0C 21.1241 0 29.8112 10.5078 29.8112 22.8321Z"/>
<path id="path20_fill" d="M 23.291 89.2573C 4.6582 81.8192 -2.79492 26.0334 0.931639 7.43811C -0.310546 6.19843 12.1113 0 12.1113 0C 27.0175 18.0443 27.0175 55.7858 27.0175 55.7858C 34.4706 66.943 56.83 59.5049 56.83 59.5049C 53.1034 66.943 41.9238 74.3811 27.0175 66.943L 27.0175 70.6621C 39.1411 85.5432 64.2831 70.6621 64.2831 70.6621C 53.1034 85.5383 38.1972 85.5383 38.1972 85.5383C 64.2831 85.5383 68.0097 96.6955 68.0097 96.6955C 45.7005 85.8819 41.9238 96.6955 23.291 89.2573Z"/>
<path id="path21_fill" d="M 6.97273 85.5382C -15.3866 59.5048 21.8789 3.71905 36.7851 0C 38.0273 13.6365 48.9796 32.3543 36.7851 40.9096C 10.6993 59.2105 36.7851 89.2573 36.7851 89.2573C 10.6993 78.1001 14.4258 55.7858 14.4258 55.7858C -0.480362 66.9429 6.97273 85.5382 6.97273 85.5382Z"/>
<path id="path22_fill" d="M 2.03171 37.1904C -1.69488 29.7523 -0.204244 8.9257 5.7583 0L 20.6647 0C 20.6647 0 9.48489 14.8762 13.2115 37.1904L 2.03171 37.1904Z"/>
<path id="path23_fill" d="M 7.45313 48.3476C 0 37.1904 7.45313 18.5952 0 7.43809L 18.6328 0C 18.6328 11.1571 11.1797 29.7524 18.6328 48.3476L 7.45313 48.3476Z"/>
<path id="path24_fill" d="M 328.725 0C 193.185 0 0 6.10526 0 6.10526L 0 124L 1024 124L 1024 79.3684C 1024 79.3684 464.264 0 328.725 0Z"/>
</defs>
</svg>
