<svg width="1024" height="640" viewBox="0 0 1024 640" fill="none" xmlns="http://www.w3.org/2000/svg">
<rect width="1024" height="640" fill="#ECECF2"/>
<path d="M169.076 216.76H128.756L118.772 243.448C118.388 244.088 118.132 244.792 118.004 245.56C117.876 246.328 117.812 246.904 117.812 247.288C117.812 248.696 118.452 249.848 119.732 250.744C121.14 251.64 123.892 252.408 127.988 253.048C129.78 253.304 130.676 254.52 130.676 256.696C130.676 257.592 130.548 258.68 130.292 259.96C126.836 259.704 123.188 259.448 119.348 259.192C115.508 259.064 111.732 259 108.02 259C105.46 259 102.772 259.064 99.9565 259.192C97.1405 259.32 94.0045 259.576 90.5485 259.96C90.2925 259.448 90.1645 258.872 90.1645 258.232C90.1645 257.592 90.1645 257.08 90.1645 256.696C90.1645 254.264 90.9965 252.984 92.6605 252.856C96.6285 252.088 99.4445 251.256 101.108 250.36C102.9 249.464 104.308 247.928 105.332 245.752L151.604 135.16C152.628 132.984 154.164 131.896 156.212 131.896C156.852 131.896 157.492 131.96 158.132 132.088C158.772 132.088 159.476 132.152 160.244 132.28L206.516 246.328C207.284 248.248 208.756 249.72 210.932 250.744C213.108 251.64 215.476 252.28 218.036 252.664C219.956 253.048 220.916 254.328 220.916 256.504C220.916 257.528 220.788 258.68 220.532 259.96C216.436 259.704 212.404 259.448 208.436 259.192C204.468 259.064 200.756 259 197.3 259C195.508 259 193.332 259 190.772 259C188.212 259.128 185.588 259.256 182.9 259.384C180.212 259.512 177.524 259.576 174.836 259.576C172.276 259.704 170.1 259.832 168.308 259.96C168.052 259.448 167.924 258.872 167.924 258.232C167.924 257.592 167.924 257.08 167.924 256.696C167.924 255.544 168.116 254.712 168.5 254.2C169.012 253.56 169.524 253.176 170.036 253.048C173.364 252.408 175.796 251.704 177.332 250.936C178.996 250.04 179.828 248.76 179.828 247.096C179.828 246.328 179.636 245.368 179.252 244.216L169.076 216.76ZM165.428 207.16L149.108 163.96L132.404 207.16H165.428ZM270.17 246.52C271.45 245.752 272.538 245.368 273.434 245.368C274.714 245.368 276.058 246.712 277.466 249.4C272.09 254.264 267.354 257.464 263.258 259C259.29 260.536 255.066 261.304 250.586 261.304C248.026 261.304 245.53 260.984 243.098 260.344C240.794 259.704 238.682 258.552 236.762 256.888C234.842 255.224 233.306 252.984 232.154 250.168C231.002 247.224 230.426 243.512 230.426 239.032V186.232H218.906V181.432C218.906 180.92 219.034 180.28 219.29 179.512C219.546 178.744 220.314 178.36 221.594 178.36C225.05 178.36 228.25 177.4 231.194 175.48C234.138 173.432 236.506 170.424 238.298 166.456C239.706 163.512 241.242 161.144 242.906 159.352C244.698 157.56 246.426 156.664 248.09 156.664H252.122V176.632H274.586C274.586 180.728 274.266 183.352 273.626 184.504C273.114 185.656 272.09 186.232 270.554 186.232H252.122V233.656C252.122 237.496 252.25 240.568 252.506 242.872C252.762 245.048 253.146 246.712 253.658 247.864C254.298 249.016 255.066 249.784 255.962 250.168C256.986 250.424 258.138 250.552 259.418 250.552C260.826 250.552 262.49 250.232 264.41 249.592C266.33 248.824 268.25 247.8 270.17 246.52ZM329.089 259.96C325.761 259.704 322.305 259.448 318.721 259.192C315.137 259.064 311.297 259 307.201 259C302.209 259 297.985 259.064 294.529 259.192C291.201 259.448 287.937 259.704 284.737 259.96C284.481 258.68 284.353 257.464 284.353 256.312C284.353 255.416 284.545 254.84 284.929 254.584C285.441 254.2 285.953 253.944 286.465 253.816C290.561 253.176 293.377 252.408 294.913 251.512C296.449 250.488 297.217 249.016 297.217 247.096V146.488C297.217 142.648 296.577 139.768 295.297 137.848C294.017 135.8 291.009 134.584 286.273 134.2C284.609 133.944 283.777 132.92 283.777 131.128C283.777 130.744 283.777 130.296 283.777 129.784C283.777 129.144 283.905 128.568 284.161 128.056C284.929 128.056 286.017 128.056 287.425 128.056C288.961 127.928 290.561 127.864 292.225 127.864C293.889 127.736 295.553 127.608 297.217 127.48C298.881 127.352 300.417 127.224 301.825 127.096C305.025 126.712 308.097 126.2 311.041 125.56C313.985 124.92 315.969 124.6 316.993 124.6C319.041 124.6 320.065 125.56 320.065 127.48C320.065 128.888 319.873 130.744 319.489 133.048C319.105 135.224 318.913 138.36 318.913 142.456V192.184C323.009 186.808 327.553 182.52 332.545 179.32C337.537 175.992 342.721 174.328 348.097 174.328C355.905 174.328 362.049 176.504 366.529 180.856C371.009 185.208 373.249 191.736 373.249 200.44V247.288C373.249 249.08 373.953 250.424 375.361 251.32C376.897 252.216 379.777 253.048 384.001 253.816C384.513 253.944 384.961 254.2 385.345 254.584C385.857 254.84 386.113 255.416 386.113 256.312C386.113 257.464 385.985 258.68 385.729 259.96C382.401 259.704 379.073 259.448 375.745 259.192C372.417 259.064 368.257 259 363.265 259C359.169 259 355.329 259.064 351.745 259.192C348.161 259.448 344.705 259.704 341.377 259.96C341.121 259.448 340.993 258.872 340.993 258.232C340.993 257.592 340.993 256.952 340.993 256.312C340.993 254.904 341.697 254.072 343.105 253.816C346.561 253.176 348.801 252.408 349.825 251.512C350.977 250.616 351.553 249.208 351.553 247.288V209.656C351.553 202.104 350.593 196.92 348.673 194.104C346.881 191.16 343.937 189.688 339.841 189.688C334.081 189.688 329.153 191.672 325.057 195.64C320.961 199.48 318.913 205.24 318.913 212.92V247.288C318.913 249.208 319.425 250.616 320.449 251.512C321.473 252.408 323.777 253.176 327.361 253.816C328.769 254.072 329.473 254.904 329.473 256.312C329.473 256.952 329.473 257.592 329.473 258.232C329.473 258.872 329.345 259.448 329.089 259.96ZM469.442 241.336C470.594 240.44 471.618 239.992 472.514 239.992C473.154 239.992 473.858 240.312 474.626 240.952C475.522 241.464 476.418 242.552 477.314 244.216C472.322 250.104 466.562 254.456 460.034 257.272C453.634 259.96 446.018 261.304 437.186 261.304C432.194 261.304 427.266 260.536 422.402 259C417.666 257.336 413.378 254.84 409.538 251.512C405.698 248.056 402.562 243.768 400.13 238.648C397.826 233.528 396.674 227.384 396.674 220.216C396.674 213.176 398.018 206.84 400.706 201.208C403.522 195.448 407.042 190.584 411.266 186.616C415.49 182.648 420.098 179.64 425.09 177.592C430.082 175.416 434.882 174.328 439.49 174.328C451.906 174.328 461.25 177.912 467.522 185.08C473.922 192.248 477.122 202.04 477.122 214.456C477.122 215.352 476.674 215.8 475.778 215.8L420.674 218.104C420.674 228.088 422.914 235.768 427.394 241.144C431.874 246.392 438.594 249.016 447.554 249.016C451.522 249.016 455.426 248.376 459.266 247.096C463.106 245.816 466.498 243.896 469.442 241.336ZM436.61 182.776C431.618 182.776 427.586 184.952 424.514 189.304C421.57 193.528 420.098 200.248 420.098 209.464L450.05 208.12C451.97 207.992 452.93 207.16 452.93 205.624C452.93 203.192 452.61 200.632 451.97 197.944C451.33 195.256 450.306 192.824 448.898 190.648C447.618 188.344 445.954 186.488 443.906 185.08C441.858 183.544 439.426 182.776 436.61 182.776ZM577.999 247.288C577.999 249.08 578.767 250.488 580.303 251.512C581.839 252.408 584.655 253.176 588.751 253.816C589.263 253.944 589.711 254.2 590.095 254.584C590.607 254.84 590.863 255.416 590.863 256.312C590.863 257.08 590.799 257.784 590.671 258.424C590.671 258.936 590.607 259.448 590.479 259.96C587.151 259.704 583.823 259.448 580.495 259.192C577.167 259.064 573.007 259 568.015 259C563.919 259 560.079 259.064 556.495 259.192C552.911 259.448 549.455 259.704 546.127 259.96C545.871 259.32 545.743 258.104 545.743 256.312C545.743 254.904 546.447 254.072 547.855 253.816C551.183 253.176 553.423 252.408 554.575 251.512C555.727 250.616 556.303 249.208 556.303 247.288V209.656C556.303 202.104 555.343 196.92 553.423 194.104C551.631 191.16 548.687 189.688 544.591 189.688C538.831 189.688 533.903 191.672 529.807 195.64C525.711 199.48 523.663 205.24 523.663 212.92V247.288C523.663 249.208 524.239 250.616 525.391 251.512C526.543 252.408 528.783 253.176 532.111 253.816C533.519 254.072 534.223 254.904 534.223 256.312C534.223 258.104 534.095 259.32 533.839 259.96C530.511 259.704 527.055 259.448 523.471 259.192C519.887 259.064 516.047 259 511.951 259C506.959 259 502.735 259.064 499.279 259.192C495.951 259.448 492.687 259.704 489.487 259.96C489.359 259.448 489.231 258.936 489.103 258.424C489.103 257.784 489.103 257.08 489.103 256.312C489.103 255.416 489.295 254.84 489.679 254.584C490.191 254.2 490.703 253.944 491.215 253.816C495.311 253.048 498.127 252.216 499.663 251.32C501.199 250.424 501.967 249.016 501.967 247.096V196.408C501.967 192.568 501.263 189.624 499.855 187.576C498.447 185.528 495.503 184.312 491.023 183.928C489.359 183.544 488.527 182.52 488.527 180.856C488.527 180.472 488.527 180.024 488.527 179.512C488.527 178.872 488.655 178.296 488.911 177.784C489.679 177.784 490.767 177.784 492.175 177.784C493.711 177.656 495.311 177.592 496.975 177.592C498.639 177.464 500.303 177.336 501.967 177.208C503.631 177.08 505.167 176.952 506.575 176.824C509.775 176.44 512.847 175.928 515.791 175.288C518.735 174.648 520.719 174.328 521.743 174.328C523.791 174.328 524.815 175.288 524.815 177.208C524.815 178.616 524.623 180.472 524.239 182.776C523.855 185.08 523.663 188.28 523.663 192.376C527.759 187 532.303 182.648 537.295 179.32C542.287 175.992 547.471 174.328 552.847 174.328C560.655 174.328 566.799 176.504 571.279 180.856C575.759 185.208 577.999 191.736 577.999 200.44V247.288ZM684.56 253.048C686.48 253.048 687.44 254.648 687.44 257.848C685.776 259 683.664 259.832 681.104 260.344C678.672 260.984 676.176 261.304 673.616 261.304C667.856 261.304 663.44 259.896 660.368 257.08C657.296 254.264 655.504 251 654.992 247.288C652.432 252.408 648.976 256.056 644.624 258.232C640.4 260.28 635.408 261.304 629.648 261.304C626.96 261.304 623.952 261.048 620.624 260.536C617.424 260.152 614.416 259.256 611.6 257.848C608.912 256.44 606.608 254.456 604.688 251.896C602.768 249.336 601.808 245.944 601.808 241.72C601.808 236.984 603.024 232.952 605.456 229.624C607.888 226.296 610.896 223.544 614.48 221.368C618.192 219.064 622.224 217.272 626.576 215.992C630.928 214.584 635.024 213.432 638.864 212.536C640.528 212.152 642.256 211.768 644.048 211.384C645.84 210.872 647.248 210.488 648.272 210.232C649.68 209.848 650.576 209.336 650.96 208.696C651.344 207.928 651.536 206.072 651.536 203.128C651.536 196.6 650.576 191.608 648.656 188.152C646.736 184.568 643.472 182.776 638.864 182.776C635.152 182.776 632.464 183.928 630.8 186.232C629.264 188.536 627.792 192.184 626.384 197.176C626 198.584 624.848 199.672 622.928 200.44C621.136 201.08 618.832 201.784 616.016 202.552C614.48 202.936 612.88 203.256 611.216 203.512C609.68 203.768 608.272 203.896 606.992 203.896C606.224 203.896 605.712 203.64 605.456 203.128C605.2 202.488 605.072 201.336 605.072 199.672C605.072 196.472 606.224 193.336 608.528 190.264C610.96 187.192 613.968 184.504 617.552 182.2C621.136 179.768 625.04 177.848 629.264 176.44C633.616 175.032 637.776 174.328 641.744 174.328C646.48 174.328 650.768 174.776 654.608 175.672C658.448 176.44 661.712 177.912 664.4 180.088C667.216 182.136 669.392 184.952 670.928 188.536C672.464 191.992 673.232 196.472 673.232 201.976V235.768C673.232 240.248 673.296 243.512 673.424 245.56C673.68 247.608 674.064 249.144 674.576 250.168C675.728 252.472 677.52 253.624 679.952 253.624C680.976 253.624 681.808 253.56 682.448 253.432C683.216 253.176 683.92 253.048 684.56 253.048ZM651.536 217.144L647.312 217.912C644.368 218.424 641.616 219.192 639.056 220.216C636.496 221.112 634.256 222.392 632.336 224.056C630.544 225.592 629.072 227.576 627.92 230.008C626.896 232.312 626.384 235.128 626.384 238.456C626.384 243.448 627.152 246.968 628.688 249.016C630.352 250.936 632.72 251.896 635.792 251.896C640.656 251.896 644.496 250.104 647.312 246.52C650.128 242.936 651.536 237.944 651.536 231.544V217.144Z" fill="#23232C"/>
<line x1="89.3965" y1="364.75" x2="251.936" y2="364.75" stroke="#23232C" stroke-width="8"/>
</svg>
