<svg width="1024" height="640" viewBox="0 0 1024 640" version="1.1" xmlns="http://www.w3.org/2000/svg" xmlns:xlink="http://www.w3.org/1999/xlink">
<title>soundsradcakes</title>
<desc>Created using Figma</desc>
<g id="Canvas" transform="translate(-5425 244)">
<g id="soundsradcakes">
<g id="Rectangle">
<use xlink:href="#path0_fill" transform="translate(5425 -244)" fill="#FFEB3B"/>
</g>
<g id="soundsradcakes-logo">
<g id="Vector">
<use xlink:href="#path1_fill" transform="translate(5723 -139)" fill="#FFFFFF"/>
</g>
<g id="Vector">
<use xlink:href="#path2_fill" transform="translate(5844.2 49.9478)" fill="#FFFFFF"/>
</g>
</g>
</g>
</g>
<defs>
<path id="path0_fill" d="M 0 0L 1024 0L 1024 640L 0 640L 0 0Z"/>
<path id="path1_fill" d="M 412.689 305.712C 405.337 305.712 399.376 299.76 399.376 292.42L 399.376 212.669C 399.376 110.061 315.769 26.5844 213.001 26.5844C 110.232 26.5844 26.6258 110.061 26.6258 212.669L 26.6258 292.42C 26.6258 299.76 20.6647 305.712 13.3129 305.712C 5.96113 305.712 -4.37516e-08 299.76 -4.37516e-08 292.42L -4.37516e-08 212.669C -4.37516e-08 95.4029 95.5515 2.73022e-07 213.001 2.73022e-07C 330.45 2.73022e-07 426 95.4015 426 212.668L 426 292.418C 426 299.76 420.04 305.712 412.689 305.712ZM 106.5 358.879L 106.5 225.962C 106.5 218.621 100.539 212.669 93.1875 212.669L 66.5631 212.669C 59.2113 212.669 53.2502 218.621 53.2502 225.962L 53.2502 358.879C 53.2502 366.219 59.2113 372.171 66.5631 372.171L 93.1875 372.171C 100.539 372.17 106.5 366.219 106.5 358.879ZM 372.75 358.879L 372.75 225.962C 372.75 218.621 366.789 212.669 359.437 212.669L 332.813 212.669C 325.461 212.669 319.5 218.621 319.5 225.962L 319.5 358.879C 319.5 366.219 325.461 372.171 332.813 372.171L 359.437 372.171C 366.79 372.17 372.75 366.219 372.75 358.879Z"/>
<path id="path2_fill" d="M 183.508 125.965C 183.508 108.82 170.927 94.6113 154.48 92.0319C 158.282 87.175 160.569 81.0772 160.569 74.434C 160.569 58.6225 147.732 45.8055 131.896 45.8055L 124.196 45.8055C 125.465 42.2227 126.161 38.3707 126.161 34.3541C 126.161 15.3806 110.757 4.36835e-06 91.7538 4.36835e-06C 91.7538 18.9735 72.6375 28.6285 57.3461 34.3541C 39.5531 41.016 22.9385 49.7348 22.9385 68.7083C 22.9385 77.5602 26.2932 85.6277 31.8013 91.7198C 14.0183 93.0511 5.16269e-06 107.869 5.16269e-06 125.965C 5.16269e-06 144.366 14.4899 159.386 32.6988 160.276L 39.0728 233.247C 39.3681 236.65 42.2211 239.048 45.6404 239.048L 137.955 239.048C 141.374 239.048 144.227 236.65 144.522 233.247L 150.896 160.168C 169.064 159.234 183.508 144.337 183.508 125.965Z"/>
</defs>
</svg>
