<svg width="1130" height="316" viewBox="0 0 1130 316" fill="none" xmlns="http://www.w3.org/2000/svg">
<rect width="1130" height="316" transform="matrix(1 0 0 -1 0 316)" fill="white"/>
<rect width="128" height="128" transform="matrix(1 0 0 -1 148 296)" fill="#F9826C"/>
<rect width="128" height="128" transform="matrix(1 0 0 -1 426 148)" fill="#83ECC0"/>
<rect width="128" height="128" transform="matrix(1 0 0 -1 576 148)" fill="#EEFC79"/>
<rect width="128" height="128" transform="matrix(1 0 0 -1 426 296)" fill="#E84A4A"/>
<rect width="128" height="128" transform="matrix(1 0 0 -1 576 296)" fill="#EA4AA5"/>
<rect width="128" height="128" transform="matrix(1 0 0 -1 20 296)" fill="#ED674F"/>
<rect width="128" height="128" transform="matrix(1 0 0 -1 298 148)" fill="#32E6A5"/>
<rect width="128" height="128" transform="matrix(1 0 0 -1 704 148)" fill="#E7F547"/>
<rect width="128" height="128" transform="matrix(1 0 0 -1 298 296)" fill="#F87C84"/>
<rect width="128" height="128" transform="matrix(1 0 0 -1 704 296)" fill="#EC6CB5"/>
<rect width="128" height="128" transform="matrix(1 0 0 -1 20 148)" fill="#5E81FC"/>
<rect width="128" height="128" transform="matrix(1 0 0 -1 982 296)" fill="#6F42C1"/>
<rect width="128" height="128" transform="matrix(1 0 0 -1 854 148)" fill="#676D87"/>
<rect width="128" height="128" transform="matrix(1 0 0 -1 148 148)" fill="#365EFB"/>
<rect width="128" height="128" transform="matrix(1 0 0 -1 854 296)" fill="#8A63D2"/>
<rect width="128" height="128" transform="matrix(1 0 0 -1 982 148)" fill="#868DA5"/>
<circle cx="52" cy="52" r="14" stroke="black" stroke-width="4"/>
<circle cx="1046" cy="232" r="22" stroke="white" stroke-width="4"/>
<circle cx="522" cy="52" r="16" fill="white"/>
<path d="M212 131L240.579 180.5H183.421L212 131Z" fill="black" stroke="black" stroke-width="4" stroke-linejoin="round"/>
<path d="M998 84L974 97.8564L974 70.1436L998 84Z" fill="white" stroke="white" stroke-width="4" stroke-linejoin="round"/>
<path d="M359.508 230.668C358.772 231.493 358.844 232.757 359.668 233.492C360.493 234.228 361.757 234.156 362.492 233.332L359.508 230.668ZM524.497 50.8863C524.434 49.7835 523.489 48.9404 522.386 49.0032L504.415 50.0264C503.313 50.0892 502.47 51.0341 502.532 52.1368C502.595 53.2396 503.54 54.0827 504.643 54.0199L520.617 53.1104L521.526 69.0846C521.589 70.1874 522.534 71.0304 523.637 70.9677C524.74 70.9049 525.583 69.96 525.52 68.8572L524.497 50.8863ZM362.492 233.332L523.992 52.3315L521.008 49.6685L359.508 230.668L362.492 233.332Z" fill="black"/>
<path d="M614 160.664C614 71.5886 729.924 74.649 705.859 160.664C682.5 244.154 797 248.707 797 160.664" stroke="black" stroke-width="4" stroke-linecap="round"/>
<line x1="728" y1="249" x2="756" y2="249" stroke="white" stroke-width="4" stroke-linecap="round"/>
</svg>
